<svg width="24" height="24" viewBox="0 0 24 24" fill="none" xmlns="http://www.w3.org/2000/svg">
<path d="M18 20.79H6C5.50416 20.7901 5.01323 20.6918 4.55564 20.5008C4.09804 20.3099 3.68285 20.0301 3.33411 19.6776C2.98536 19.3251 2.70997 18.907 2.52389 18.4474C2.3378 17.9878 2.24471 17.4959 2.25 17V10C2.26312 9.01324 2.66368 8.07117 3.36524 7.37709C4.0668 6.68301 5.01312 6.29258 6 6.29004H18C18.9869 6.29258 19.9332 6.68301 20.6348 7.37709C21.3363 8.07117 21.7369 9.01324 21.75 10V17C21.7553 17.4959 21.6622 17.9878 21.4761 18.4474C21.29 18.907 21.0146 19.3251 20.6659 19.6776C20.3171 20.0301 19.902 20.3099 19.4444 20.5008C18.9868 20.6918 18.4958 20.7901 18 20.79ZM6 7.79004C5.41013 7.78995 4.84381 8.0215 4.42299 8.43484C4.00216 8.84819 3.76049 9.41026 3.75 10V17C3.74469 17.2989 3.79896 17.5957 3.90965 17.8734C4.02034 18.151 4.18524 18.4038 4.3947 18.617C4.60416 18.8301 4.854 18.9995 5.12962 19.115C5.40524 19.2306 5.70113 19.2901 6 19.29H18C18.2989 19.2901 18.5948 19.2306 18.8704 19.115C19.146 18.9995 19.3958 18.8301 19.6053 18.617C19.8148 18.4038 19.9797 18.151 20.0903 17.8734C20.201 17.5957 20.2553 17.2989 20.25 17V10C20.2395 9.41026 19.9978 8.84819 19.577 8.43484C19.1562 8.0215 18.5899 7.78995 18 7.79004H6Z" fill="white"/>
<path d="M21 17.2898H15.45C14.6013 17.2898 13.7874 16.9527 13.1873 16.3525C12.5871 15.7524 12.25 14.9385 12.25 14.0898V12.9998C12.2526 12.1519 12.5906 11.3395 13.1902 10.74C13.7897 10.1404 14.6021 9.80244 15.45 9.7998H21C21.1989 9.7998 21.3897 9.87882 21.5303 10.0195C21.671 10.1601 21.75 10.3509 21.75 10.5498C21.75 10.7487 21.671 10.9395 21.5303 11.0801C21.3897 11.2208 21.1989 11.2998 21 11.2998H15.45C14.9991 11.2998 14.5667 11.4789 14.2479 11.7977C13.9291 12.1165 13.75 12.5489 13.75 12.9998V14.0998C13.75 14.5507 13.9291 14.9831 14.2479 15.3019C14.5667 15.6207 14.9991 15.7998 15.45 15.7998H21C21.1989 15.7998 21.3897 15.8788 21.5303 16.0195C21.671 16.1601 21.75 16.3509 21.75 16.5498C21.75 16.7487 21.671 16.9395 21.5303 17.0801C21.3897 17.2208 21.1989 17.2998 21 17.2998V17.2898Z" fill="white"/>
<path d="M17 14.2899C16.8011 14.2897 16.6105 14.2106 16.47 14.0699C16.3994 14.001 16.3435 13.9185 16.3057 13.8274C16.2679 13.7363 16.249 13.6385 16.25 13.5399C16.2496 13.4433 16.27 13.3478 16.31 13.2599C16.3477 13.1675 16.4019 13.0828 16.47 13.0099C16.6106 12.8694 16.8012 12.7905 17 12.7905C17.1987 12.7905 17.3894 12.8694 17.53 13.0099C17.5981 13.0828 17.6523 13.1675 17.69 13.2599C17.7299 13.3478 17.7504 13.4433 17.75 13.5399C17.751 13.6385 17.7321 13.7363 17.6943 13.8274C17.6564 13.9185 17.6006 14.001 17.53 14.0699C17.3895 14.2106 17.1988 14.2897 17 14.2899Z" fill="white"/>
<path d="M6.33 7.78984C6.15329 7.78715 5.98322 7.72215 5.84976 7.6063C5.7163 7.49046 5.62804 7.33121 5.60054 7.15663C5.57304 6.98206 5.60807 6.80339 5.69944 6.65212C5.79082 6.50086 5.93268 6.38672 6.1 6.32984L15.34 3.32984C15.6099 3.2416 15.8966 3.21705 16.1776 3.25808C16.4586 3.29912 16.7263 3.40464 16.9597 3.56639C17.1931 3.72813 17.3859 3.94171 17.523 4.19039C17.6601 4.43908 17.7378 4.71612 17.75 4.99984V6.99984C17.75 7.19875 17.671 7.38951 17.5303 7.53017C17.3897 7.67082 17.1989 7.74984 17 7.74984C16.8011 7.74984 16.6103 7.67082 16.4697 7.53017C16.329 7.38951 16.25 7.19875 16.25 6.99984V4.99984C16.25 4.9469 16.2373 4.89474 16.213 4.84775C16.1886 4.80075 16.1533 4.76031 16.11 4.72984C16.0633 4.70689 16.012 4.69496 15.96 4.69496C15.908 4.69496 15.8567 4.70689 15.81 4.72984L6.57 7.72984C6.49279 7.75969 6.41217 7.77985 6.33 7.78984Z" fill="white"/>
</svg>
