<svg width="24" height="24" viewBox="0 0 24 24" fill="none" xmlns="http://www.w3.org/2000/svg">
<path d="M14.2077 12.0204L23.4982 2.7298C23.6531 2.58548 23.7774 2.41144 23.8635 2.21806C23.9497 2.02468 23.996 1.81593 23.9998 1.60426C24.0035 1.39259 23.9646 1.18234 23.8853 0.986041C23.806 0.789745 23.688 0.61143 23.5383 0.461733C23.3886 0.312035 23.2103 0.194023 23.014 0.114736C22.8177 0.0354487 22.6074 -0.00348935 22.3957 0.000245338C22.1841 0.00398002 21.9753 0.0503109 21.7819 0.136473C21.5886 0.222636 21.4145 0.346865 21.2702 0.50175L11.9796 9.7923L2.68909 0.50175C2.39025 0.223285 1.99499 0.0716864 1.58658 0.0788923C1.17817 0.0860982 0.788501 0.251546 0.499668 0.54038C0.210835 0.829213 0.0453868 1.21888 0.0381809 1.62729C0.030975 2.0357 0.182574 2.43096 0.461038 2.7298L9.75159 12.0204L0.461038 21.3109C0.16582 21.6065 0 22.0072 0 22.4249C0 22.8427 0.16582 23.2434 0.461038 23.539C0.756624 23.8342 1.1573 24 1.57506 24C1.99283 24 2.3935 23.8342 2.68909 23.539L11.9796 14.2484L21.2702 23.539C21.5658 23.8342 21.9665 24 22.3842 24C22.802 24 23.2027 23.8342 23.4982 23.539C23.7935 23.2434 23.9593 22.8427 23.9593 22.4249C23.9593 22.0072 23.7935 21.6065 23.4982 21.3109L14.2077 12.0204Z" fill="white"/>
</svg>
