<svg width="26" height="23" viewBox="0 0 26 23" fill="none" xmlns="http://www.w3.org/2000/svg">
<path d="M3.32609 3.71429V0.5H5.54348V3.71429H8.86957V5.85714H5.54348V9.07143H3.32609V5.85714H0V3.71429H3.32609ZM6.65217 10.1429V6.92857H9.97826V3.71429H17.7391L19.768 5.85714H23.2826C24.5022 5.85714 25.5 6.82143 25.5 8V20.8571C25.5 22.0357 24.5022 23 23.2826 23H5.54348C4.32391 23 3.32609 22.0357 3.32609 20.8571V10.1429H6.65217ZM14.413 19.7857C17.473 19.7857 19.9565 17.3857 19.9565 14.4286C19.9565 11.4714 17.473 9.07143 14.413 9.07143C11.353 9.07143 8.86957 11.4714 8.86957 14.4286C8.86957 17.3857 11.353 19.7857 14.413 19.7857ZM10.8652 14.4286C10.8652 16.325 12.4507 17.8571 14.413 17.8571C16.3754 17.8571 17.9609 16.325 17.9609 14.4286C17.9609 12.5321 16.3754 11 14.413 11C12.4507 11 10.8652 12.5321 10.8652 14.4286Z" fill="white" fill-opacity="0.9"/>
</svg>
