<svg width="36" height="37" viewBox="0 0 36 37" fill="none" xmlns="http://www.w3.org/2000/svg">
<g clip-path="url(#clip0_383_3524)">
<path d="M18 36.5C27.9411 36.5 36 28.4411 36 18.5C36 8.55887 27.9411 0.5 18 0.5C8.05887 0.5 0 8.55887 0 18.5C0 28.4411 8.05887 36.5 18 36.5Z" fill="black"/>
<path d="M22.1171 11C23.2346 11 24.3096 11.4417 25.1005 12.2342C25.8921 13.025 26.3346 14.0917 26.3346 15.2083V21.7917C26.3346 24.1167 24.443 26 22.1171 26H13.8846C11.5588 26 9.66797 24.1167 9.66797 21.7917V15.2083C9.66797 12.8833 11.5505 11 13.8846 11H22.1171ZM23.0596 15.3333C22.8846 15.3242 22.718 15.3833 22.5921 15.5L18.8346 18.5C18.3513 18.9008 17.6588 18.9008 17.168 18.5L13.418 15.5C13.1588 15.3083 12.8005 15.3333 12.5846 15.5583C12.3596 15.7833 12.3346 16.1417 12.5255 16.3917L12.6346 16.5L16.4263 19.4583C16.893 19.825 17.4588 20.025 18.0513 20.025C18.6421 20.025 19.218 19.825 19.6838 19.4583L23.443 16.45L23.5096 16.3833C23.7088 16.1417 23.7088 15.7917 23.5005 15.55C23.3846 15.4258 23.2255 15.35 23.0596 15.3333Z" fill="#888888"/>
</g>
<defs>
<clipPath id="clip0_383_3524">
<rect width="36" height="37" fill="white"/>
</clipPath>
</defs>
</svg>
