<svg width="22" height="27" viewBox="0 0 22 27" fill="none" xmlns="http://www.w3.org/2000/svg">
<path d="M18 18.6665V19.0807L18.2929 19.3736L20.5858 21.6665H1.41426L3.70715 19.3736L4.00004 19.0807V18.6665V11.9998C4.00004 8.24191 5.95775 5.32168 9.23059 4.54623L10 4.36392V3.57317V2.6665C10 2.11212 10.4457 1.6665 11 1.6665C11.5544 1.6665 12 2.11212 12 2.6665V3.57317V4.36329L12.7687 4.54605C16.0296 5.32137 18 8.25614 18 11.9998V18.6665ZM12.3297 24.9998C12.0244 25.4037 11.5405 25.6665 11 25.6665C10.453 25.6665 9.9697 25.4042 9.66632 24.9998H12.3297Z" stroke="white" stroke-width="2"/>
</svg>
