<svg width="42" height="26" viewBox="0 0 42 26" fill="none" xmlns="http://www.w3.org/2000/svg">
<path d="M41.4328 12.6925C41.4328 19.513 35.8872 25.1223 29.0029 25.1223C22.1825 25.1223 16.5731 19.513 16.5731 12.6925C16.5731 5.87205 22.1187 0.262695 28.9392 0.262695C35.8872 0.262695 41.4328 5.87205 41.4328 12.6925Z" fill="#F9B50B"/>
<path d="M24.7959 12.7563C24.7959 11.8639 24.6684 10.9715 24.5409 10.1428H16.8918C16.9556 9.69661 17.083 9.31416 17.2105 8.80421H24.031C23.9035 8.35802 23.7123 7.91182 23.5211 7.46562H17.7205C17.9117 7.01942 18.1667 6.63696 18.4216 6.12702H22.8199C22.5649 5.68082 22.2462 5.23462 21.8637 4.78843H19.4415C19.824 4.34223 20.2064 3.95977 20.7164 3.51357C18.5491 1.47381 15.617 0.262695 12.3661 0.262695C5.60936 0.453923 0 5.87205 0 12.6925C0 19.513 5.54561 25.1223 12.4298 25.1223C15.6807 25.1223 18.5491 23.8475 20.7801 21.8715C21.2263 21.489 21.6088 21.0428 22.055 20.5329H19.5053C19.1865 20.1504 18.8678 19.7042 18.6129 19.258H22.9474C23.2023 18.8756 23.4573 18.4294 23.6485 17.9194H17.848C17.6567 17.537 17.4655 17.0908 17.338 16.5808H24.1585C24.5409 15.4335 24.7959 14.1586 24.7959 12.7563Z" fill="#C8191C"/>
<path d="M16.8281 15.8797L17.0193 14.7323C16.9555 14.7323 16.8281 14.7961 16.7006 14.7961C16.2544 14.7961 16.1906 14.5411 16.2544 14.4136L16.6368 12.1189H17.338L17.5292 10.844H16.8918L17.0193 10.0791H15.6807C15.6807 10.0791 14.9158 14.4136 14.9158 14.9235C14.9158 15.6885 15.362 16.0709 15.9994 16.0709C16.3819 16.0709 16.7006 15.9434 16.8281 15.8797Z" fill="white"/>
<path d="M17.2743 13.7755C17.2743 15.6241 18.5491 16.0703 19.569 16.0703C20.5252 16.0703 20.9714 15.879 20.9714 15.879L21.2263 14.6042C21.2263 14.6042 20.5252 14.9229 19.824 14.9229C18.3579 14.9229 18.6129 13.8393 18.6129 13.8393H21.2901C21.2901 13.8393 21.4813 13.0106 21.4813 12.6282C21.4813 11.7995 21.0351 10.7159 19.569 10.7159C18.2942 10.6521 17.2743 12.1182 17.2743 13.7755ZM19.569 11.8632C20.2702 11.8632 20.1427 12.6919 20.1427 12.7556H18.6766C18.7404 12.6919 18.8679 11.8632 19.569 11.8632Z" fill="white"/>
<path d="M27.9193 15.8794L28.1743 14.4133C28.1743 14.4133 27.5369 14.732 27.0269 14.732C26.1346 14.732 25.6884 14.0309 25.6884 13.2022C25.6884 11.6087 26.4533 10.78 27.4094 10.78C28.0468 10.78 28.6205 11.1625 28.6205 11.1625L28.8117 9.76012C28.8117 9.76012 28.0468 9.44141 27.2819 9.44141C25.7521 9.44141 24.286 10.78 24.286 13.266C24.286 14.9233 25.0509 16.0069 26.6445 16.0069C27.2182 16.0706 27.9193 15.8794 27.9193 15.8794Z" fill="white"/>
<path d="M9.62513 10.6523C8.73273 10.6523 8.03156 10.9073 8.03156 10.9073L7.84033 12.0547C7.84033 12.0547 8.41401 11.7997 9.30641 11.7997C9.75261 11.7997 10.1351 11.8635 10.1351 12.2459C10.1351 12.5009 10.0713 12.5646 10.0713 12.5646H9.49764C8.35027 12.5646 7.13916 13.0108 7.13916 14.5406C7.13916 15.7518 7.90407 16.0067 8.41401 16.0067C9.30641 16.0067 9.75261 15.433 9.81635 15.433L9.75261 15.943H10.8362L11.3462 12.3097C11.3462 10.7161 10.0713 10.6523 9.62513 10.6523ZM9.8801 13.5845C9.8801 13.7757 9.75261 14.8594 8.9877 14.8594C8.60524 14.8594 8.47776 14.5406 8.47776 14.3494C8.47776 14.0307 8.66898 13.5845 9.68887 13.5845C9.81635 13.5845 9.8801 13.5845 9.8801 13.5845Z" fill="white"/>
<path d="M12.621 16.007C12.9397 16.007 14.5971 16.0707 14.5971 14.2859C14.5971 12.6286 13.0035 12.9473 13.0035 12.3099C13.0035 11.9912 13.2585 11.8637 13.7047 11.8637C13.8959 11.8637 14.5971 11.9275 14.5971 11.9275L14.7883 10.7164C14.7883 10.7164 14.3421 10.5889 13.5134 10.5889C12.5573 10.5889 11.5374 10.9713 11.5374 12.3099C11.5374 13.8397 13.1947 13.7123 13.1947 14.2859C13.1947 14.6684 12.7485 14.7321 12.4298 14.7321C11.8561 14.7321 11.2187 14.5409 11.2187 14.5409L11.0275 15.752C11.155 15.8795 11.5374 16.007 12.621 16.007Z" fill="white"/>
<path d="M38.8831 9.63281L38.6282 11.4176C38.6282 11.4176 38.1182 10.7802 37.3533 10.7802C36.1422 10.7802 35.1223 12.2463 35.1223 13.9673C35.1223 15.0509 35.6323 16.1346 36.7796 16.1346C37.5445 16.1346 38.0545 15.6246 38.0545 15.6246L37.9907 16.0708H39.3293L40.2855 9.7603L38.8831 9.63281ZM38.2457 13.0749C38.2457 13.7761 37.927 14.7322 37.1621 14.7322C36.7159 14.7322 36.4609 14.3498 36.4609 13.6486C36.4609 12.565 36.9071 11.9275 37.5445 11.9275C37.9907 11.9913 38.2457 12.31 38.2457 13.0749Z" fill="white"/>
<path d="M2.42219 15.9433L3.1871 11.2264L3.31459 15.9433H4.20699L5.92804 11.2264L5.22687 15.9433H6.62921L7.71284 9.63281H5.54558L4.20699 13.5211L4.14324 9.63281H2.23096L1.14734 15.9433H2.42219Z" fill="white"/>
<path d="M22.8198 15.9434C23.2023 13.7762 23.266 11.9914 24.2222 12.3101C24.3497 11.4814 24.5409 11.099 24.6684 10.7803H24.4134C23.8397 10.7803 23.3298 11.5452 23.3298 11.5452L23.4573 10.844H22.1824L21.3538 15.9434H22.8198Z" fill="white"/>
<path d="M30.9789 10.6523C30.0865 10.6523 29.3853 10.9073 29.3853 10.9073L29.1941 12.0547C29.1941 12.0547 29.7678 11.7997 30.6602 11.7997C31.1064 11.7997 31.4888 11.8635 31.4888 12.2459C31.4888 12.5009 31.4251 12.5646 31.4251 12.5646H30.8514C29.704 12.5646 28.4929 13.0108 28.4929 14.5406C28.4929 15.7518 29.2578 16.0067 29.7678 16.0067C30.6602 16.0067 31.1064 15.433 31.1701 15.433L31.1064 15.943H32.3175L32.8274 12.3097C32.8274 10.7161 31.4251 10.6523 30.9789 10.6523ZM31.2976 13.5845C31.2976 13.7757 31.1701 14.8594 30.4052 14.8594C30.0227 14.8594 29.8953 14.5406 29.8953 14.3494C29.8953 14.0307 30.0865 13.5845 31.1064 13.5845C31.2339 13.5845 31.2339 13.5845 31.2976 13.5845Z" fill="white"/>
<path d="M33.8474 15.9434C34.2299 13.7762 34.2936 11.9914 35.2498 12.3101C35.3773 11.4814 35.5685 11.099 35.696 10.7803H35.441C34.8673 10.7803 34.3574 11.5452 34.3574 11.5452L34.4849 10.844H33.21L32.3813 15.9434H33.8474Z" fill="white"/>
</svg>
