<svg width="54" height="16" viewBox="0 0 54 16" fill="none" xmlns="http://www.w3.org/2000/svg">
<path d="M47.9999 0.25H37.7C38.3 3.65 41.6 6.85001 45.2 6.85001H53.4C53.5 6.55001 53.4999 6.05 53.4999 5.75C53.4999 2.75 50.9999 0.25 47.9999 0.25Z" fill="url(#paint0_linear_232_4297)"/>
<path d="M38.6 7.4502V15.7502H43.6V11.3502H48C50.4 11.3502 52.5 9.6502 53.2 7.4502H38.6Z" fill="#4FAD50"/>
<path d="M21 0.25V15.65H25.4C25.4 15.65 26.5 15.65 27.1 14.55C30.1 8.65 31 6.85001 31 6.85001H31.6V15.65H36.6V0.25H32.2C32.2 0.25 31.1 0.350006 30.5 1.35001C28 6.45001 26.6 9.05 26.6 9.05H26V0.25H21Z" fill="#4FAD50"/>
<path d="M0 15.7496V0.349609H5C5 0.349609 6.40001 0.349606 7.20001 2.54961C9.20001 8.34961 9.40002 9.14961 9.40002 9.14961C9.40002 9.14961 9.80001 7.74961 11.6 2.54961C12.4 0.349606 13.8 0.349609 13.8 0.349609H18.8V15.7496H13.8V7.44962H13.2L10.4 15.7496H8.20001L5.40002 7.44962H4.80002V15.7496H0Z" fill="#4FAD50"/>
<defs>
<linearGradient id="paint0_linear_232_4297" x1="37.6822" y1="3.5973" x2="53.4645" y2="3.5973" gradientUnits="userSpaceOnUse">
<stop stop-color="#27B1E6"/>
<stop offset="1" stop-color="#148ACA"/>
</linearGradient>
</defs>
</svg>
