<svg width="40" height="40" viewBox="0 0 40 40" fill="none" xmlns="http://www.w3.org/2000/svg">
<path d="M19.9999 33.3337L3.33337 16.892L9.69169 6.66699H30.3084L36.6667 16.892L19.9999 33.3337ZM21.6667 18.3337V16.3003C24.6665 16.4502 27.4665 17.0335 28.3334 17.7918C27.325 18.6753 23.7167 19.317 19.9999 19.317C16.2833 19.317 12.675 18.6753 11.6667 17.7918C12.525 17.0335 15.3334 16.4586 18.3334 16.292V18.3337H21.6667ZM11.6667 17.7837V19.0087C12.525 19.767 15.325 20.342 18.3334 20.5087V25.0003H21.6667V20.5003C24.6665 20.3503 27.4749 19.767 28.3334 19.0087V16.5669C27.4749 15.8086 24.6665 15.2252 21.6667 15.067V13.3336H26.6667V10.8337H13.3334V13.3336H18.3334V15.067C15.325 15.2252 12.525 15.8086 11.6667 16.5669V17.7837Z" fill="#009393"/>
</svg>
