<svg width="30" height="30" viewBox="0 0 30 30" fill="none" xmlns="http://www.w3.org/2000/svg">
<path d="M26.25 7.12369H2.8125V6.17051L23.4375 4.49291V6.17051H26.25V3.31097C26.25 1.21397 24.5794 -0.257735 22.5394 0.0377511L3.7125 2.77147C1.67063 3.06886 0 5.02669 0 7.12369V26.1873C0 27.1985 0.395088 28.1683 1.09835 28.8833C1.80161 29.5983 2.75544 30 3.75 30H26.25C27.2446 30 28.1984 29.5983 28.9016 28.8833C29.6049 28.1683 30 27.1985 30 26.1873V10.9364C30 9.92521 29.6049 8.95543 28.9016 8.24041C28.1984 7.52538 27.2446 7.12369 26.25 7.12369ZM23.4375 20.4796C23.068 20.4795 22.7022 20.4054 22.3609 20.2615C22.0196 20.1177 21.7095 19.9069 21.4484 19.6411C21.1872 19.3754 20.9801 19.06 20.8388 18.7129C20.6975 18.3658 20.6249 17.9938 20.625 17.6182C20.6251 17.2426 20.698 16.8706 20.8395 16.5236C20.981 16.1766 21.1884 15.8613 21.4497 15.5958C21.711 15.3303 22.0213 15.1197 22.3626 14.976C22.704 14.8324 23.0699 14.7585 23.4394 14.7587C24.1855 14.7589 24.9011 15.0605 25.4285 15.5971C25.9559 16.1338 26.2521 16.8615 26.2519 17.6201C26.2516 18.3788 25.955 19.1062 25.4272 19.6425C24.8994 20.1788 24.1837 20.4799 23.4375 20.4796Z" fill="white"/>
</svg>
