<svg width="45" height="45" viewBox="0 0 45 45" fill="none" xmlns="http://www.w3.org/2000/svg">
<g filter="url(#filter0_i_90_2552)">
<rect x="0.483521" y="0.859375" width="44" height="44" rx="22" fill="black"/>
<mask id="mask0_90_2552" style="mask-type:luminance" maskUnits="userSpaceOnUse" x="12" y="12" width="21" height="21">
<path d="M32.4835 12.8594H12.4835V32.8594H32.4835V12.8594Z" fill="white"/>
</mask>
<g mask="url(#mask0_90_2552)">
<path d="M15.8175 27.5117V28.6917C15.8175 30.5326 17.31 32.0251 19.1508 32.0251H22.4842" stroke="white" stroke-width="1.4" stroke-linecap="round" stroke-linejoin="round"/>
<path d="M15.8175 19.864V19.5257C15.8175 16.304 18.4292 13.6924 21.6508 13.6924H23.3175C26.5392 13.6924 29.1508 16.304 29.1508 19.5257V19.8774" stroke="white" stroke-width="1.4" stroke-linecap="round" stroke-linejoin="round"/>
<path d="M18.3175 19.6096C18.0483 19.5546 17.77 19.5254 17.4842 19.5254C15.1833 19.5254 13.3175 21.3912 13.3175 23.6921C13.3175 25.9929 15.1833 27.8587 17.4842 27.8587C17.77 27.8587 18.0483 27.8296 18.3175 27.7746V19.6096Z" stroke="white" stroke-width="1.4" stroke-linecap="round" stroke-linejoin="round"/>
<path d="M26.6515 27.7746C26.9206 27.8296 27.199 27.8587 27.4848 27.8587C29.7856 27.8587 31.6515 25.9929 31.6515 23.6921C31.6515 21.3912 29.7856 19.5254 27.4848 19.5254C27.199 19.5254 26.9206 19.5546 26.6515 19.6096V27.7746Z" stroke="white" stroke-width="1.4" stroke-linecap="round" stroke-linejoin="round"/>
</g>
</g>
<defs>
<filter id="filter0_i_90_2552" x="0.483521" y="0.859375" width="44" height="44" filterUnits="userSpaceOnUse" color-interpolation-filters="sRGB">
<feFlood flood-opacity="0" result="BackgroundImageFix"/>
<feBlend mode="normal" in="SourceGraphic" in2="BackgroundImageFix" result="shape"/>
<feColorMatrix in="SourceAlpha" type="matrix" values="0 0 0 0 0 0 0 0 0 0 0 0 0 0 0 0 0 0 127 0" result="hardAlpha"/>
<feOffset dy="-2"/>
<feComposite in2="hardAlpha" operator="arithmetic" k2="-1" k3="1"/>
<feColorMatrix type="matrix" values="0 0 0 0 0 0 0 0 0 0 0 0 0 0 0 0 0 0 0.12 0"/>
<feBlend mode="normal" in2="shape" result="effect1_innerShadow_90_2552"/>
</filter>
</defs>
</svg>
