<svg width="30" height="31" viewBox="0 0 30 31" fill="none" xmlns="http://www.w3.org/2000/svg">
<g clip-path="url(#clip0_90_2606)">
<g clip-path="url(#clip1_90_2606)">
<g clip-path="url(#clip2_90_2606)">
<path d="M29.5532 19.4879C27.5499 27.5237 19.4109 32.4142 11.3741 30.4103C3.34079 28.4069 -1.54964 20.2675 0.454599 12.2323C2.45708 4.19566 10.596 -0.69513 18.6303 1.30823C26.6664 3.31158 31.5568 11.4518 29.5532 19.4879Z" fill="black"/>
<path fill-rule="evenodd" clip-rule="evenodd" d="M21.6169 13.723C21.9154 11.7269 20.3957 10.6538 18.3176 9.93804L18.9917 7.23404L17.3457 6.82389L16.6894 9.45668C16.2567 9.34874 15.8123 9.24709 15.3707 9.14624L16.0317 6.49609L14.3867 6.08594L13.7122 8.78904C13.3541 8.70749 13.0024 8.62697 12.6611 8.54202L12.663 8.53356L10.3932 7.9667L9.95533 9.72477C9.95533 9.72477 11.1765 10.0047 11.1508 10.0219C11.8173 10.1883 11.9379 10.6295 11.9179 10.9792L11.1499 14.0597C11.1958 14.0714 11.2554 14.0882 11.321 14.1147L11.2732 14.1027C11.2326 14.0926 11.1904 14.0819 11.1471 14.0716L10.0706 18.3869C9.98922 18.5894 9.78242 18.8933 9.3164 18.7779C9.3329 18.8018 8.12008 18.4794 8.12008 18.4794L7.30286 20.3635L9.44486 20.8974C9.67933 20.9563 9.91095 21.0166 10.1403 21.0764C10.3007 21.1182 10.4602 21.1598 10.6184 21.2003L9.93727 23.9353L11.5814 24.3454L12.2559 21.6395C12.7051 21.7614 13.1409 21.8739 13.5677 21.9799L12.8954 24.6731L14.5415 25.0833L15.2225 22.3533C18.0294 22.8845 20.1398 22.6704 21.0281 20.1316C21.744 18.0877 20.9925 16.9087 19.5159 16.1399C20.5914 15.8919 21.4009 15.1843 21.6169 13.723ZM17.8562 18.9965C17.3895 20.8718 14.4541 20.0965 13.1111 19.7418C12.9903 19.7099 12.8824 19.6814 12.7903 19.6585L13.6942 16.0351C13.8064 16.0632 13.9435 16.0939 14.0989 16.1288C15.4881 16.4405 18.3343 17.0793 17.8562 18.9965ZM14.3775 14.4471C15.4972 14.7459 17.9398 15.3978 18.3652 13.6934C18.7996 11.9502 16.4259 11.4247 15.2666 11.168C15.1361 11.1391 15.0211 11.1136 14.9272 11.0902L14.1077 14.3765C14.1851 14.3957 14.2758 14.42 14.3775 14.4471Z" fill="white"/>
</g>
</g>
</g>
<defs>
<clipPath id="clip0_90_2606">
<rect width="30" height="30" fill="white" transform="translate(0 0.859375)"/>
</clipPath>
<clipPath id="clip1_90_2606">
<rect width="30" height="30" fill="white" transform="translate(0 0.859375)"/>
</clipPath>
<clipPath id="clip2_90_2606">
<rect width="30" height="30" fill="white" transform="translate(0 0.859375)"/>
</clipPath>
</defs>
</svg>
