<svg width="20" height="20" viewBox="0 0 20 20" fill="none" xmlns="http://www.w3.org/2000/svg">
<path d="M6.98405 2.08301C6.75393 2.08301 6.56738 2.26956 6.56738 2.49968V3.21076C6.56738 4.04554 6.85135 4.76166 7.37702 5.26852C7.89981 5.7726 8.62558 6.03518 9.44917 6.03631C9.41333 6.19588 9.3875 6.35589 9.37175 6.51487C8.88317 6.66134 8.46958 6.97462 8.19733 7.38829C7.96727 7.7378 7.82803 8.15331 7.82803 8.59418C7.82803 9.00968 7.94974 9.4036 8.15832 9.7391C8.16737 9.75368 8.17629 9.76835 8.18529 9.78318C8.2251 9.8486 8.26643 9.9166 8.32598 9.98635C8.70092 10.4255 9.23825 10.7171 9.84408 10.7563C9.94992 10.7632 10.0491 10.7631 10.1545 10.7563C10.7607 10.7171 11.2989 10.4251 11.6727 9.9861C11.6787 9.9791 11.6844 9.97201 11.6899 9.9646C11.7364 9.90243 11.7807 9.8421 11.8249 9.77701C11.829 9.7711 11.8328 9.76501 11.8366 9.75893C12.0447 9.41785 12.1705 9.01651 12.1705 8.59418C12.1705 8.16387 12.0492 7.7685 11.8307 7.42881L11.8288 7.42593L11.828 7.42465C11.5567 6.99191 11.1317 6.66587 10.6299 6.51536C10.7796 5.46921 11.5582 4.40358 12.8483 4.15341C13.1872 4.08771 13.4087 3.75973 13.3429 3.42086C13.2772 3.082 12.9492 2.86056 12.6104 2.92626C11.7262 3.09771 11.0131 3.52678 10.4821 4.08861C10.3569 3.6034 10.1165 3.18234 9.77267 2.85081C9.24875 2.34564 8.52092 2.08301 7.69512 2.08301H6.98405Z" fill="white"/>
<path d="M5.8866 6.42383C4.6884 6.42383 3.71582 7.39564 3.71582 8.59458C3.71582 9.79358 4.6884 10.7654 5.8866 10.7654L5.88792 10.7653L5.92662 10.7652C6.4617 10.76 7.02593 10.5211 7.409 10.1499C7.53859 10.0243 7.57689 9.83166 7.5052 9.66599C7.36245 9.33624 7.28209 8.97349 7.28209 8.59458C7.28209 8.21557 7.36251 7.85266 7.50538 7.52278C7.57689 7.35767 7.53906 7.16555 7.4103 7.03987C7.02068 6.65956 6.48068 6.42383 5.8866 6.42383Z" fill="white"/>
<path d="M14.1137 6.42383C13.5181 6.42383 12.9804 6.66105 12.5918 7.04611C12.4651 7.17167 12.4282 7.36198 12.4987 7.52583C12.6402 7.85453 12.7165 8.21453 12.7165 8.59458C12.7165 8.97358 12.6362 9.33574 12.4972 9.66474C12.4279 9.82849 12.4656 10.0178 12.5922 10.1426C12.9478 10.4933 13.4261 10.7223 13.958 10.7567C13.9716 10.7576 13.9851 10.7586 13.9987 10.7596C14.0365 10.7625 14.0744 10.7652 14.1125 10.7654H14.1137C15.3119 10.7654 16.2844 9.79358 16.2844 8.59458C16.2844 7.39564 15.3119 6.42383 14.1137 6.42383Z" fill="white"/>
<path d="M12.3423 10.6541C12.18 10.5142 11.9399 10.5137 11.7771 10.6529C11.4159 10.9616 10.9741 11.1796 10.4858 11.266C10.3634 11.2877 10.2562 11.3609 10.1913 11.4669C9.99134 11.7939 9.88184 12.1871 9.88184 12.5802C9.88184 12.9858 9.99392 13.4171 10.2157 13.7335L10.2211 13.7409C10.2252 13.7465 10.2291 13.7524 10.2328 13.7584L10.2365 13.7642C10.6148 14.3546 11.2786 14.7463 12.0389 14.7509L12.0533 14.7508C12.0574 14.7507 12.0615 14.7507 12.0657 14.7508H12.0804C13.282 14.7319 14.2334 13.7709 14.2334 12.5802C14.2334 12.1705 14.1208 11.7904 13.9208 11.4656C13.8558 11.3602 13.7489 11.2875 13.6271 11.2659C13.1403 11.1796 12.6999 10.9624 12.3423 10.6541Z" fill="white"/>
<path d="M8.22631 10.6563C8.06404 10.5181 7.82546 10.5183 7.66337 10.6566C7.30405 10.9634 6.86073 11.1792 6.3749 11.2657C6.2532 11.2874 6.14652 11.3599 6.08164 11.4651C5.88123 11.79 5.76855 12.1703 5.76855 12.5804C5.76855 13.696 6.6241 14.6189 7.72045 14.7413C7.79651 14.7486 7.87302 14.7511 7.94941 14.7511C8.5378 14.7511 9.07014 14.519 9.45764 14.1414C9.58647 14.0158 9.62447 13.8237 9.55314 13.6586C9.40297 13.311 9.33572 12.9287 9.33572 12.5804C9.33572 12.2985 9.3809 12.0111 9.47073 11.736C9.5068 11.6256 9.49714 11.5053 9.44372 11.4021C9.39039 11.2989 9.29789 11.2214 9.18697 11.1869C8.82972 11.0761 8.5044 10.893 8.22631 10.6563Z" fill="white"/>
<path d="M10.2835 14.6423C10.1207 14.502 9.87974 14.502 9.7169 14.6424C9.29407 15.0068 8.75574 15.2419 8.16312 15.2879C7.97657 15.3024 7.8203 15.4348 7.77544 15.6164C7.733 15.7882 7.70996 15.9688 7.70996 16.1538C7.70996 17.3512 8.68932 18.3245 9.8899 18.3245C11.0889 18.3245 12.0607 17.3528 12.0607 16.1538C12.0607 15.9549 12.0343 15.7628 11.9851 15.58C11.9403 15.4142 11.802 15.2904 11.6322 15.2642C11.1209 15.1854 10.6572 14.9644 10.2835 14.6423Z" fill="white"/>
</svg>
