<svg width="30" height="30" viewBox="0 0 30 30" fill="none" xmlns="http://www.w3.org/2000/svg">
<g clip-path="url(#clip0_90_2602)">
<mask id="mask0_90_2602" style="mask-type:luminance" maskUnits="userSpaceOnUse" x="0" y="0" width="30" height="30">
<path d="M30 0.541016H0V29.1125H30V0.541016Z" fill="white"/>
</mask>
<g mask="url(#mask0_90_2602)">
<mask id="mask1_90_2602" style="mask-type:luminance" maskUnits="userSpaceOnUse" x="1" y="0" width="29" height="30">
<path d="M1.04407 0.541016H29.6155V29.1125H1.04407V0.541016Z" fill="white"/>
</mask>
<g mask="url(#mask1_90_2602)">
<path d="M15.3298 29.1125C23.2196 29.1125 29.6155 22.7165 29.6155 14.8267C29.6155 6.93695 23.2196 0.541016 15.3298 0.541016C7.44003 0.541016 1.04407 6.93695 1.04407 14.8267C1.04407 22.7165 7.44003 29.1125 15.3298 29.1125Z" fill="black"/>
<path fill-rule="evenodd" clip-rule="evenodd" d="M17.2245 16.1181C16.6013 16.1514 15.9772 16.1648 15.3531 16.158C14.3831 16.158 13.696 16.1295 13.4531 16.1181C9.70742 15.9523 6.91026 15.3009 6.91026 14.5195C6.91026 13.7395 9.70742 13.0881 13.4531 12.9195V15.468C13.6988 15.4852 14.4002 15.5266 15.3703 15.5266C16.5331 15.5266 17.116 15.4781 17.2202 15.4695V12.9223C20.9589 13.0881 23.7488 13.7409 23.7488 14.5195C23.7488 15.2995 20.9589 15.9509 17.2202 16.1167H17.2231L17.2245 16.1181ZM17.2245 12.6581V10.3795H22.4402V6.90234H8.23742V10.3795H13.4517V12.6581C9.2131 12.8523 6.02454 13.6923 6.02454 14.6981C6.02454 15.7052 9.2131 16.5437 13.4531 16.7409V24.0452H17.2231V16.7366C21.4517 16.5423 24.636 15.7037 24.636 14.6981C24.636 13.6923 21.456 12.8537 17.2217 12.6581H17.2245Z" fill="white"/>
</g>
</g>
</g>
<defs>
<clipPath id="clip0_90_2602">
<rect width="30" height="28.6364" fill="white" transform="translate(0 0.541016)"/>
</clipPath>
</defs>
</svg>
