<svg width="30" height="31" viewBox="0 0 30 31" fill="none" xmlns="http://www.w3.org/2000/svg">
<g clip-path="url(#clip0_90_2603)">
<g clip-path="url(#clip1_90_2603)">
<g clip-path="url(#clip2_90_2603)">
<mask id="mask0_90_2603" style="mask-type:luminance" maskUnits="userSpaceOnUse" x="0" y="0" width="30" height="31">
<path d="M30 0.859375H0V30.8594H30V0.859375Z" fill="white"/>
</mask>
<g mask="url(#mask0_90_2603)">
<path d="M15 30.8594C23.2843 30.8594 30 24.1437 30 15.8594C30 7.57511 23.2843 0.859375 15 0.859375C6.71573 0.859375 0 7.57511 0 15.8594C0 24.1437 6.71573 30.8594 15 30.8594Z" fill="black"/>
<path fill-rule="evenodd" clip-rule="evenodd" d="M10.4085 10.2637L19.6629 10.2637C19.9903 10.2637 20.3175 10.3117 20.6594 10.4711C21.0692 10.6622 21.2866 10.9634 21.4388 11.186C21.4507 11.2034 21.4618 11.2212 21.472 11.2395C21.651 11.5582 21.7433 11.9022 21.7433 12.2724C21.7433 12.6241 21.6596 13.0072 21.472 13.3412C21.4702 13.3444 21.4684 13.3475 21.4666 13.3507L15.6198 23.3942C15.4909 23.6157 15.2536 23.7515 14.9973 23.7506C14.741 23.7498 14.5046 23.6122 14.3773 23.3898L8.63791 13.3677C8.63628 13.3651 8.63457 13.3623 8.63294 13.3595C8.50162 13.1431 8.29844 12.8084 8.26291 12.3764C8.23032 11.9792 8.31957 11.5812 8.51914 11.2361C8.71878 10.8909 9.01925 10.6151 9.38062 10.4462C9.76816 10.2651 10.1608 10.2637 10.4085 10.2637ZM14.2824 11.6985H10.4085C10.154 11.6985 10.0563 11.7142 9.98798 11.7461C9.89355 11.7902 9.81425 11.8627 9.76121 11.9544C9.70816 12.0461 9.68416 12.1524 9.69289 12.2589C9.69794 12.3199 9.72275 12.3896 9.86941 12.6316C9.87248 12.6366 9.87548 12.6417 9.87848 12.6469L14.2824 20.337V11.6985ZM15.7172 11.6985V20.375L20.2232 12.6347C20.274 12.5422 20.3085 12.4087 20.3085 12.2724C20.3085 12.1618 20.2856 12.0657 20.2343 11.9667C20.1805 11.8893 20.1478 11.8484 20.1203 11.8203C20.0968 11.7963 20.0788 11.7835 20.0532 11.7716C19.9466 11.7219 19.8376 11.6985 19.6629 11.6985H15.7172Z" fill="white"/>
</g>
</g>
</g>
</g>
<defs>
<clipPath id="clip0_90_2603">
<rect width="30" height="30" fill="white" transform="translate(0 0.859375)"/>
</clipPath>
<clipPath id="clip1_90_2603">
<rect width="30" height="30" fill="white" transform="translate(0 0.859375)"/>
</clipPath>
<clipPath id="clip2_90_2603">
<rect width="30" height="30" fill="white" transform="translate(0 0.859375)"/>
</clipPath>
</defs>
</svg>
