<svg width="40" height="40" viewBox="0 0 40 40" fill="none" xmlns="http://www.w3.org/2000/svg">
<path d="M40 20C40 8.9543 31.0457 0 20 0C8.9543 0 0 8.9543 0 20C0 31.0457 8.9543 40 20 40C31.0457 40 40 31.0457 40 20Z" fill="#D4AF37" fill-opacity="0.8"/>
<path d="M14.5899 19.8585C14.7161 20.0925 14.9562 20.2384 15.2173 20.2384H19.2827V28.2657C19.2827 28.671 19.604 29 20 29C20.3959 29 20.7172 28.671 20.7172 28.2657V20.2384H24.7827C25.0447 20.2384 25.2848 20.0925 25.4101 19.8585C25.5372 19.6245 25.5286 19.3386 25.39 19.1125L20.6073 11.3427C20.4753 11.1292 20.2467 11 20 11C19.7532 11 19.5247 11.1292 19.3927 11.3427L14.61 19.1125C14.5373 19.2319 14.5 19.368 14.5 19.5041C14.5 19.6255 14.5306 19.7479 14.5899 19.8585Z" fill="#2C2C2C"/>
</svg>
