<svg width="37" height="38" viewBox="0 0 37 38" fill="none" xmlns="http://www.w3.org/2000/svg">
<g clip-path="url(#clip0_90_2561)">
<g clip-path="url(#clip1_90_2561)">
<path d="M18.5 37.3594C28.4411 37.3594 36.5 29.3005 36.5 19.3594C36.5 9.41825 28.4411 1.35938 18.5 1.35938C8.55887 1.35938 0.5 9.41825 0.5 19.3594C0.5 29.3005 8.55887 37.3594 18.5 37.3594Z" fill="black"/>
<path d="M22.6171 11.8594C23.7346 11.8594 24.8096 12.3011 25.6005 13.0936C26.3921 13.8844 26.8346 14.9511 26.8346 16.0677V22.6511C26.8346 24.9761 24.943 26.8594 22.6171 26.8594H14.3846C12.0588 26.8594 10.168 24.9761 10.168 22.6511V16.0677C10.168 13.7427 12.0505 11.8594 14.3846 11.8594H22.6171ZM23.5596 16.1927C23.3846 16.1836 23.218 16.2427 23.0921 16.3594L19.3346 19.3594C18.8513 19.7602 18.1588 19.7602 17.668 19.3594L13.918 16.3594C13.6588 16.1677 13.3005 16.1927 13.0846 16.4177C12.8596 16.6427 12.8346 17.0011 13.0255 17.2511L13.1346 17.3594L16.9263 20.3177C17.393 20.6844 17.9588 20.8844 18.5513 20.8844C19.1421 20.8844 19.718 20.6844 20.1838 20.3177L23.943 17.3094L24.0096 17.2427C24.2088 17.0011 24.2088 16.6511 24.0005 16.4094C23.8846 16.2852 23.7255 16.2094 23.5596 16.1927Z" fill="#888888"/>
</g>
</g>
<defs>
<clipPath id="clip0_90_2561">
<rect width="36" height="37" fill="white" transform="translate(0.5 0.859375)"/>
</clipPath>
<clipPath id="clip1_90_2561">
<rect width="36" height="37" fill="white" transform="translate(0.5 0.859375)"/>
</clipPath>
</defs>
</svg>
