<svg width="20" height="20" viewBox="0 0 20 20" fill="none" xmlns="http://www.w3.org/2000/svg">
<path fill-rule="evenodd" clip-rule="evenodd" d="M12.9606 10.0496C13.0406 8.36961 11.6006 6.84961 9.76058 6.84961C8.00058 6.84961 6.56055 8.28961 6.56055 10.0496C6.56055 11.8096 8.00058 13.2496 9.76058 13.2496C11.5206 13.2496 12.9606 11.8096 12.9606 10.0496Z" fill="white"/>
<path fill-rule="evenodd" clip-rule="evenodd" d="M13.2 14.9298C12.4 14.4498 11.28 14.0498 9.76002 14.0498C8.24002 14.0498 7.12003 14.4498 6.32003 15.0098C5.52003 15.6498 5.12004 16.4498 5.04004 17.2498C5.04004 17.3298 5.04003 17.4898 5.12003 17.5698C5.20003 17.8098 5.52004 17.8098 5.76004 17.8098H13.76C14 17.8098 14.24 17.8098 14.4 17.5698C14.48 17.4898 14.48 17.3298 14.48 17.1698C14.4 16.3698 14 15.5698 13.2 14.9298Z" fill="white"/>
<path fill-rule="evenodd" clip-rule="evenodd" d="M9.75989 2.5293C5.43992 2.5293 1.91992 6.04929 1.91992 10.3693C1.91992 11.8093 2.23992 13.0093 2.79992 14.0493C2.95992 14.3693 3.35992 14.4493 3.59992 14.2893C3.91992 14.1293 3.99992 13.7293 3.83992 13.4893C3.35992 12.6893 3.11992 11.6493 3.11992 10.4493C3.11992 6.8493 6.07992 3.8893 9.67989 3.8893C13.2799 3.8893 16.2399 6.8493 16.2399 10.4493C16.2399 11.4893 15.9999 12.4493 15.5199 13.5693C15.3599 13.8893 15.5199 14.2093 15.8399 14.3693C15.9199 14.3693 15.9999 14.4493 16.0799 14.4493C16.3199 14.4493 16.5599 14.2893 16.6399 14.1293C17.1999 12.8493 17.5199 11.7293 17.5199 10.5293C17.5999 6.04929 14.0799 2.5293 9.75989 2.5293Z" fill="white"/>
</svg>
