<svg width="69" height="45" viewBox="0 0 69 45" fill="none" xmlns="http://www.w3.org/2000/svg">
<g clip-path="url(#clip0_90_2591)">
<g clip-path="url(#clip1_90_2591)">
<g clip-path="url(#clip2_90_2591)">
<path d="M60.5 0.867188H8.5C4.08172 0.867188 0.5 4.44891 0.5 8.86719V36.8672C0.5 41.2855 4.08172 44.8672 8.5 44.8672H60.5C64.9183 44.8672 68.5 41.2855 68.5 36.8672V8.86719C68.5 4.44891 64.9183 0.867188 60.5 0.867188Z" fill="#1434CB"/>
<path d="M34.0846 15.6962L30.9129 30.5877H27.0776L30.2498 15.6962H34.0846ZM50.2211 25.3117L52.2404 19.7194L53.4023 25.3117H50.2211ZM54.5004 30.5877H58.048L54.9523 15.6962H51.6777C50.9419 15.6962 50.3211 16.126 50.0447 16.7887L44.2906 30.5877H48.3183L49.1179 28.364H54.0386L54.5004 30.5877ZM44.4905 25.7255C44.5069 21.7951 39.079 21.5788 39.1165 19.8231C39.1278 19.2882 39.635 18.7207 40.743 18.575C41.2934 18.5029 42.8068 18.4478 44.5252 19.242L45.1982 16.0841C44.2751 15.7476 43.0874 15.4238 41.6102 15.4238C37.8195 15.4238 35.1512 17.4481 35.1287 20.3468C35.1048 22.4903 37.0334 23.6866 38.4868 24.3992C39.9809 25.1293 40.483 25.5968 40.4764 26.2496C40.4666 27.2493 39.2845 27.6895 38.1817 27.7069C36.2531 27.7376 35.1339 27.1842 34.2418 26.7667L33.5468 30.0296C34.4426 30.443 36.0968 30.8021 37.8129 30.8205C41.8415 30.8205 44.4774 28.8211 44.4905 25.7255ZM28.6041 15.6962L22.3901 30.5877H18.3352L15.2775 18.7032C15.0916 17.9713 14.9302 17.7036 14.3657 17.3949C13.4445 16.8929 11.9218 16.4211 10.582 16.1289L10.6735 15.6962H17.1996C18.0311 15.6962 18.7796 16.2524 18.9682 17.2143L20.5834 25.832L24.5745 15.6962H28.6041Z" fill="white"/>
</g>
</g>
</g>
<defs>
<clipPath id="clip0_90_2591">
<rect width="68" height="44" fill="white" transform="translate(0.5 0.859375)"/>
</clipPath>
<clipPath id="clip1_90_2591">
<rect width="68" height="44" fill="white" transform="translate(0.5 0.859375)"/>
</clipPath>
<clipPath id="clip2_90_2591">
<rect width="68" height="44" fill="white" transform="translate(0.5 0.859375)"/>
</clipPath>
</defs>
</svg>
