<svg width="69" height="45" viewBox="0 0 69 45" fill="none" xmlns="http://www.w3.org/2000/svg">
<g clip-path="url(#clip0_90_2595)">
<g clip-path="url(#clip1_90_2595)">
<path d="M60.5 0.867188H8.5C4.08172 0.867188 0.5 4.44891 0.5 8.86719V36.8672C0.5 41.2855 4.08172 44.8672 8.5 44.8672H60.5C64.9183 44.8672 68.5 41.2855 68.5 36.8672V8.86719C68.5 4.44891 64.9183 0.867188 60.5 0.867188Z" fill="#000008"/>
<path d="M39.3846 14.1602H29.3726V32.2311H39.3846V14.1602Z" fill="#FF5F00"/>
<path d="M30.0083 23.1937C30.0067 21.4534 30.3993 19.7354 31.1565 18.17C31.9137 16.6046 33.0155 15.2328 34.3786 14.1583C32.6906 12.8257 30.6634 11.9969 28.5286 11.7668C26.3939 11.5367 24.2378 11.9144 22.3067 12.8569C20.3756 13.7994 18.7474 15.2685 17.6084 17.0964C16.4693 18.9244 15.8652 21.0373 15.8652 23.1937C15.8652 25.3501 16.4693 27.4631 17.6084 29.291C18.7474 31.1189 20.3756 32.5881 22.3067 33.5305C24.2378 34.473 26.3939 34.8507 28.5286 34.6206C30.6634 34.3905 32.6906 33.5618 34.3786 32.2291C33.0155 31.1546 31.9137 29.7828 31.1565 28.2174C30.3994 26.652 30.0067 24.9341 30.0083 23.1937Z" fill="#EB001B"/>
<path d="M52.8914 23.1937C52.8915 25.3501 52.2875 27.463 51.1485 29.2909C50.0095 31.1189 48.3814 32.588 46.4503 33.5305C44.5193 34.473 42.3632 34.8507 40.2285 34.6206C38.0938 34.3905 36.0666 33.5618 34.3787 32.2291C35.7405 31.1536 36.8415 29.7815 37.5985 28.2163C38.3556 26.6512 38.7489 24.9338 38.7489 23.1937C38.7489 21.4536 38.3556 19.7363 37.5985 18.1711C36.8415 16.6059 35.7405 15.2339 34.3787 14.1583C36.0666 12.8257 38.0938 11.9969 40.2285 11.7668C42.3632 11.5367 44.5193 11.9144 46.4503 12.8569C48.3814 13.7994 50.0095 15.2686 51.1485 17.0965C52.2875 18.9244 52.8915 21.0373 52.8914 23.1937Z" fill="#F79E1B"/>
<path d="M51.7997 30.3152V29.9452H51.9482V29.8698H51.5699V29.9452H51.7185V30.3152H51.7997ZM52.534 30.3152V29.8691H52.4181L52.2847 30.1759L52.1513 29.8691H52.0353V30.3152H52.1172V29.9787L52.2423 30.2688H52.3272L52.4522 29.978V30.3152H52.534Z" fill="#F79E1B"/>
</g>
</g>
<defs>
<clipPath id="clip0_90_2595">
<rect width="68" height="44" fill="white" transform="translate(0.5 0.859375)"/>
</clipPath>
<clipPath id="clip1_90_2595">
<rect width="68" height="44" fill="white" transform="translate(0.5 0.859375)"/>
</clipPath>
</defs>
</svg>
