<svg width="61" height="65" viewBox="0 0 61 65" fill="none" xmlns="http://www.w3.org/2000/svg">
<path d="M59.5216 46.3188C60.7922 46.9809 61.2943 48.5542 60.533 49.768C57.3656 54.8184 52.8595 58.9156 47.494 61.5891C41.3521 64.6493 34.3992 65.687 27.6315 64.5535C20.8637 63.42 14.6284 60.1735 9.81882 55.279C5.00927 50.3845 1.87233 44.0934 0.857424 37.3068C-0.157475 30.5202 1.00174 23.5866 4.169 17.4992C7.33626 11.4118 12.349 6.48319 18.4891 3.41936C24.6292 0.355541 31.5814 -0.686214 38.3499 0.443357C44.2628 1.43015 49.7704 4.02986 54.2767 7.93267C55.3597 8.87066 55.3399 10.5221 54.3186 11.5269C53.2973 12.5316 51.662 12.5074 50.5649 11.5859C46.8376 8.45551 42.3278 6.36741 37.4958 5.56101C31.8079 4.61177 25.9655 5.48721 20.8057 8.06192C15.6458 10.6366 11.4333 14.7784 8.77171 19.894C6.11008 25.0095 5.13592 30.8363 5.9888 36.5394C6.84168 42.2425 9.47783 47.5294 13.5196 51.6425C17.5613 55.7556 22.8012 58.4838 28.4885 59.4364C34.1758 60.3889 40.0187 59.5169 45.1801 56.9452C49.5648 54.7605 53.2664 51.4444 55.9148 47.3605C56.6944 46.1584 58.251 45.6568 59.5216 46.3188Z" fill="url(#paint0_linear_76_14348)"/>
<defs>
<linearGradient id="paint0_linear_76_14348" x1="33" y1="65" x2="33" y2="4.78815e-06" gradientUnits="userSpaceOnUse">
<stop stop-color="#FAF7F7"/>
<stop offset="1" stop-color="#FED174"/>
</linearGradient>
</defs>
</svg>
