<svg width="48" height="44" viewBox="0 0 48 44" fill="none" xmlns="http://www.w3.org/2000/svg">
<path d="M0 22C0 9.84974 9.84974 0 22 0H26C38.1503 0 48 9.84974 48 22C48 34.1503 38.1503 44 26 44H22C9.84974 44 0 34.1503 0 22Z" fill="#282B30"/>
<path d="M11.0198 19.9081L36.4066 10.1198C37.5849 9.69412 38.614 10.4072 38.2322 12.1889L38.2344 12.1867L33.9118 32.551C33.5915 33.9948 32.7335 34.3459 31.5333 33.6657L24.9507 28.8143L21.7757 31.873C21.4247 32.2241 21.1285 32.5203 20.4483 32.5203L20.9156 25.8214L33.1153 14.8C33.6463 14.3326 32.9968 14.0693 32.2969 14.5345L17.2206 24.0266L10.7214 21.9992C9.31053 21.5515 9.27981 20.5883 11.0198 19.9081Z" fill="white"/>
</svg>
