<svg width="22" height="29" viewBox="0 0 22 29" fill="none" xmlns="http://www.w3.org/2000/svg">
<path d="M20.8309 12.6414L15.8182 11.2248C15.409 11.1091 15.1769 10.6788 15.3066 10.2762L17.6969 2.85589C18.0564 2.38752 18.045 1.716 17.6369 1.25654C17.173 0.734701 16.3727 0.684286 15.8491 1.14447L0.920257 14.2742C0.396859 14.7345 0.34864 15.5311 0.812487 16.0533C0.977017 16.2391 1.19287 16.3725 1.43296 16.4367C1.47667 16.4485 1.52103 16.4568 1.56557 16.4639C1.60787 16.4802 1.65119 16.4947 1.69601 16.5067L5.45014 17.5127C5.90603 17.6348 6.13813 18.14 5.93224 18.5619L2.09527 26.4264C1.67344 26.868 1.6252 27.5618 2.01132 28.0613C2.18075 28.2812 2.41832 28.4394 2.68705 28.5112C3.05488 28.6097 3.4627 28.5429 3.78747 28.2944L21.1921 14.9818C21.3525 14.8591 21.4808 14.6997 21.5659 14.517C21.6259 14.4199 21.6745 14.3137 21.707 14.1985C21.8965 13.5288 21.5042 12.8317 20.8309 12.6414Z" fill="url(#paint0_linear_85_15434)"/>
<defs>
<linearGradient id="paint0_linear_85_15434" x1="14.9346" y1="0.315499" x2="14.9346" y2="21.7655" gradientUnits="userSpaceOnUse">
<stop stop-color="#F7C243"/>
<stop offset="1" stop-color="#FD902B"/>
</linearGradient>
</defs>
</svg>
