<svg width="24" height="23" viewBox="0 0 24 23" fill="none" xmlns="http://www.w3.org/2000/svg">
<path d="M23.2183 3.91599L23.02 4.06604V4.31472V12.7685V12.8959L23.081 13.0077C23.1948 13.2166 23.26 13.4427 23.26 13.68C23.26 14.2741 22.8944 14.7823 22.3721 14.9941L22.1109 15.1H21.62V12.26H22.08H22.58V11.76V4.31472V4.06604L22.3817 3.91599C22.2078 3.78442 22.1 3.58375 22.1 3.36C22.1 2.97326 22.4133 2.66 22.8 2.66C23.1867 2.66 23.5 2.97326 23.5 3.36C23.5 3.58412 23.3923 3.78435 23.2183 3.91599ZM20.62 12.26V15.1H18.26V12.26H20.62ZM12.4224 2.18H17.74V2.64V3.14H18.24H20.62V4.06H20.16H14.4H13.94H13.9H13.44H7.68H7.22H7.18H6.72H0.96H0.5V3.14H2.4H2.9V2.64V2.18H8.2176H8.61652L8.70511 1.79104C8.87369 1.05095 9.53244 0.5 10.32 0.5C11.1076 0.5 11.7663 1.05095 11.9349 1.79104L12.0235 2.18H12.4224ZM14.4 11.78H17.26V15.6V16.06H2.4H1.9V16.56V19.92V20.42H2.4H18.24H18.74V19.92V16.56V16.1H20.62V21.82H0.5V11.78H0.96H6.72H7.18H7.22H7.68H13.44H13.9H13.94H14.4ZM18.6822 6.1932C18.7776 6.1773 18.8659 6.15788 18.9458 6.13723C18.3838 6.96658 18.0889 7.91645 17.9314 8.67914C17.8381 9.13099 17.7904 9.52992 17.766 9.82H16.412C16.5455 9.38896 16.8327 8.97605 17.1629 8.61976C17.383 8.38229 17.6046 8.18896 17.7717 8.05497C17.8548 7.98828 17.9234 7.93709 17.9702 7.90327C17.9935 7.88638 18.0113 7.87389 18.0227 7.86601L18.0348 7.85771L18.0365 7.85657L18.0367 7.85643C18.0367 7.85643 18.0367 7.85644 18.0362 7.85569L17.6929 6.94452C17.4262 6.98065 17.2202 6.98086 17.0183 6.9715C16.9611 6.96884 16.8981 6.9649 16.8309 6.9607C16.6765 6.95104 16.5001 6.94 16.32 6.94C15.9925 6.94 15.7136 7.02331 15.4876 7.17397C15.4494 7.19944 15.4136 7.22626 15.38 7.25412V6.54902L15.5836 6.44721C16.0062 6.23589 16.4349 6.12774 16.7622 6.0732C16.9246 6.04612 17.0589 6.03278 17.1506 6.02623C17.1605 6.02552 17.1699 6.0249 17.1788 6.02434C17.7394 6.26792 18.2838 6.2596 18.6822 6.1932ZM4.59484 7.85771L4.59654 7.85657L4.59675 7.85643C4.59674 7.85643 4.59672 7.85644 4.5962 7.85569L4.2529 6.94452C3.98615 6.98065 3.78025 6.98086 3.57834 6.9715C3.52105 6.96884 3.45807 6.9649 3.39091 6.9607C3.23652 6.95104 3.06007 6.94 2.88 6.94C2.55251 6.94 2.27365 7.02331 2.04765 7.17397C2.00945 7.19944 1.97361 7.22626 1.94 7.25412V6.54902L2.14361 6.44721C2.56625 6.23589 2.99495 6.12774 3.3222 6.0732C3.48464 6.04612 3.61892 6.03278 3.71062 6.02623C3.72052 6.02552 3.7299 6.0249 3.73876 6.02434C4.29945 6.26792 4.84378 6.2596 5.2422 6.1932C5.3376 6.1773 5.42595 6.15788 5.50582 6.13723C4.94382 6.96658 4.64894 7.91645 4.49142 8.67914C4.39809 9.13099 4.35041 9.52992 4.32597 9.82H2.97196C3.10551 9.38896 3.39265 8.97605 3.72287 8.61976C3.94298 8.38229 4.16464 8.18896 4.33167 8.05497C4.4148 7.98828 4.4834 7.93709 4.53016 7.90327C4.55352 7.88638 4.57135 7.87388 4.58274 7.86601L4.59484 7.85771ZM11.3148 7.85771L11.3165 7.85657L11.3167 7.85643C11.3167 7.85643 11.3167 7.85644 11.3162 7.85569L10.9729 6.94452C10.7062 6.98065 10.5002 6.98086 10.2983 6.9715C10.2411 6.96884 10.1781 6.9649 10.1109 6.9607C9.95652 6.95104 9.78007 6.94 9.6 6.94C9.27251 6.94 8.99365 7.02331 8.76765 7.17397C8.72945 7.19944 8.69361 7.22626 8.66 7.25412V6.54902L8.86361 6.44721C9.28625 6.23589 9.71494 6.12774 10.0422 6.0732C10.2046 6.04612 10.3389 6.03278 10.4306 6.02623C10.4405 6.02552 10.4499 6.0249 10.4588 6.02434C11.0194 6.26792 11.5638 6.2596 11.9622 6.1932C12.0576 6.1773 12.1459 6.15788 12.2258 6.13723C11.6638 6.96658 11.3689 7.91645 11.2114 8.67914C11.1181 9.13099 11.0704 9.52992 11.046 9.82H9.69196C9.82551 9.38896 10.1126 8.97605 10.4429 8.61976C10.663 8.38229 10.8846 8.18896 11.0517 8.05497C11.1348 7.98828 11.2034 7.93709 11.2502 7.90327C11.2735 7.88638 11.2913 7.87389 11.3027 7.86601L11.3148 7.85771ZM3.84118 6.02C3.84144 6.02 3.84147 6.02 3.84127 6.02L3.84118 6.02Z" stroke="#BDBDBD"/>
</svg>
