<svg width="19" height="24" viewBox="0 0 19 24" fill="none" xmlns="http://www.w3.org/2000/svg">
<path d="M8.7 11.2933V11.7425L9.14659 11.7905L10.6822 11.9555L17.1937 14.8421C17.1943 14.8424 17.1949 14.8427 17.1955 14.8429C17.7108 15.0771 18.0333 15.5974 18.0333 16.1867V21.9902C17.9989 22.8149 17.3482 23.4655 16.5236 23.5H7.86667C7.49309 23.5 7.14782 23.3536 6.89973 23.0864L6.88035 23.0656L6.85873 23.047L0.727266 17.7915L1.34717 17.1465L1.35239 17.141L1.35743 17.1355C1.50868 16.9683 1.73003 16.8733 1.97333 16.8733H2.14081L6.29661 19.1071L7.03333 19.5031V18.6667V5.33333C7.03333 5.11232 7.12113 4.90036 7.27741 4.74408C7.43369 4.5878 7.64565 4.5 7.86667 4.5C8.08768 4.5 8.29964 4.5878 8.45592 4.74408C8.6122 4.90036 8.7 5.11232 8.7 5.33333V11.2933ZM4.7 5.33333V8.95209C3.68055 8.06985 3.03333 6.7758 3.03333 5.33333C3.03333 4.05145 3.54256 2.82208 4.44898 1.91565C5.35541 1.00922 6.58479 0.5 7.86667 0.5C9.14855 0.5 10.3779 1.00922 11.2843 1.91565C12.1908 2.82208 12.7 4.05145 12.7 5.33333C12.7 6.7758 12.0528 8.06985 11.0333 8.95209V5.33333C11.0333 4.49348 10.6997 3.68803 10.1058 3.09416C9.51197 2.5003 8.70652 2.16667 7.86667 2.16667C7.02681 2.16667 6.22136 2.5003 5.62749 3.09416C5.03363 3.68803 4.7 4.49348 4.7 5.33333Z" stroke="#BDBDBD"/>
</svg>
