<svg width="24" height="24" viewBox="0 0 24 24" fill="none" xmlns="http://www.w3.org/2000/svg">
<path d="M20.1019 13.1089L20.0642 13.3918L20.2885 13.5681L22.801 15.5431L22.8071 15.5479L22.8134 15.5525C22.8315 15.5659 22.8374 15.5787 22.8398 15.5907C22.8423 15.6034 22.8433 15.6304 22.8232 15.6691L20.4272 19.8122L20.427 19.8121L20.4211 19.8231C20.4058 19.8511 20.3874 19.8635 20.37 19.8698C20.3513 19.8764 20.3262 19.8783 20.2984 19.8693L17.3214 18.6735L17.0552 18.5666L16.8286 18.7424C16.2494 19.1916 15.6137 19.5678 14.9216 19.8494L14.6553 19.9577L14.6149 20.2423L14.1649 23.4173L14.1649 23.4173L14.1639 23.4255C14.1607 23.4511 14.1501 23.4672 14.1374 23.4782C14.1241 23.4898 14.1029 23.5 14.0725 23.5H9.2725C9.24482 23.5 9.22611 23.4916 9.21069 23.4782C9.19505 23.4647 9.17564 23.4391 9.16467 23.397L8.71755 20.2423L8.67721 19.9577L8.4109 19.8494C7.72128 19.5688 7.09673 19.1929 6.50004 18.7394L6.27427 18.5678L6.01114 18.6735L3.04596 19.8646C3.00987 19.8735 2.97849 19.8705 2.95754 19.8633C2.93867 19.8568 2.92411 19.8463 2.91145 19.8231L2.91159 19.823L2.90533 19.8122L0.509391 15.6692C0.50209 15.6544 0.496524 15.6288 0.502486 15.598C0.508704 15.5658 0.522989 15.5497 0.52947 15.5447L0.529605 15.5446L3.06711 13.5696L3.30217 13.3866L3.2532 13.0928C3.19643 12.7522 3.1725 12.3684 3.1725 12C3.1725 11.6515 3.21784 11.2694 3.2782 10.9072L3.32717 10.6134L3.09211 10.4304L0.554605 8.45543L0.544609 8.44765L0.534232 8.44038C0.525581 8.43433 0.521778 8.42937 0.519847 8.42632C0.51772 8.42296 0.515555 8.4182 0.514253 8.41112C0.511604 8.39672 0.512413 8.36938 0.5314 8.33596C0.531474 8.33583 0.531548 8.3357 0.531622 8.33557L2.9184 4.18683L2.91851 4.1869L2.92395 4.17693C2.93923 4.14891 2.95756 4.13649 2.97504 4.13025C2.99372 4.12358 3.01878 4.12175 3.04663 4.13069L6.02364 5.32647L6.28582 5.43178L6.5113 5.26152C7.09761 4.8188 7.73495 4.43069 8.4234 4.15065L8.68971 4.04232L8.73005 3.75766L9.17894 0.59053C9.18622 0.552013 9.20253 0.530339 9.21506 0.519333C9.22707 0.50878 9.24416 0.5 9.2725 0.5H14.0725C14.1023 0.5 14.125 0.509896 14.1418 0.524167C14.1579 0.53789 14.1725 0.559253 14.1786 0.590778L14.6274 3.75766L14.6678 4.04232L14.9341 4.15065C15.6237 4.43117 16.2483 4.8071 16.845 5.26058L17.0707 5.43217L17.3339 5.32647L20.299 4.13544C20.3351 4.12645 20.3665 4.12946 20.3875 4.13669C20.4063 4.14321 20.4209 4.15371 20.4336 4.17693L20.4334 4.177L20.4397 4.18781L22.8356 8.3308C22.8429 8.34558 22.8485 8.37117 22.8425 8.40204C22.8363 8.43422 22.822 8.45028 22.8155 8.45532L22.8154 8.45543L20.2779 10.4304L20.0428 10.6134L20.0918 10.9072C20.1486 11.2481 20.1725 11.6195 20.1725 12C20.1725 12.392 20.1488 12.7574 20.1019 13.1089ZM6.6725 12C6.6725 14.7511 8.92136 17 11.6725 17C14.4236 17 16.6725 14.7511 16.6725 12C16.6725 9.24886 14.4236 7 11.6725 7C8.92136 7 6.6725 9.24886 6.6725 12Z" stroke="#BDBDBD"/>
</svg>
