<svg width="20" height="24" viewBox="0 0 20 24" fill="none" xmlns="http://www.w3.org/2000/svg">
<path d="M3.22214 21.4856L2.90916 21.8755L3.22213 21.4856C1.53433 20.1309 0.5 18.129 0.5 15.6C0.5 13.9929 1.72339 12.6708 3.28935 12.5153L3.61184 12.5H15.6C17.3121 12.5 18.7 13.8879 18.7 15.6C18.7 18.129 17.6657 20.1309 15.9779 21.4856L16.2908 21.8755L15.9779 21.4856C14.3068 22.8269 12.0409 23.5 9.6 23.5C7.15905 23.5 4.89321 22.8269 3.22214 21.4856ZM9.6 0.5C11.9748 0.5 13.9 2.42517 13.9 4.8C13.9 7.17483 11.9748 9.1 9.6 9.1C7.22517 9.1 5.3 7.17483 5.3 4.8C5.3 2.42517 7.22517 0.5 9.6 0.5Z" stroke="#BDBDBD"/>
</svg>
