<svg width="19" height="24" viewBox="0 0 19 24" fill="none" xmlns="http://www.w3.org/2000/svg">
<path d="M6.53333 5.33333C6.53333 4.97971 6.67381 4.64057 6.92386 4.39052C7.17391 4.14048 7.51304 4 7.86667 4C8.22029 4 8.55943 4.14048 8.80947 4.39052C9.05952 4.64057 9.2 4.97971 9.2 5.33333V11.2933L10.8133 11.4667L17.4 14.3867C18.1067 14.7067 18.5333 15.4133 18.5333 16.1867V22C18.4933 23.0933 17.6267 23.96 16.5333 24H7.86667C7.36 24 6.88 23.8 6.53333 23.4267L0 17.8267L0.986667 16.8C1.24 16.52 1.6 16.3733 1.97333 16.3733H2.26667L6.53333 18.6667V5.33333ZM5.2 9.92V5.33333C5.2 4.62609 5.48095 3.94781 5.98105 3.44772C6.48115 2.94762 7.15942 2.66667 7.86667 2.66667C8.57391 2.66667 9.25219 2.94762 9.75228 3.44772C10.2524 3.94781 10.5333 4.62609 10.5333 5.33333V9.92C12.12 9 13.2 7.29333 13.2 5.33333C13.2 3.91885 12.6381 2.56229 11.6379 1.5621C10.6377 0.561903 9.28115 0 7.86667 0C6.45218 0 5.09562 0.561903 4.09543 1.5621C3.09524 2.56229 2.53333 3.91885 2.53333 5.33333C2.53333 7.29333 3.61333 9 5.2 9.92Z" fill="#BDBDBD"/>
</svg>
