<svg width="24" height="23" viewBox="0 0 24 23" fill="none" xmlns="http://www.w3.org/2000/svg">
<path d="M23.52 4.31472C23.8099 4.09536 24 3.75168 24 3.36C24 2.69712 23.4629 2.16 22.8 2.16C22.1371 2.16 21.6 2.69712 21.6 3.36C21.6 3.7512 21.7901 4.09536 22.08 4.31472V11.76H17.76V15.6H22.56V15.4574C23.2632 15.1723 23.76 14.4859 23.76 13.68C23.76 13.3483 23.6683 13.0406 23.52 12.7685V4.31472ZM2.88 7.44C3.37008 7.44 3.7104 7.52256 4.32 7.44C4.32 7.44 2.39232 8.71968 2.39232 10.32H4.8C4.8 10.32 4.80288 7.65408 6.24 6L5.76 5.52C5.76 5.52 4.8 6 3.84 5.52C3.84 5.52 2.88 5.52 1.92 6V5.52H1.44V8.4H1.92C1.92 8.4 1.92 7.44 2.88 7.44ZM9.6 7.44C10.0901 7.44 10.4304 7.52256 11.04 7.44C11.04 7.44 9.11232 8.71968 9.11232 10.32H11.52C11.52 10.32 11.5229 7.65408 12.96 6L12.48 5.52C12.48 5.52 11.52 6 10.56 5.52C10.56 5.52 9.6 5.52 8.64 6V5.52H8.16V8.4H8.64C8.64 8.4 8.64 7.44 9.6 7.44ZM18.24 2.64V1.68H12.4224C12.2035 0.71904 11.3477 0 10.32 0C9.29232 0 8.43648 0.71904 8.2176 1.68H2.4V2.64H0V22.32H21.12V2.64H18.24ZM7.68 4.56H13.44V11.28H7.68V4.56ZM0.96 4.56H6.72V11.28H0.96V4.56ZM18.24 19.92H2.4V16.56H18.24V19.92ZM20.16 11.28H14.4V4.56H20.16V11.28ZM16.32 7.44C16.8101 7.44 17.1504 7.52256 17.76 7.44C17.76 7.44 15.8323 8.71968 15.8323 10.32H18.24C18.24 10.32 18.2429 7.65408 19.68 6L19.2 5.52C19.2 5.52 18.24 6 17.28 5.52C17.28 5.52 16.32 5.52 15.36 6V5.52H14.88V8.4H15.36C15.36 8.4 15.36 7.44 16.32 7.44Z" fill="#BDBDBD"/>
</svg>
