<svg width="24" height="24" viewBox="0 0 24 24" fill="none" xmlns="http://www.w3.org/2000/svg">
<path d="M1.75 6.1052V5.6052V4.8552V4.39361L2.21013 4.3568L18.7101 3.0368L19.25 2.99361V3.5352V4.3552H20.5V2.6052C20.5 1.25968 19.4332 0.335157 18.1022 0.524682L1.75 6.1052ZM1.75 6.1052H2.25H21C21.663 6.1052 22.2989 6.3686 22.7678 6.83744C23.2366 7.30628 23.5 7.94216 23.5 8.6052V20.6052C23.5 21.2682 23.2366 21.9041 22.7678 22.373C22.2989 22.8418 21.663 23.1052 21 23.1052H3C2.33696 23.1052 1.70107 22.8418 1.23223 22.373C0.763392 21.9041 0.5 21.2682 0.5 20.6052V5.6052C0.5 4.20424 1.65332 2.87454 3.04069 2.67568C3.04076 2.67567 3.04083 2.67566 3.0409 2.67565L18.102 0.524706L1.75 6.1052ZM17.6972 16.4045C18.0309 16.5428 18.3886 16.6141 18.7498 16.6142C19.4794 16.6144 20.1791 16.3249 20.6952 15.8092C21.2112 15.2935 21.5013 14.5939 21.5015 13.8644C21.5017 13.1348 21.2122 12.4351 20.6965 11.919C20.1808 11.403 19.4812 11.1129 18.7517 11.1127C18.3904 11.1126 18.0327 11.1836 17.6989 11.3217C17.3651 11.4599 17.0618 11.6624 16.8063 11.9177C16.5508 12.1731 16.3481 12.4763 16.2097 12.8099C16.0714 13.1436 16.0001 13.5013 16 13.8625C15.9999 14.2238 16.0709 14.5815 16.209 14.9153C16.3472 15.2491 16.5497 15.5524 16.805 15.8079C17.0604 16.0634 17.3635 16.2661 17.6972 16.4045Z" stroke="#BDBDBD"/>
</svg>
