<svg width="18" height="19" viewBox="0 0 18 19" fill="none" xmlns="http://www.w3.org/2000/svg">
<path d="M9 14.3462C8.80189 14.3436 8.61263 14.2638 8.47253 14.1237C8.33244 13.9836 8.25259 13.7943 8.25 13.5962V8.59619C8.25 8.39728 8.32902 8.20651 8.46967 8.06586C8.61032 7.92521 8.80109 7.84619 9 7.84619C9.19891 7.84619 9.38968 7.92521 9.53033 8.06586C9.67098 8.20651 9.75 8.39728 9.75 8.59619V13.5962C9.74741 13.7943 9.66756 13.9836 9.52747 14.1237C9.38737 14.2638 9.19811 14.3436 9 14.3462Z" fill="#95908D"/>
<path d="M9 6.84619C8.80189 6.8436 8.61263 6.76375 8.47253 6.62366C8.33244 6.48356 8.25259 6.2943 8.25 6.09619V5.59619C8.25 5.39728 8.32902 5.20651 8.46967 5.06586C8.61032 4.92521 8.80109 4.84619 9 4.84619C9.19891 4.84619 9.38968 4.92521 9.53033 5.06586C9.67098 5.20651 9.75 5.39728 9.75 5.59619V6.09619C9.74741 6.2943 9.66756 6.48356 9.52747 6.62366C9.38737 6.76375 9.19811 6.8436 9 6.84619Z" fill="#95908D"/>
<path d="M9 18.5962C7.21997 18.5962 5.47991 18.0684 3.99987 17.0794C2.51983 16.0905 1.36628 14.6849 0.685088 13.0403C0.00389951 11.3958 -0.17433 9.58621 0.172937 7.84038C0.520203 6.09455 1.37737 4.49091 2.63604 3.23223C3.89472 1.97356 5.49836 1.11639 7.24419 0.769128C8.99002 0.421861 10.7996 0.600091 12.4442 1.28128C14.0887 1.96247 15.4943 3.11602 16.4832 4.59606C17.4722 6.07611 18 7.81616 18 9.5962C18 11.9831 17.0518 14.2723 15.364 15.9602C13.6761 17.648 11.387 18.5962 9 18.5962ZM9 2.0962C7.51664 2.0962 6.0666 2.53606 4.83323 3.36017C3.59986 4.18428 2.63856 5.35562 2.07091 6.72607C1.50325 8.09652 1.35473 9.60452 1.64411 11.0594C1.9335 12.5142 2.64781 13.8506 3.6967 14.8995C4.7456 15.9484 6.08197 16.6627 7.53683 16.9521C8.99168 17.2415 10.4997 17.0929 11.8701 16.5253C13.2406 15.9576 14.4119 14.9963 15.236 13.763C16.0601 12.5296 16.5 11.0796 16.5 9.5962C16.5 7.60707 15.7098 5.69942 14.3033 4.29289C12.8968 2.88637 10.9891 2.0962 9 2.0962Z" fill="#95908D"/>
</svg>
