<svg width="19" height="21" viewBox="0 0 19 21" fill="none" xmlns="http://www.w3.org/2000/svg">
<path d="M14.166 11.907L13.5 11.311V6.125C13.5 5.06413 13.0786 4.04672 12.3284 3.29657C11.5783 2.54643 10.5609 2.125 9.5 2.125C8.43914 2.125 7.42172 2.54643 6.67158 3.29657C5.92143 4.04672 5.50001 5.06413 5.50001 6.125V11.311L4.83401 11.907C3.86755 12.7695 3.15987 13.8836 2.79001 15.125H16.21C15.8401 13.8836 15.1325 12.7695 14.166 11.907ZM12.5 17.125C12.5 17.9206 12.1839 18.6837 11.6213 19.2463C11.0587 19.8089 10.2957 20.125 9.5 20.125C8.70436 20.125 7.94129 19.8089 7.37868 19.2463C6.81608 18.6837 6.50001 17.9206 6.50001 17.125H0.500005C0.498646 15.8585 0.765243 14.6061 1.28229 13.45C1.79933 12.2939 2.55512 11.2603 3.50001 10.417V6.125C3.50001 4.5337 4.13215 3.00758 5.25736 1.88236C6.38258 0.757141 7.90871 0.125 9.5 0.125C11.0913 0.125 12.6174 0.757141 13.7426 1.88236C14.8679 3.00758 15.5 4.5337 15.5 6.125V10.417C16.4449 11.2603 17.2007 12.2939 17.7177 13.45C18.2348 14.6061 18.5014 15.8585 18.5 17.125H12.5ZM9.5 18.125C9.76522 18.125 10.0196 18.0196 10.2071 17.8321C10.3946 17.6446 10.5 17.3902 10.5 17.125H8.5C8.5 17.3902 8.60536 17.6446 8.7929 17.8321C8.98043 18.0196 9.23479 18.125 9.5 18.125Z" fill="white"/>
</svg>
