<svg width="21" height="21" viewBox="0 0 21 21" fill="none" xmlns="http://www.w3.org/2000/svg">
<path d="M13.5 5.25C14.6046 5.25 15.5 6.14543 15.5 7.25M19.5 7.25C19.5 10.5637 16.8137 13.25 13.5 13.25C12.8938 13.25 12.3087 13.1601 11.7571 12.9929L9.5 15.25H7.5V17.25H5.5V19.25H2.5C1.94772 19.25 1.5 18.8023 1.5 18.25V15.6642C1.5 15.399 1.60536 15.1446 1.79289 14.9571L7.75707 8.99293C7.58989 8.44135 7.5 7.85617 7.5 7.25C7.5 3.93629 10.1863 1.25 13.5 1.25C16.8137 1.25 19.5 3.93629 19.5 7.25Z" stroke="white" stroke-width="2" stroke-linecap="round" stroke-linejoin="round"/>
</svg>
