<svg width="42" height="44" viewBox="0 0 42 44" fill="none" xmlns="http://www.w3.org/2000/svg">
<g filter="url(#filter0_d_133_2801)">
<path d="M32.8282 21.56C32.89 21.06 32.9312 20.54 32.9312 20C32.9312 19.46 32.89 18.94 32.8077 18.44L36.286 15.8C36.5948 15.56 36.6771 15.12 36.4918 14.78L33.1987 9.24C32.9929 8.88 32.5607 8.76 32.1902 8.88L28.0944 10.48C27.2299 9.84 26.3243 9.32 25.3158 8.92L24.6984 4.68C24.6366 4.28 24.2867 4 23.8751 4H17.2888C16.8772 4 16.5479 4.28 16.4861 4.68L15.8687 8.92C14.8602 9.32 13.934 9.86 13.0901 10.48L8.99428 8.88C8.6238 8.74 8.19158 8.88 7.98576 9.24L4.69264 14.78C4.48682 15.14 4.56915 15.56 4.89846 15.8L8.37682 18.44C8.29449 18.94 8.23275 19.48 8.23275 20C8.23275 20.52 8.27391 21.06 8.35624 21.56L4.87788 24.2C4.56915 24.44 4.48682 24.88 4.67206 25.22L7.96518 30.76C8.171 31.12 8.60322 31.24 8.9737 31.12L13.0695 29.52C13.934 30.16 14.8396 30.68 15.8481 31.08L16.4656 35.32C16.5479 35.72 16.8772 36 17.2888 36H23.8751C24.2867 36 24.6366 35.72 24.6778 35.32L25.2952 31.08C26.3038 30.68 27.2299 30.14 28.0738 29.52L32.1696 31.12C32.5401 31.26 32.9723 31.12 33.1781 30.76L36.4713 25.22C36.6771 24.86 36.5948 24.44 36.2654 24.2L32.8282 21.56ZM20.582 26C17.1859 26 14.4073 23.3 14.4073 20C14.4073 16.7 17.1859 14 20.582 14C23.978 14 26.7566 16.7 26.7566 20C26.7566 23.3 23.978 26 20.582 26Z" fill="white"/>
</g>
<defs>
<filter id="filter0_d_133_2801" x="0.574097" y="4" width="40.0157" height="40" filterUnits="userSpaceOnUse" color-interpolation-filters="sRGB">
<feFlood flood-opacity="0" result="BackgroundImageFix"/>
<feColorMatrix in="SourceAlpha" type="matrix" values="0 0 0 0 0 0 0 0 0 0 0 0 0 0 0 0 0 0 127 0" result="hardAlpha"/>
<feOffset dy="4"/>
<feGaussianBlur stdDeviation="2"/>
<feComposite in2="hardAlpha" operator="out"/>
<feColorMatrix type="matrix" values="0 0 0 0 0 0 0 0 0 0 0 0 0 0 0 0 0 0 0.25 0"/>
<feBlend mode="normal" in2="BackgroundImageFix" result="effect1_dropShadow_133_2801"/>
<feBlend mode="normal" in="SourceGraphic" in2="effect1_dropShadow_133_2801" result="shape"/>
</filter>
</defs>
</svg>
