<svg width="22" height="24" viewBox="0 0 22 24" fill="none" xmlns="http://www.w3.org/2000/svg">
<path d="M2.07164 1.77509C2.25062 1.04291 2.34011 0.676817 2.61197 0.463408C2.88383 0.25 3.2607 0.25 4.01444 0.25H17.9856C18.7393 0.25 19.1162 0.25 19.388 0.463408C19.6599 0.676817 19.7494 1.04291 19.9284 1.77509L21.5028 8.21602C21.6801 8.94124 21.7687 9.30386 21.6679 9.58628C21.5949 9.79057 21.4575 9.9656 21.2764 10.085C21.026 10.25 20.6523 10.25 19.9048 10.25C18.8692 10.25 18.3514 10.25 17.9375 10.0489C17.6333 9.90108 17.3715 9.67851 17.1767 9.40201C16.9116 9.02585 16.8284 8.51537 16.6621 7.4944C16.6146 7.20326 16.5909 7.05769 16.5484 7.0342C16.5183 7.01758 16.4817 7.01758 16.4516 7.0342C16.4091 7.05769 16.3854 7.20326 16.3379 7.4944L16.2329 8.13896C16.1664 8.54731 16.1331 8.75149 16.0718 8.92304C15.8316 9.59503 15.2516 10.0882 14.5498 10.2171C14.3706 10.25 14.1637 10.25 13.75 10.25C13.3363 10.25 13.1294 10.25 12.9502 10.2171C12.2484 10.0882 11.6684 9.59503 11.4282 8.92304C11.3669 8.75149 11.3336 8.54731 11.2671 8.13896L11.1621 7.4944C11.1146 7.20326 11.0909 7.05769 11.0484 7.0342C11.0183 7.01758 10.9817 7.01758 10.9516 7.0342C10.9091 7.05769 10.8854 7.20326 10.8379 7.4944L10.7329 8.13896C10.6664 8.54731 10.6331 8.75149 10.5718 8.92304C10.3316 9.59503 9.75165 10.0882 9.04979 10.2171C8.87061 10.25 8.66374 10.25 8.25 10.25C7.83626 10.25 7.62939 10.25 7.45021 10.2171C6.74835 10.0882 6.16836 9.59503 5.92822 8.92304C5.86691 8.75149 5.83364 8.54731 5.76709 8.13896L5.66205 7.4944C5.61461 7.20326 5.59088 7.05769 5.54835 7.0342C5.51826 7.01758 5.48174 7.01758 5.45165 7.0342C5.40912 7.05769 5.38539 7.20326 5.33795 7.4944C5.17157 8.51537 5.08838 9.02585 4.82333 9.40201C4.62849 9.67851 4.36672 9.90108 4.06248 10.0489C3.64859 10.25 3.13079 10.25 2.09519 10.25C1.34773 10.25 0.973999 10.25 0.7236 10.085C0.542473 9.9656 0.405074 9.79057 0.332126 9.58628C0.231279 9.30386 0.319918 8.94124 0.497196 8.21602L2.07164 1.77509Z" fill="url(#paint0_linear_182_18353)"/>
<path fill-rule="evenodd" clip-rule="evenodd" d="M2.45431 11.8052C2.44434 12.1755 2.44434 12.5982 2.44434 13.0833V21.7499C2.44434 22.6927 2.44434 23.1641 2.73723 23.457C3.03012 23.7499 3.50153 23.7499 4.44434 23.7499H8.55556V18.6388C8.55556 18.0865 9.00327 17.6388 9.55556 17.6388H12.4444C12.9967 17.6388 13.4444 18.0865 13.4444 18.6388V23.7499H17.5554H17.5555C18.4983 23.7499 18.9697 23.7499 19.2626 23.457C19.5554 23.1641 19.5554 22.6927 19.5554 21.7499V13.0832C19.5554 12.5982 19.5554 12.1755 19.5455 11.8052C19.1907 11.8043 18.8619 11.7997 18.5756 11.7776C18.1835 11.7474 17.7569 11.6782 17.3274 11.4782C17.0261 11.3378 16.7478 11.1559 16.4999 10.939C16.0354 11.3456 15.4639 11.629 14.8364 11.7461C14.5127 11.8065 14.166 11.806 13.8356 11.8056L13.7499 11.8055L13.6642 11.8056C13.3338 11.806 12.9871 11.8065 12.6633 11.7461C12.0359 11.629 11.4644 11.3456 10.9999 10.939C10.5354 11.3456 9.96388 11.629 9.33644 11.7461C9.0127 11.8065 8.66603 11.806 8.3356 11.8056L8.24989 11.8055L8.16418 11.8056C7.83375 11.806 7.48708 11.8065 7.16335 11.7461C6.5359 11.629 5.96439 11.3456 5.49989 10.939C5.25202 11.1559 4.97366 11.3378 4.67238 11.4782C4.24287 11.6782 3.81624 11.7474 3.42415 11.7776C3.13788 11.7997 2.80908 11.8043 2.45431 11.8052ZM10.5556 23.7499H11.4444V19.6388H10.5556V23.7499Z" fill="url(#paint1_linear_182_18353)"/>
<defs>
<linearGradient id="paint0_linear_182_18353" x1="11" y1="0.25" x2="11.5892" y2="7.50583" gradientUnits="userSpaceOnUse">
<stop stop-color="#F7C243"/>
<stop offset="1" stop-color="#FD902B"/>
</linearGradient>
<linearGradient id="paint1_linear_182_18353" x1="10.9999" y1="10.939" x2="12.2293" y2="20.1312" gradientUnits="userSpaceOnUse">
<stop stop-color="#F7C243"/>
<stop offset="1" stop-color="#FD902B"/>
</linearGradient>
</defs>
</svg>
