<svg width="168" height="43" viewBox="0 0 168 43" fill="none" xmlns="http://www.w3.org/2000/svg">
<line x1="161.746" y1="5.2793" x2="6.25467" y2="5.2793" stroke="white" stroke-width="3"/>
<line x1="6.25391" y1="2.47217" x2="2.00016" y2="2.47217" stroke="white" stroke-width="3"/>
<line x1="166" y1="2.47217" x2="161.746" y2="2.47217" stroke="white" stroke-width="3"/>
<g filter="url(#filter0_d_89_34)">
<path d="M4.772 26.5453H5.894V15.6553H4.772C4.58133 15.6553 4.42 15.5966 4.288 15.4793C4.156 15.3473 4.09 15.186 4.09 14.9953V13.1033C4.09 12.9126 4.156 12.7513 4.288 12.6193C4.42 12.4873 4.58133 12.4213 4.772 12.4213H14.672C14.8627 12.4213 15.0167 12.4873 15.134 12.6193C15.266 12.7513 15.332 12.9126 15.332 13.1033V14.4673H16.696C16.8867 14.4673 17.048 14.5333 17.18 14.6653C17.312 14.7826 17.378 14.9366 17.378 15.1273V19.0653C17.378 19.2413 17.312 19.3953 17.18 19.5273C17.048 19.6593 16.8867 19.7253 16.696 19.7253H15.486V20.5613H16.696C16.8867 20.5613 17.048 20.6273 17.18 20.7593C17.312 20.8913 17.378 21.0526 17.378 21.2433V27.2053C17.378 27.3813 17.312 27.5353 17.18 27.6673C17.048 27.7993 16.8867 27.8653 16.696 27.8653H15.486V29.1193C15.486 29.2953 15.42 29.4493 15.288 29.5813C15.156 29.7133 15.002 29.7793 14.826 29.7793H4.772C4.58133 29.7793 4.42 29.7133 4.288 29.5813C4.156 29.4493 4.09 29.2953 4.09 29.1193V27.2053C4.09 27.0293 4.156 26.8753 4.288 26.7433C4.42 26.6113 4.58133 26.5453 4.772 26.5453ZM9.48 26.4133H14.144V21.7713H9.48V26.4133ZM9.48 18.2733H14.144V15.6553H9.48V18.2733ZM20.3482 12.4213H22.1302C22.3062 12.4213 22.4602 12.4873 22.5922 12.6193C22.7242 12.7513 22.7902 12.9126 22.7902 13.1033V26.5453H29.7202V13.1033C29.7202 12.9126 29.7862 12.7513 29.9182 12.6193C30.0502 12.4873 30.2115 12.4213 30.4022 12.4213H32.2722C32.4628 12.4213 32.6242 12.4873 32.7562 12.6193C32.8882 12.7513 32.9542 12.9126 32.9542 13.1033V27.2053C32.9542 27.3813 32.8882 27.5353 32.7562 27.6673C32.6242 27.7993 32.4628 27.8653 32.2722 27.8653H31.0622V29.1193C31.0622 29.2953 30.9962 29.4493 30.8642 29.5813C30.7322 29.7133 30.5782 29.7793 30.4022 29.7793H22.3722C22.1815 29.7793 22.0202 29.7133 21.8882 29.5813C21.7708 29.4493 21.7122 29.2953 21.7122 29.1193V27.7553H20.3482C20.1575 27.7553 19.9962 27.6893 19.8642 27.5573C19.7322 27.4253 19.6662 27.2713 19.6662 27.0953V13.1033C19.6662 12.9126 19.7322 12.7513 19.8642 12.6193C19.9962 12.4873 20.1575 12.4213 20.3482 12.4213ZM35.5995 12.4213H37.4035C37.5795 12.4213 37.7335 12.4873 37.8655 12.6193C37.9975 12.7513 38.0635 12.9126 38.0635 13.1033V18.5373H39.4275C39.6035 18.5373 39.7575 18.6033 39.8895 18.7353C40.0215 18.8673 40.0875 19.0213 40.0875 19.1973V20.4513H40.9015V19.0653C40.9015 18.8746 40.9675 18.7206 41.0995 18.6033C41.2315 18.4713 41.3928 18.4053 41.5835 18.4053H42.9475V13.1033C42.9475 12.9126 43.0062 12.7513 43.1235 12.6193C43.2555 12.4873 43.4168 12.4213 43.6075 12.4213H45.5215C45.6975 12.4213 45.8515 12.4873 45.9835 12.6193C46.1155 12.7513 46.1815 12.9126 46.1815 13.1033V19.0653C46.1815 19.2413 46.1155 19.3953 45.9835 19.5273C45.8515 19.6593 45.6975 19.7253 45.5215 19.7253H44.2675V21.1113C44.2675 21.302 44.2015 21.4633 44.0695 21.5953C43.9375 21.7126 43.7835 21.7713 43.6075 21.7713H42.2435V29.1193C42.2435 29.2953 42.1775 29.4493 42.0455 29.5813C41.9135 29.7133 41.7595 29.7793 41.5835 29.7793H39.6695C39.4788 29.7793 39.3175 29.7133 39.1855 29.5813C39.0682 29.4493 39.0095 29.2953 39.0095 29.1193V21.6393H37.6235C37.4475 21.6393 37.2935 21.5733 37.1615 21.4413C37.0295 21.3093 36.9635 21.1553 36.9635 20.9793V19.6153H35.5995C35.4235 19.6153 35.2695 19.5493 35.1375 19.4173C35.0055 19.2853 34.9395 19.124 34.9395 18.9333V13.1033C34.9395 12.9126 35.0055 12.7513 35.1375 12.6193C35.2695 12.4873 35.4235 12.4213 35.5995 12.4213ZM48.4042 26.5453H51.5722V15.6553H48.4042C48.2282 15.6553 48.0742 15.5966 47.9422 15.4793C47.8102 15.3473 47.7442 15.186 47.7442 14.9953V13.1033C47.7442 12.9126 47.8102 12.7513 47.9422 12.6193C48.0742 12.4873 48.2282 12.4213 48.4042 12.4213H58.3262C58.5022 12.4213 58.6562 12.4873 58.7882 12.6193C58.9202 12.7513 58.9862 12.9126 58.9862 13.1033V14.9953C58.9862 15.186 58.9202 15.3473 58.7882 15.4793C58.6562 15.5966 58.5022 15.6553 58.3262 15.6553H55.1802V26.5453H58.3262C58.5022 26.5453 58.6562 26.6113 58.7882 26.7433C58.9202 26.8753 58.9862 27.0293 58.9862 27.2053V29.1193C58.9862 29.2953 58.9202 29.4493 58.7882 29.5813C58.6562 29.7133 58.5022 29.7793 58.3262 29.7793H48.4042C48.2282 29.7793 48.0742 29.7133 47.9422 29.5813C47.8102 29.4493 47.7442 29.2953 47.7442 29.1193V27.2053C47.7442 27.0293 47.8102 26.8753 47.9422 26.7433C48.0742 26.6113 48.2282 26.5453 48.4042 26.5453ZM71.0131 23.8173H69.7811C69.5905 23.8173 69.4291 23.7513 69.2971 23.6193C69.1798 23.4873 69.1211 23.326 69.1211 23.1353V21.6393H67.7131C67.5371 21.6393 67.3831 21.5733 67.2511 21.4413C67.1191 21.3093 67.0531 21.1553 67.0531 20.9793V19.6153H65.6891C65.5131 19.6153 65.3591 19.5493 65.2271 19.4173C65.0951 19.2853 65.0291 19.124 65.0291 18.9333V17.7013H64.2151V29.1193C64.2151 29.2953 64.1491 29.4493 64.0171 29.5813C63.8851 29.7133 63.7238 29.7793 63.5331 29.7793H61.6411C61.4505 29.7793 61.2891 29.7133 61.1571 29.5813C61.0251 29.4493 60.9591 29.2953 60.9591 29.1193V13.1033C60.9591 12.9126 61.0251 12.7513 61.1571 12.6193C61.2891 12.4873 61.4505 12.4213 61.6411 12.4213H63.5331C63.7238 12.4213 63.8851 12.4873 64.0171 12.6193C64.1491 12.7513 64.2151 12.9126 64.2151 13.1033V14.3353H65.4471C65.6378 14.3353 65.7918 14.4013 65.9091 14.5333C66.0411 14.6653 66.1071 14.8193 66.1071 14.9953V16.5133H67.4931C67.6691 16.5133 67.8231 16.5793 67.9551 16.7113C68.0871 16.8433 68.1531 16.9973 68.1531 17.1733V18.5373H69.5171C69.6931 18.5373 69.8471 18.6033 69.9791 18.7353C70.1111 18.8673 70.1771 19.0213 70.1771 19.1973V20.4513H71.0131V13.1033C71.0131 12.9126 71.0791 12.7513 71.2111 12.6193C71.3431 12.4873 71.5045 12.4213 71.6951 12.4213H73.5651C73.7558 12.4213 73.9171 12.4873 74.0491 12.6193C74.1811 12.7513 74.2471 12.9126 74.2471 13.1033V29.1193C74.2471 29.2953 74.1811 29.4493 74.0491 29.5813C73.9171 29.7133 73.7558 29.7793 73.5651 29.7793H71.6951C71.5045 29.7793 71.3431 29.7133 71.2111 29.5813C71.0791 29.4493 71.0131 29.2953 71.0131 29.1193V23.8173ZM77.2603 14.3353H78.4923V13.1033C78.4923 12.9126 78.5583 12.7513 78.6903 12.6193C78.8223 12.4873 78.9763 12.4213 79.1523 12.4213H87.1603C87.3509 12.4213 87.5049 12.4873 87.6223 12.6193C87.7543 12.7513 87.8203 12.9126 87.8203 13.1033V14.4673H89.1843C89.3749 14.4673 89.5363 14.5333 89.6683 14.6653C89.8003 14.7826 89.8663 14.9366 89.8663 15.1273V16.9093C89.8663 17.1 89.8003 17.2613 89.6683 17.3933C89.5363 17.5106 89.3749 17.5693 89.1843 17.5693H87.4243C87.2483 17.5693 87.0943 17.5106 86.9623 17.3933C86.8303 17.2613 86.7643 17.1 86.7643 16.9093V15.6553H79.8343V26.5453H86.5003V23.8173H83.3323C83.1563 23.8173 83.0023 23.7513 82.8703 23.6193C82.7383 23.4873 82.6723 23.326 82.6723 23.1353V21.2433C82.6723 21.0526 82.7383 20.8913 82.8703 20.7593C83.0023 20.6273 83.1563 20.5613 83.3323 20.5613H89.1843C89.3749 20.5613 89.5363 20.6273 89.6683 20.7593C89.8003 20.8913 89.8663 21.0526 89.8663 21.2433V27.2053C89.8663 27.3813 89.8003 27.5353 89.6683 27.6673C89.5363 27.7993 89.3749 27.8653 89.1843 27.8653H87.9743V29.1193C87.9743 29.2953 87.9083 29.4493 87.7763 29.5813C87.6443 29.7133 87.4903 29.7793 87.3143 29.7793H79.2843C79.0936 29.7793 78.9323 29.7133 78.8003 29.5813C78.6829 29.4493 78.6243 29.2953 78.6243 29.1193V27.7553H77.2603C77.0696 27.7553 76.9083 27.6893 76.7763 27.5573C76.6443 27.4253 76.5783 27.2713 76.5783 27.0953V14.9953C76.5783 14.8193 76.6443 14.6653 76.7763 14.5333C76.9083 14.4013 77.0696 14.3353 77.2603 14.3353ZM99.604 14.3353H100.836V13.1033C100.836 12.9126 100.902 12.7513 101.034 12.6193C101.166 12.4873 101.32 12.4213 101.496 12.4213H109.504C109.695 12.4213 109.849 12.4873 109.966 12.6193C110.098 12.7513 110.164 12.9126 110.164 13.1033V14.4673H111.528C111.719 14.4673 111.88 14.5333 112.012 14.6653C112.144 14.7826 112.21 14.9366 112.21 15.1273V29.1193C112.21 29.2953 112.144 29.4493 112.012 29.5813C111.88 29.7133 111.719 29.7793 111.528 29.7793H109.658C109.467 29.7793 109.306 29.7133 109.174 29.5813C109.042 29.4493 108.976 29.2953 108.976 29.1193V23.9273H102.178V29.1193C102.178 29.2953 102.112 29.4493 101.98 29.5813C101.848 29.7133 101.687 29.7793 101.496 29.7793H99.604C99.4134 29.7793 99.252 29.7133 99.12 29.5813C98.988 29.4493 98.922 29.2953 98.922 29.1193V14.9953C98.922 14.8193 98.988 14.6653 99.12 14.5333C99.252 14.4013 99.4134 14.3353 99.604 14.3353ZM102.288 20.3193H108.976V15.6553H102.288V20.3193ZM121.948 26.5453H123.07V15.6553H121.948C121.757 15.6553 121.596 15.5966 121.464 15.4793C121.332 15.3473 121.266 15.186 121.266 14.9953V13.1033C121.266 12.9126 121.332 12.7513 121.464 12.6193C121.596 12.4873 121.757 12.4213 121.948 12.4213H131.848C132.038 12.4213 132.192 12.4873 132.31 12.6193C132.442 12.7513 132.508 12.9126 132.508 13.1033V14.4673H133.872C134.062 14.4673 134.224 14.5333 134.356 14.6653C134.488 14.7826 134.554 14.9366 134.554 15.1273V19.0653C134.554 19.2413 134.488 19.3953 134.356 19.5273C134.224 19.6593 134.062 19.7253 133.872 19.7253H132.662V20.5613H133.872C134.062 20.5613 134.224 20.6273 134.356 20.7593C134.488 20.8913 134.554 21.0526 134.554 21.2433V27.2053C134.554 27.3813 134.488 27.5353 134.356 27.6673C134.224 27.7993 134.062 27.8653 133.872 27.8653H132.662V29.1193C132.662 29.2953 132.596 29.4493 132.464 29.5813C132.332 29.7133 132.178 29.7793 132.002 29.7793H121.948C121.757 29.7793 121.596 29.7133 121.464 29.5813C121.332 29.4493 121.266 29.2953 121.266 29.1193V27.2053C121.266 27.0293 121.332 26.8753 121.464 26.7433C121.596 26.6113 121.757 26.5453 121.948 26.5453ZM126.656 26.4133H131.32V21.7713H126.656V26.4133ZM126.656 18.2733H131.32V15.6553H126.656V18.2733ZM137.567 12.4213H149.491C149.682 12.4213 149.843 12.4873 149.975 12.6193C150.107 12.7513 150.173 12.9126 150.173 13.1033V29.1193C150.173 29.2953 150.107 29.4493 149.975 29.5813C149.843 29.7133 149.682 29.7793 149.491 29.7793H137.567C137.376 29.7793 137.215 29.7133 137.083 29.5813C136.951 29.4493 136.885 29.2953 136.885 29.1193V13.1033C136.885 12.9126 136.951 12.7513 137.083 12.6193C137.215 12.4873 137.376 12.4213 137.567 12.4213ZM140.251 15.7873V26.4133H146.807V15.7873H140.251ZM155.924 15.6553H152.646C152.47 15.6553 152.316 15.5966 152.184 15.4793C152.052 15.3473 151.986 15.186 151.986 14.9953V13.1033C151.986 12.9126 152.052 12.7513 152.184 12.6193C152.316 12.4873 152.47 12.4213 152.646 12.4213H162.568C162.744 12.4213 162.898 12.4873 163.03 12.6193C163.162 12.7513 163.228 12.9126 163.228 13.1033V14.9953C163.228 15.186 163.162 15.3473 163.03 15.4793C162.898 15.5966 162.744 15.6553 162.568 15.6553H159.29V29.1193C159.29 29.2953 159.224 29.4493 159.092 29.5813C158.96 29.7133 158.806 29.7793 158.63 29.7793H156.584C156.408 29.7793 156.254 29.7133 156.122 29.5813C155.99 29.4493 155.924 29.2953 155.924 29.1193V15.6553Z" fill="white"/>
</g>
<line y1="-1.5" x2="155.491" y2="-1.5" transform="matrix(-1 0 0 1 161.746 39.7793)" stroke="white" stroke-width="3"/>
<line y1="-1.5" x2="4.25374" y2="-1.5" transform="matrix(-1 7.76318e-08 9.84485e-08 1 6.25391 42.5864)" stroke="white" stroke-width="3"/>
<line y1="-1.5" x2="4.25375" y2="-1.5" transform="matrix(-1 7.76317e-08 9.84486e-08 1 166 42.5864)" stroke="white" stroke-width="3"/>
<defs>
<filter id="filter0_d_89_34" x="0.0898438" y="12.4214" width="167.139" height="25.3579" filterUnits="userSpaceOnUse" color-interpolation-filters="sRGB">
<feFlood flood-opacity="0" result="BackgroundImageFix"/>
<feColorMatrix in="SourceAlpha" type="matrix" values="0 0 0 0 0 0 0 0 0 0 0 0 0 0 0 0 0 0 127 0" result="hardAlpha"/>
<feOffset dy="4"/>
<feGaussianBlur stdDeviation="2"/>
<feComposite in2="hardAlpha" operator="out"/>
<feColorMatrix type="matrix" values="0 0 0 0 0.417535 0 0 0 0 0.474062 0 0 0 0 0.770833 0 0 0 0.25 0"/>
<feBlend mode="normal" in2="BackgroundImageFix" result="effect1_dropShadow_89_34"/>
<feBlend mode="normal" in="SourceGraphic" in2="effect1_dropShadow_89_34" result="shape"/>
</filter>
</defs>
</svg>
