<svg width="234" height="46" viewBox="0 0 234 46" fill="none" xmlns="http://www.w3.org/2000/svg">
<g filter="url(#filter0_d_10402_918)">
<path d="M5.22113 1.95043H6.22913V0.942425C6.22913 0.786425 6.28313 0.654425 6.39113 0.546425C6.49913 0.438425 6.62513 0.384425 6.76913 0.384425H13.3211C13.4771 0.384425 13.6031 0.438425 13.6991 0.546425C13.8071 0.654425 13.8611 0.786425 13.8611 0.942425V2.05843H14.9771C15.1331 2.05843 15.2651 2.11243 15.3731 2.22043C15.4811 2.31643 15.5351 2.44243 15.5351 2.59843V14.0464C15.5351 14.1904 15.4811 14.3164 15.3731 14.4244C15.2651 14.5324 15.1331 14.5864 14.9771 14.5864H13.4471C13.2911 14.5864 13.1591 14.5324 13.0511 14.4244C12.9431 14.3164 12.8891 14.1904 12.8891 14.0464V9.79843H7.32713V14.0464C7.32713 14.1904 7.27313 14.3164 7.16513 14.4244C7.05713 14.5324 6.92513 14.5864 6.76913 14.5864H5.22113C5.06513 14.5864 4.93313 14.5324 4.82513 14.4244C4.71713 14.3164 4.66313 14.1904 4.66313 14.0464V2.49042C4.66313 2.34643 4.71713 2.22043 4.82513 2.11243C4.93313 2.00443 5.06513 1.95043 5.22113 1.95043ZM7.41713 6.84643H12.8891V3.03043H7.41713V6.84643ZM25.7036 9.70843H24.6956C24.5396 9.70843 24.4076 9.65443 24.2996 9.54643C24.2036 9.43843 24.1556 9.30643 24.1556 9.15043V7.92643H23.0036C22.8596 7.92643 22.7336 7.87243 22.6256 7.76443C22.5176 7.65643 22.4636 7.53043 22.4636 7.38643V6.27043H21.3476C21.2036 6.27043 21.0776 6.21643 20.9696 6.10843C20.8616 6.00043 20.8076 5.86843 20.8076 5.71243V4.70443H20.1416V14.0464C20.1416 14.1904 20.0876 14.3164 19.9796 14.4244C19.8716 14.5324 19.7396 14.5864 19.5836 14.5864H18.0356C17.8796 14.5864 17.7476 14.5324 17.6396 14.4244C17.5316 14.3164 17.4776 14.1904 17.4776 14.0464V0.942425C17.4776 0.786425 17.5316 0.654425 17.6396 0.546425C17.7476 0.438425 17.8796 0.384425 18.0356 0.384425H19.5836C19.7396 0.384425 19.8716 0.438425 19.9796 0.546425C20.0876 0.654425 20.1416 0.786425 20.1416 0.942425V1.95043H21.1496C21.3056 1.95043 21.4316 2.00443 21.5276 2.11243C21.6356 2.22043 21.6896 2.34643 21.6896 2.49042V3.73242H22.8236C22.9676 3.73242 23.0936 3.78642 23.2016 3.89443C23.3096 4.00243 23.3636 4.12843 23.3636 4.27243V5.38843H24.4796C24.6236 5.38843 24.7496 5.44243 24.8576 5.55043C24.9656 5.65843 25.0196 5.78443 25.0196 5.92843V6.95443H25.7036V0.942425C25.7036 0.786425 25.7576 0.654425 25.8656 0.546425C25.9736 0.438425 26.1056 0.384425 26.2616 0.384425H27.7916C27.9476 0.384425 28.0796 0.438425 28.1876 0.546425C28.2956 0.654425 28.3496 0.786425 28.3496 0.942425V14.0464C28.3496 14.1904 28.2956 14.3164 28.1876 14.4244C28.0796 14.5324 27.9476 14.5864 27.7916 14.5864H26.2616C26.1056 14.5864 25.9736 14.5324 25.8656 14.4244C25.7576 14.3164 25.7036 14.1904 25.7036 14.0464V9.70843ZM30.7094 11.9404H31.6274V3.03043H30.7094C30.5534 3.03043 30.4214 2.98243 30.3134 2.88643C30.2054 2.77843 30.1514 2.64643 30.1514 2.49042V0.942425C30.1514 0.786425 30.2054 0.654425 30.3134 0.546425C30.4214 0.438425 30.5534 0.384425 30.7094 0.384425H38.8094C38.9654 0.384425 39.0914 0.438425 39.1874 0.546425C39.2954 0.654425 39.3494 0.786425 39.3494 0.942425V2.05843H40.4654C40.6214 2.05843 40.7534 2.11243 40.8614 2.22043C40.9694 2.31643 41.0234 2.44243 41.0234 2.59843V12.4804C41.0234 12.6244 40.9694 12.7504 40.8614 12.8584C40.7534 12.9664 40.6214 13.0204 40.4654 13.0204H39.4754V14.0464C39.4754 14.1904 39.4214 14.3164 39.3134 14.4244C39.2054 14.5324 39.0794 14.5864 38.9354 14.5864H30.7094C30.5534 14.5864 30.4214 14.5324 30.3134 14.4244C30.2054 14.3164 30.1514 14.1904 30.1514 14.0464V12.4804C30.1514 12.3364 30.2054 12.2104 30.3134 12.1024C30.4214 11.9944 30.5534 11.9404 30.7094 11.9404ZM34.5614 11.8324H38.3774V3.03043H34.5614V11.8324ZM51.5827 3.03043H48.9007C48.7567 3.03043 48.6307 2.98243 48.5227 2.88643C48.4147 2.77843 48.3607 2.64643 48.3607 2.49042V0.942425C48.3607 0.786425 48.4147 0.654425 48.5227 0.546425C48.6307 0.438425 48.7567 0.384425 48.9007 0.384425H57.0187C57.1627 0.384425 57.2887 0.438425 57.3967 0.546425C57.5047 0.654425 57.5587 0.786425 57.5587 0.942425V2.49042C57.5587 2.64643 57.5047 2.77843 57.3967 2.88643C57.2887 2.98243 57.1627 3.03043 57.0187 3.03043H54.3367V14.0464C54.3367 14.1904 54.2827 14.3164 54.1747 14.4244C54.0667 14.5324 53.9407 14.5864 53.7967 14.5864H52.1227C51.9787 14.5864 51.8527 14.5324 51.7447 14.4244C51.6367 14.3164 51.5827 14.1904 51.5827 14.0464V3.03043ZM59.6078 0.384425H67.7078C67.8638 0.384425 67.9898 0.438425 68.0858 0.546425C68.1938 0.654425 68.2478 0.786425 68.2478 0.942425V2.05843H69.3638C69.5198 2.05843 69.6518 2.11243 69.7598 2.22043C69.8678 2.31643 69.9218 2.44243 69.9218 2.59843V7.49443C69.9218 7.65043 69.8678 7.78243 69.7598 7.89043C69.6518 7.98643 69.5198 8.03443 69.3638 8.03443H68.3738V9.15043C68.3738 9.30643 68.3198 9.43843 68.2118 9.54643C68.1038 9.65443 67.9778 9.70843 67.8338 9.70843H66.6818V10.3744H67.7078C67.8638 10.3744 67.9898 10.4284 68.0858 10.5364C68.1938 10.6444 68.2478 10.7704 68.2478 10.9144V12.0304H69.3638C69.5198 12.0304 69.6518 12.0844 69.7598 12.1924C69.8678 12.3004 69.9218 12.4324 69.9218 12.5884V14.0464C69.9218 14.1904 69.8678 14.3164 69.7598 14.4244C69.6518 14.5324 69.5198 14.5864 69.3638 14.5864H67.9238C67.7798 14.5864 67.6538 14.5324 67.5458 14.4244C67.4378 14.3164 67.3838 14.1904 67.3838 14.0464V12.9304H66.2678C66.1118 12.9304 65.9798 12.8764 65.8718 12.7684C65.7758 12.6604 65.7278 12.5344 65.7278 12.3904V11.2564H64.4858C64.3418 11.2564 64.2158 11.2084 64.1078 11.1124C63.9998 11.0044 63.9458 10.8724 63.9458 10.7164V9.79843H61.7138V14.0464C61.7138 14.1904 61.6598 14.3164 61.5518 14.4244C61.4438 14.5324 61.3118 14.5864 61.1558 14.5864H59.6078C59.4518 14.5864 59.3198 14.5324 59.2118 14.4244C59.1038 14.3164 59.0498 14.1904 59.0498 14.0464V0.942425C59.0498 0.786425 59.1038 0.654425 59.2118 0.546425C59.3198 0.438425 59.4518 0.384425 59.6078 0.384425ZM61.8038 6.84643H67.2758V3.03043H61.8038V6.84643ZM72.2993 1.95043H73.3073V0.942425C73.3073 0.786425 73.3613 0.654425 73.4693 0.546425C73.5773 0.438425 73.7033 0.384425 73.8473 0.384425H80.3993C80.5553 0.384425 80.6813 0.438425 80.7773 0.546425C80.8853 0.654425 80.9393 0.786425 80.9393 0.942425V2.05843H82.0553C82.2113 2.05843 82.3433 2.11243 82.4513 2.22043C82.5593 2.31643 82.6133 2.44243 82.6133 2.59843V14.0464C82.6133 14.1904 82.5593 14.3164 82.4513 14.4244C82.3433 14.5324 82.2113 14.5864 82.0553 14.5864H80.5253C80.3693 14.5864 80.2373 14.5324 80.1293 14.4244C80.0213 14.3164 79.9673 14.1904 79.9673 14.0464V9.79843H74.4053V14.0464C74.4053 14.1904 74.3513 14.3164 74.2433 14.4244C74.1353 14.5324 74.0033 14.5864 73.8473 14.5864H72.2993C72.1433 14.5864 72.0113 14.5324 71.9033 14.4244C71.7953 14.3164 71.7413 14.1904 71.7413 14.0464V2.49042C71.7413 2.34643 71.7953 2.22043 71.9033 2.11243C72.0113 2.00443 72.1433 1.95043 72.2993 1.95043ZM74.4953 6.84643H79.9673V3.03043H74.4953V6.84643ZM84.8831 0.384425H86.3591C86.5031 0.384425 86.6291 0.438425 86.7371 0.546425C86.8451 0.654425 86.8991 0.786425 86.8991 0.942425V7.04443H88.0151C88.1591 7.04443 88.2851 7.09843 88.3931 7.20643C88.5011 7.31443 88.5551 7.44643 88.5551 7.60243V10.2844H89.2211V7.49443C89.2211 7.35043 89.2751 7.22443 89.3831 7.11643C89.4911 7.00843 89.6231 6.95443 89.7791 6.95443H90.8951V0.942425C90.8951 0.786425 90.9431 0.654425 91.0391 0.546425C91.1471 0.438425 91.2791 0.384425 91.4351 0.384425H93.0011C93.1451 0.384425 93.2711 0.438425 93.3791 0.546425C93.4871 0.654425 93.5411 0.786425 93.5411 0.942425V7.49443C93.5411 7.65043 93.4871 7.78243 93.3791 7.89043C93.2711 7.98643 93.1451 8.03443 93.0011 8.03443H91.9751V10.8244C91.9751 10.9684 91.9211 11.0944 91.8131 11.2024C91.7051 11.3104 91.5791 11.3644 91.4351 11.3644H90.3191V14.0464C90.3191 14.1904 90.2651 14.3164 90.1571 14.4244C90.0491 14.5324 89.9231 14.5864 89.7791 14.5864H88.2131C88.0571 14.5864 87.9251 14.5324 87.8171 14.4244C87.7211 14.3164 87.6731 14.1904 87.6731 14.0464V11.2564H86.5391C86.3951 11.2564 86.2691 11.2084 86.1611 11.1124C86.0531 11.0044 85.9991 10.8724 85.9991 10.7164V7.92643H84.8831C84.7391 7.92643 84.6131 7.87243 84.5051 7.76443C84.3971 7.65643 84.3431 7.53043 84.3431 7.38643V0.942425C84.3431 0.786425 84.3971 0.654425 84.5051 0.546425C84.6131 0.438425 84.7391 0.384425 84.8831 0.384425ZM95.8715 0.384425H105.628C105.784 0.384425 105.916 0.438425 106.024 0.546425C106.132 0.654425 106.186 0.786425 106.186 0.942425V2.49042C106.186 2.64643 106.132 2.77843 106.024 2.88643C105.916 2.98243 105.784 3.03043 105.628 3.03043H98.0675V5.82043H102.316C102.46 5.82043 102.586 5.87443 102.694 5.98243C102.802 6.07843 102.856 6.20443 102.856 6.36043V8.03443C102.856 8.19043 102.802 8.32243 102.694 8.43043C102.586 8.52643 102.46 8.57443 102.316 8.57443H98.0675V11.9404H105.628C105.784 11.9404 105.916 11.9944 106.024 12.1024C106.132 12.2104 106.186 12.3364 106.186 12.4804V14.0464C106.186 14.1904 106.132 14.3164 106.024 14.4244C105.916 14.5324 105.784 14.5864 105.628 14.5864H95.8715C95.7155 14.5864 95.5835 14.5324 95.4755 14.4244C95.3675 14.3164 95.3135 14.1904 95.3135 14.0464V0.942425C95.3135 0.786425 95.3675 0.654425 95.4755 0.546425C95.5835 0.438425 95.7155 0.384425 95.8715 0.384425ZM107.928 0.384425H109.494C109.638 0.384425 109.764 0.438425 109.872 0.546425C109.98 0.654425 110.034 0.786425 110.034 0.942425V11.9404H116.046C116.19 11.9404 116.316 11.9944 116.424 12.1024C116.532 12.2104 116.586 12.3364 116.586 12.4804V14.0464C116.586 14.1904 116.532 14.3164 116.424 14.4244C116.316 14.5324 116.19 14.5864 116.046 14.5864H107.928C107.784 14.5864 107.658 14.5324 107.55 14.4244C107.442 14.3164 107.388 14.1904 107.388 14.0464V0.942425C107.388 0.786425 107.442 0.654425 107.55 0.546425C107.658 0.438425 107.784 0.384425 107.928 0.384425ZM124.399 11.9404H126.991V3.03043H124.399C124.255 3.03043 124.129 2.98243 124.021 2.88643C123.913 2.77843 123.859 2.64643 123.859 2.49042V0.942425C123.859 0.786425 123.913 0.654425 124.021 0.546425C124.129 0.438425 124.255 0.384425 124.399 0.384425H132.517C132.661 0.384425 132.787 0.438425 132.895 0.546425C133.003 0.654425 133.057 0.786425 133.057 0.942425V2.49042C133.057 2.64643 133.003 2.77843 132.895 2.88643C132.787 2.98243 132.661 3.03043 132.517 3.03043H129.943V11.9404H132.517C132.661 11.9404 132.787 11.9944 132.895 12.1024C133.003 12.2104 133.057 12.3364 133.057 12.4804V14.0464C133.057 14.1904 133.003 14.3164 132.895 14.4244C132.787 14.5324 132.661 14.5864 132.517 14.5864H124.399C124.255 14.5864 124.129 14.5324 124.021 14.4244C123.913 14.3164 123.859 14.1904 123.859 14.0464V12.4804C123.859 12.3364 123.913 12.2104 124.021 12.1024C124.129 11.9944 124.255 11.9404 124.399 11.9404ZM142.897 9.70843H141.889C141.733 9.70843 141.601 9.65443 141.493 9.54643C141.397 9.43843 141.349 9.30643 141.349 9.15043V7.92643H140.197C140.053 7.92643 139.927 7.87243 139.819 7.76443C139.711 7.65643 139.657 7.53043 139.657 7.38643V6.27043H138.541C138.397 6.27043 138.271 6.21643 138.163 6.10843C138.055 6.00043 138.001 5.86843 138.001 5.71243V4.70443H137.335V14.0464C137.335 14.1904 137.281 14.3164 137.173 14.4244C137.065 14.5324 136.933 14.5864 136.777 14.5864H135.229C135.073 14.5864 134.941 14.5324 134.833 14.4244C134.725 14.3164 134.671 14.1904 134.671 14.0464V0.942425C134.671 0.786425 134.725 0.654425 134.833 0.546425C134.941 0.438425 135.073 0.384425 135.229 0.384425H136.777C136.933 0.384425 137.065 0.438425 137.173 0.546425C137.281 0.654425 137.335 0.786425 137.335 0.942425V1.95043H138.343C138.499 1.95043 138.625 2.00443 138.721 2.11243C138.829 2.22043 138.883 2.34643 138.883 2.49042V3.73242H140.017C140.161 3.73242 140.287 3.78642 140.395 3.89443C140.503 4.00243 140.557 4.12843 140.557 4.27243V5.38843H141.673C141.817 5.38843 141.943 5.44243 142.051 5.55043C142.159 5.65843 142.213 5.78443 142.213 5.92843V6.95443H142.897V0.942425C142.897 0.786425 142.951 0.654425 143.059 0.546425C143.167 0.438425 143.299 0.384425 143.455 0.384425H144.985C145.141 0.384425 145.273 0.438425 145.381 0.546425C145.489 0.654425 145.543 0.786425 145.543 0.942425V14.0464C145.543 14.1904 145.489 14.3164 145.381 14.4244C145.273 14.5324 145.141 14.5864 144.985 14.5864H143.455C143.299 14.5864 143.167 14.5324 143.059 14.4244C142.951 14.3164 142.897 14.1904 142.897 14.0464V9.70843ZM153.51 1.95043H154.518V0.942425C154.518 0.786425 154.572 0.654425 154.68 0.546425C154.788 0.438425 154.914 0.384425 155.058 0.384425H161.61C161.766 0.384425 161.892 0.438425 161.988 0.546425C162.096 0.654425 162.15 0.786425 162.15 0.942425V2.05843H163.266C163.422 2.05843 163.554 2.11243 163.662 2.22043C163.77 2.31643 163.824 2.44243 163.824 2.59843V14.0464C163.824 14.1904 163.77 14.3164 163.662 14.4244C163.554 14.5324 163.422 14.5864 163.266 14.5864H161.736C161.58 14.5864 161.448 14.5324 161.34 14.4244C161.232 14.3164 161.178 14.1904 161.178 14.0464V9.79843H155.616V14.0464C155.616 14.1904 155.562 14.3164 155.454 14.4244C155.346 14.5324 155.214 14.5864 155.058 14.5864H153.51C153.354 14.5864 153.222 14.5324 153.114 14.4244C153.006 14.3164 152.952 14.1904 152.952 14.0464V2.49042C152.952 2.34643 153.006 2.22043 153.114 2.11243C153.222 2.00443 153.354 1.95043 153.51 1.95043ZM155.706 6.84643H161.178V3.03043H155.706V6.84643ZM171.791 0.384425H179.891C180.047 0.384425 180.173 0.438425 180.269 0.546425C180.377 0.654425 180.431 0.786425 180.431 0.942425V2.05843H181.547C181.703 2.05843 181.835 2.11243 181.943 2.22043C182.051 2.31643 182.105 2.44243 182.105 2.59843V7.49443C182.105 7.65043 182.051 7.78243 181.943 7.89043C181.835 7.98643 181.703 8.03443 181.547 8.03443H180.557V9.15043C180.557 9.30643 180.503 9.43843 180.395 9.54643C180.287 9.65443 180.161 9.70843 180.017 9.70843H173.897V14.0464C173.897 14.1904 173.843 14.3164 173.735 14.4244C173.627 14.5324 173.495 14.5864 173.339 14.5864H171.791C171.635 14.5864 171.503 14.5324 171.395 14.4244C171.287 14.3164 171.233 14.1904 171.233 14.0464V0.942425C171.233 0.786425 171.287 0.654425 171.395 0.546425C171.503 0.438425 171.635 0.384425 171.791 0.384425ZM173.987 6.84643H179.459V3.03043H173.987V6.84643ZM184.006 0.384425H185.572C185.716 0.384425 185.842 0.438425 185.95 0.546425C186.058 0.654425 186.112 0.786425 186.112 0.942425V11.9404H192.124C192.268 11.9404 192.394 11.9944 192.502 12.1024C192.61 12.2104 192.664 12.3364 192.664 12.4804V14.0464C192.664 14.1904 192.61 14.3164 192.502 14.4244C192.394 14.5324 192.268 14.5864 192.124 14.5864H184.006C183.862 14.5864 183.736 14.5324 183.628 14.4244C183.52 14.3164 183.466 14.1904 183.466 14.0464V0.942425C183.466 0.786425 183.52 0.654425 183.628 0.546425C183.736 0.438425 183.862 0.384425 184.006 0.384425ZM194.133 1.95043H195.141V0.942425C195.141 0.786425 195.195 0.654425 195.303 0.546425C195.411 0.438425 195.537 0.384425 195.681 0.384425H202.233C202.389 0.384425 202.515 0.438425 202.611 0.546425C202.719 0.654425 202.773 0.786425 202.773 0.942425V2.05843H203.889C204.045 2.05843 204.177 2.11243 204.285 2.22043C204.393 2.31643 204.447 2.44243 204.447 2.59843V14.0464C204.447 14.1904 204.393 14.3164 204.285 14.4244C204.177 14.5324 204.045 14.5864 203.889 14.5864H202.359C202.203 14.5864 202.071 14.5324 201.963 14.4244C201.855 14.3164 201.801 14.1904 201.801 14.0464V9.79843H196.239V14.0464C196.239 14.1904 196.185 14.3164 196.077 14.4244C195.969 14.5324 195.837 14.5864 195.681 14.5864H194.133C193.977 14.5864 193.845 14.5324 193.737 14.4244C193.629 14.3164 193.575 14.1904 193.575 14.0464V2.49042C193.575 2.34643 193.629 2.22043 193.737 2.11243C193.845 2.00443 193.977 1.95043 194.133 1.95043ZM196.329 6.84643H201.801V3.03043H196.329V6.84643ZM206.877 1.95043H207.885V0.942425C207.885 0.786425 207.939 0.654425 208.047 0.546425C208.155 0.438425 208.281 0.384425 208.425 0.384425H214.977C215.133 0.384425 215.259 0.438425 215.355 0.546425C215.463 0.654425 215.517 0.786425 215.517 0.942425V2.05843H216.633C216.789 2.05843 216.921 2.11243 217.029 2.22043C217.137 2.31643 217.191 2.44243 217.191 2.59843V4.05643C217.191 4.21243 217.137 4.34443 217.029 4.45243C216.921 4.54843 216.789 4.59643 216.633 4.59643H215.193C215.049 4.59643 214.923 4.54843 214.815 4.45243C214.707 4.34443 214.653 4.21243 214.653 4.05643V3.03043H208.983V11.9404H214.545V10.9144C214.545 10.7704 214.599 10.6444 214.707 10.5364C214.815 10.4284 214.947 10.3744 215.103 10.3744H216.633C216.789 10.3744 216.921 10.4284 217.029 10.5364C217.137 10.6444 217.191 10.7704 217.191 10.9144V12.4804C217.191 12.6244 217.137 12.7504 217.029 12.8584C216.921 12.9664 216.789 13.0204 216.633 13.0204H215.643V14.0464C215.643 14.1904 215.589 14.3164 215.481 14.4244C215.373 14.5324 215.247 14.5864 215.103 14.5864H208.533C208.377 14.5864 208.245 14.5324 208.137 14.4244C208.041 14.3164 207.993 14.1904 207.993 14.0464V12.9304H206.877C206.721 12.9304 206.589 12.8764 206.481 12.7684C206.373 12.6604 206.319 12.5344 206.319 12.3904V2.49042C206.319 2.34643 206.373 2.22043 206.481 2.11243C206.589 2.00443 206.721 1.95043 206.877 1.95043ZM219.024 0.384425H228.78C228.936 0.384425 229.068 0.438425 229.176 0.546425C229.284 0.654425 229.338 0.786425 229.338 0.942425V2.49042C229.338 2.64643 229.284 2.77843 229.176 2.88643C229.068 2.98243 228.936 3.03043 228.78 3.03043H221.22V5.82043H225.468C225.612 5.82043 225.738 5.87443 225.846 5.98243C225.954 6.07843 226.008 6.20443 226.008 6.36043V8.03443C226.008 8.19043 225.954 8.32243 225.846 8.43043C225.738 8.52643 225.612 8.57443 225.468 8.57443H221.22V11.9404H228.78C228.936 11.9404 229.068 11.9944 229.176 12.1024C229.284 12.2104 229.338 12.3364 229.338 12.4804V14.0464C229.338 14.1904 229.284 14.3164 229.176 14.4244C229.068 14.5324 228.936 14.5864 228.78 14.5864H219.024C218.868 14.5864 218.736 14.5324 218.628 14.4244C218.52 14.3164 218.466 14.1904 218.466 14.0464V0.942425C218.466 0.786425 218.52 0.654425 218.628 0.546425C218.736 0.438425 218.868 0.384425 219.024 0.384425ZM76.1528 36.0204H75.1448C74.9888 36.0204 74.8568 35.9664 74.7488 35.8584C74.6528 35.7504 74.6048 35.6244 74.6048 35.4804V34.3644H72.2468V35.4804C72.2468 35.6244 72.1928 35.7504 72.0848 35.8584C71.9768 35.9664 71.8508 36.0204 71.7068 36.0204H70.5908V37.0464C70.5908 37.1904 70.5368 37.3164 70.4288 37.4244C70.3208 37.5324 70.1888 37.5864 70.0328 37.5864H68.4848C68.3288 37.5864 68.1968 37.5324 68.0888 37.4244C67.9808 37.3164 67.9268 37.1904 67.9268 37.0464V23.9424C67.9268 23.7864 67.9808 23.6544 68.0888 23.5464C68.1968 23.4384 68.3288 23.3844 68.4848 23.3844H70.0328C70.1888 23.3844 70.3208 23.4384 70.4288 23.5464C70.5368 23.6544 70.5908 23.7864 70.5908 23.9424V33.1764H71.1668V32.2584C71.1668 32.1024 71.2148 31.9764 71.3108 31.8804C71.4188 31.7724 71.5508 31.7184 71.7068 31.7184H74.9288C75.0728 31.7184 75.1988 31.7724 75.3068 31.8804C75.4148 31.9764 75.4688 32.1024 75.4688 32.2584V33.2844H76.1528V23.9424C76.1528 23.7864 76.2068 23.6544 76.3148 23.5464C76.4228 23.4384 76.5548 23.3844 76.7108 23.3844H78.2408C78.3968 23.3844 78.5288 23.4384 78.6368 23.5464C78.7448 23.6544 78.7988 23.7864 78.7988 23.9424V37.0464C78.7988 37.1904 78.7448 37.3164 78.6368 37.4244C78.5288 37.5324 78.3968 37.5864 78.2408 37.5864H76.7108C76.5548 37.5864 76.4228 37.5324 76.3148 37.4244C76.2068 37.3164 76.1528 37.1904 76.1528 37.0464V36.0204ZM80.9456 34.9404H83.5376V26.0304H80.9456C80.8016 26.0304 80.6756 25.9824 80.5676 25.8864C80.4596 25.7784 80.4056 25.6464 80.4056 25.4904V23.9424C80.4056 23.7864 80.4596 23.6544 80.5676 23.5464C80.6756 23.4384 80.8016 23.3844 80.9456 23.3844H89.0636C89.2076 23.3844 89.3336 23.4384 89.4416 23.5464C89.5496 23.6544 89.6036 23.7864 89.6036 23.9424V25.4904C89.6036 25.6464 89.5496 25.7784 89.4416 25.8864C89.3336 25.9824 89.2076 26.0304 89.0636 26.0304H86.4896V34.9404H89.0636C89.2076 34.9404 89.3336 34.9944 89.4416 35.1024C89.5496 35.2104 89.6036 35.3364 89.6036 35.4804V37.0464C89.6036 37.1904 89.5496 37.3164 89.4416 37.4244C89.3336 37.5324 89.2076 37.5864 89.0636 37.5864H80.9456C80.8016 37.5864 80.6756 37.5324 80.5676 37.4244C80.4596 37.3164 80.4056 37.1904 80.4056 37.0464V35.4804C80.4056 35.3364 80.4596 35.2104 80.5676 35.1024C80.6756 34.9944 80.8016 34.9404 80.9456 34.9404ZM93.9108 26.0304H91.2288C91.0848 26.0304 90.9588 25.9824 90.8508 25.8864C90.7428 25.7784 90.6888 25.6464 90.6888 25.4904V23.9424C90.6888 23.7864 90.7428 23.6544 90.8508 23.5464C90.9588 23.4384 91.0848 23.3844 91.2288 23.3844H99.3468C99.4908 23.3844 99.6168 23.4384 99.7248 23.5464C99.8328 23.6544 99.8868 23.7864 99.8868 23.9424V25.4904C99.8868 25.6464 99.8328 25.7784 99.7248 25.8864C99.6168 25.9824 99.4908 26.0304 99.3468 26.0304H96.6648V37.0464C96.6648 37.1904 96.6108 37.3164 96.5028 37.4244C96.3948 37.5324 96.2688 37.5864 96.1248 37.5864H94.4508C94.3068 37.5864 94.1808 37.5324 94.0728 37.4244C93.9648 37.3164 93.9108 37.1904 93.9108 37.0464V26.0304ZM101.936 23.3844H103.484C103.64 23.3844 103.772 23.4384 103.88 23.5464C103.988 23.6544 104.042 23.7864 104.042 23.9424V28.1724H109.604V23.9424C109.604 23.7864 109.658 23.6544 109.766 23.5464C109.874 23.4384 110.006 23.3844 110.162 23.3844H111.692C111.848 23.3844 111.98 23.4384 112.088 23.5464C112.196 23.6544 112.25 23.7864 112.25 23.9424V37.0464C112.25 37.1904 112.196 37.3164 112.088 37.4244C111.98 37.5324 111.848 37.5864 111.692 37.5864H110.162C110.006 37.5864 109.874 37.5324 109.766 37.4244C109.658 37.3164 109.604 37.1904 109.604 37.0464V31.1424H104.042V37.0464C104.042 37.1904 103.988 37.3164 103.88 37.4244C103.772 37.5324 103.64 37.5864 103.484 37.5864H101.936C101.78 37.5864 101.648 37.5324 101.54 37.4244C101.432 37.3164 101.378 37.1904 101.378 37.0464V23.9424C101.378 23.7864 101.432 23.6544 101.54 23.5464C101.648 23.4384 101.78 23.3844 101.936 23.3844ZM122.809 26.0304H120.127C119.983 26.0304 119.857 25.9824 119.749 25.8864C119.641 25.7784 119.587 25.6464 119.587 25.4904V23.9424C119.587 23.7864 119.641 23.6544 119.749 23.5464C119.857 23.4384 119.983 23.3844 120.127 23.3844H128.245C128.389 23.3844 128.515 23.4384 128.623 23.5464C128.731 23.6544 128.785 23.7864 128.785 23.9424V25.4904C128.785 25.6464 128.731 25.7784 128.623 25.8864C128.515 25.9824 128.389 26.0304 128.245 26.0304H125.563V37.0464C125.563 37.1904 125.509 37.3164 125.401 37.4244C125.293 37.5324 125.167 37.5864 125.023 37.5864H123.349C123.205 37.5864 123.079 37.5324 122.971 37.4244C122.863 37.3164 122.809 37.1904 122.809 37.0464V26.0304ZM130.834 23.3844H132.382C132.538 23.3844 132.67 23.4384 132.778 23.5464C132.886 23.6544 132.94 23.7864 132.94 23.9424V28.1724H138.502V23.9424C138.502 23.7864 138.556 23.6544 138.664 23.5464C138.772 23.4384 138.904 23.3844 139.06 23.3844H140.59C140.746 23.3844 140.878 23.4384 140.986 23.5464C141.094 23.6544 141.148 23.7864 141.148 23.9424V37.0464C141.148 37.1904 141.094 37.3164 140.986 37.4244C140.878 37.5324 140.746 37.5864 140.59 37.5864H139.06C138.904 37.5864 138.772 37.5324 138.664 37.4244C138.556 37.3164 138.502 37.1904 138.502 37.0464V31.1424H132.94V37.0464C132.94 37.1904 132.886 37.3164 132.778 37.4244C132.67 37.5324 132.538 37.5864 132.382 37.5864H130.834C130.678 37.5864 130.546 37.5324 130.438 37.4244C130.33 37.3164 130.276 37.1904 130.276 37.0464V23.9424C130.276 23.7864 130.33 23.6544 130.438 23.5464C130.546 23.4384 130.678 23.3844 130.834 23.3844ZM143.684 23.3844H153.44C153.596 23.3844 153.728 23.4384 153.836 23.5464C153.944 23.6544 153.998 23.7864 153.998 23.9424V25.4904C153.998 25.6464 153.944 25.7784 153.836 25.8864C153.728 25.9824 153.596 26.0304 153.44 26.0304H145.88V28.8204H150.128C150.272 28.8204 150.398 28.8744 150.506 28.9824C150.614 29.0784 150.668 29.2044 150.668 29.3604V31.0344C150.668 31.1904 150.614 31.3224 150.506 31.4304C150.398 31.5264 150.272 31.5744 150.128 31.5744H145.88V34.9404H153.44C153.596 34.9404 153.728 34.9944 153.836 35.1024C153.944 35.2104 153.998 35.3364 153.998 35.4804V37.0464C153.998 37.1904 153.944 37.3164 153.836 37.4244C153.728 37.5324 153.596 37.5864 153.44 37.5864H143.684C143.528 37.5864 143.396 37.5324 143.288 37.4244C143.18 37.3164 143.126 37.1904 143.126 37.0464V23.9424C143.126 23.7864 143.18 23.6544 143.288 23.5464C143.396 23.4384 143.528 23.3844 143.684 23.3844ZM163.428 27.8124H162.834V28.7124C162.834 28.8684 162.78 29.0004 162.672 29.1084C162.576 29.2164 162.45 29.2704 162.294 29.2704H159.072C158.928 29.2704 158.802 29.2164 158.694 29.1084C158.586 29.0004 158.532 28.8684 158.532 28.7124V27.7044H157.866V37.0464C157.866 37.1904 157.812 37.3164 157.704 37.4244C157.596 37.5324 157.464 37.5864 157.308 37.5864H155.76C155.604 37.5864 155.472 37.5324 155.364 37.4244C155.256 37.3164 155.202 37.1904 155.202 37.0464V23.9424C155.202 23.7864 155.256 23.6544 155.364 23.5464C155.472 23.4384 155.604 23.3844 155.76 23.3844H157.308C157.464 23.3844 157.596 23.4384 157.704 23.5464C157.812 23.6544 157.866 23.7864 157.866 23.9424V24.9504H158.874C159.03 24.9504 159.156 25.0044 159.252 25.1124C159.36 25.2204 159.414 25.3464 159.414 25.4904V26.6064H161.754V25.4904C161.754 25.3464 161.808 25.2204 161.916 25.1124C162.024 25.0044 162.15 24.9504 162.294 24.9504H163.428V23.9424C163.428 23.7864 163.482 23.6544 163.59 23.5464C163.698 23.4384 163.83 23.3844 163.986 23.3844H165.516C165.672 23.3844 165.804 23.4384 165.912 23.5464C166.02 23.6544 166.074 23.7864 166.074 23.9424V37.0464C166.074 37.1904 166.02 37.3164 165.912 37.4244C165.804 37.5324 165.672 37.5864 165.516 37.5864H163.986C163.83 37.5864 163.698 37.5324 163.59 37.4244C163.482 37.3164 163.428 37.1904 163.428 37.0464V27.8124Z" fill="white"/>
</g>
<defs>
<filter id="filter0_d_10402_918" x="0.663086" y="0.384277" width="232.675" height="45.2021" filterUnits="userSpaceOnUse" color-interpolation-filters="sRGB">
<feFlood flood-opacity="0" result="BackgroundImageFix"/>
<feColorMatrix in="SourceAlpha" type="matrix" values="0 0 0 0 0 0 0 0 0 0 0 0 0 0 0 0 0 0 127 0" result="hardAlpha"/>
<feOffset dy="4"/>
<feGaussianBlur stdDeviation="2"/>
<feComposite in2="hardAlpha" operator="out"/>
<feColorMatrix type="matrix" values="0 0 0 0 0.417535 0 0 0 0 0.474062 0 0 0 0 0.770833 0 0 0 0.25 0"/>
<feBlend mode="normal" in2="BackgroundImageFix" result="effect1_dropShadow_10402_918"/>
<feBlend mode="normal" in="SourceGraphic" in2="effect1_dropShadow_10402_918" result="shape"/>
</filter>
</defs>
</svg>
