<svg width="101" height="69" viewBox="0 0 101 69" fill="none" xmlns="http://www.w3.org/2000/svg">
<g filter="url(#filter0_ddddii_10402_947)">
<rect x="15.5" y="15.5864" width="67" height="35" rx="17.5" fill="#00FFA3"/>
<path d="M26.952 35.8224H28.68V29.8824H26.952C26.856 29.8824 26.772 29.8504 26.7 29.7864C26.628 29.7144 26.592 29.6264 26.592 29.5224V28.4904C26.592 28.3864 26.628 28.2984 26.7 28.2264C26.772 28.1544 26.856 28.1184 26.952 28.1184H32.364C32.46 28.1184 32.544 28.1544 32.616 28.2264C32.688 28.2984 32.724 28.3864 32.724 28.4904V29.5224C32.724 29.6264 32.688 29.7144 32.616 29.7864C32.544 29.8504 32.46 29.8824 32.364 29.8824H30.648V35.8224H32.364C32.46 35.8224 32.544 35.8584 32.616 35.9304C32.688 36.0024 32.724 36.0864 32.724 36.1824V37.2264C32.724 37.3224 32.688 37.4064 32.616 37.4784C32.544 37.5504 32.46 37.5864 32.364 37.5864H26.952C26.856 37.5864 26.772 37.5504 26.7 37.4784C26.628 37.4064 26.592 37.3224 26.592 37.2264V36.1824C26.592 36.0864 26.628 36.0024 26.7 35.9304C26.772 35.8584 26.856 35.8224 26.952 35.8224ZM39.2842 34.3344H38.6122C38.5082 34.3344 38.4202 34.2984 38.3482 34.2264C38.2842 34.1544 38.2522 34.0664 38.2522 33.9624V33.1464H37.4842C37.3882 33.1464 37.3042 33.1104 37.2322 33.0384C37.1602 32.9664 37.1242 32.8824 37.1242 32.7864V32.0424H36.3802C36.2842 32.0424 36.2002 32.0064 36.1282 31.9344C36.0562 31.8624 36.0202 31.7744 36.0202 31.6704V30.9984H35.5762V37.2264C35.5762 37.3224 35.5402 37.4064 35.4682 37.4784C35.3962 37.5504 35.3082 37.5864 35.2042 37.5864H34.1722C34.0682 37.5864 33.9802 37.5504 33.9082 37.4784C33.8362 37.4064 33.8002 37.3224 33.8002 37.2264V28.4904C33.8002 28.3864 33.8362 28.2984 33.9082 28.2264C33.9802 28.1544 34.0682 28.1184 34.1722 28.1184H35.2042C35.3082 28.1184 35.3962 28.1544 35.4682 28.2264C35.5402 28.2984 35.5762 28.3864 35.5762 28.4904V29.1624H36.2482C36.3522 29.1624 36.4362 29.1984 36.5002 29.2704C36.5722 29.3424 36.6082 29.4264 36.6082 29.5224V30.3504H37.3642C37.4602 30.3504 37.5442 30.3864 37.6162 30.4584C37.6882 30.5304 37.7242 30.6144 37.7242 30.7104V31.4544H38.4682C38.5642 31.4544 38.6482 31.4904 38.7202 31.5624C38.7922 31.6344 38.8282 31.7184 38.8282 31.8144V32.4984H39.2842V28.4904C39.2842 28.3864 39.3202 28.2984 39.3922 28.2264C39.4642 28.1544 39.5522 28.1184 39.6562 28.1184H40.6762C40.7802 28.1184 40.8682 28.1544 40.9402 28.2264C41.0122 28.2984 41.0482 28.3864 41.0482 28.4904V37.2264C41.0482 37.3224 41.0122 37.4064 40.9402 37.4784C40.8682 37.5504 40.7802 37.5864 40.6762 37.5864H39.6562C39.5522 37.5864 39.4642 37.5504 39.3922 37.4784C39.3202 37.4064 39.2842 37.3224 39.2842 37.2264V34.3344ZM42.5848 28.1184H43.5688C43.6648 28.1184 43.7488 28.1544 43.8208 28.2264C43.8928 28.2984 43.9288 28.3864 43.9288 28.4904V32.5584H44.6728C44.7688 32.5584 44.8528 32.5944 44.9248 32.6664C44.9968 32.7384 45.0328 32.8264 45.0328 32.9304V34.7184H45.4768V32.8584C45.4768 32.7624 45.5128 32.6784 45.5848 32.6064C45.6568 32.5344 45.7448 32.4984 45.8488 32.4984H46.5928V28.4904C46.5928 28.3864 46.6248 28.2984 46.6888 28.2264C46.7608 28.1544 46.8488 28.1184 46.9528 28.1184H47.9968C48.0928 28.1184 48.1768 28.1544 48.2488 28.2264C48.3208 28.2984 48.3568 28.3864 48.3568 28.4904V32.8584C48.3568 32.9624 48.3208 33.0504 48.2488 33.1224C48.1768 33.1864 48.0928 33.2184 47.9968 33.2184H47.3128V35.0784C47.3128 35.1744 47.2768 35.2584 47.2048 35.3304C47.1328 35.4024 47.0488 35.4384 46.9528 35.4384H46.2088V37.2264C46.2088 37.3224 46.1728 37.4064 46.1008 37.4784C46.0288 37.5504 45.9448 37.5864 45.8488 37.5864H44.8048C44.7008 37.5864 44.6128 37.5504 44.5408 37.4784C44.4768 37.4064 44.4448 37.3224 44.4448 37.2264V35.3664H43.6888C43.5928 35.3664 43.5088 35.3344 43.4368 35.2704C43.3648 35.1984 43.3288 35.1104 43.3288 35.0064V33.1464H42.5848C42.4888 33.1464 42.4048 33.1104 42.3328 33.0384C42.2608 32.9664 42.2248 32.8824 42.2248 32.7864V28.4904C42.2248 28.3864 42.2608 28.2984 42.3328 28.2264C42.4048 28.1544 42.4888 28.1184 42.5848 28.1184ZM49.6395 35.8224H51.3675V29.8824H49.6395C49.5435 29.8824 49.4595 29.8504 49.3875 29.7864C49.3155 29.7144 49.2795 29.6264 49.2795 29.5224V28.4904C49.2795 28.3864 49.3155 28.2984 49.3875 28.2264C49.4595 28.1544 49.5435 28.1184 49.6395 28.1184H55.0515C55.1475 28.1184 55.2315 28.1544 55.3035 28.2264C55.3755 28.2984 55.4115 28.3864 55.4115 28.4904V29.5224C55.4115 29.6264 55.3755 29.7144 55.3035 29.7864C55.2315 29.8504 55.1475 29.8824 55.0515 29.8824H53.3355V35.8224H55.0515C55.1475 35.8224 55.2315 35.8584 55.3035 35.9304C55.3755 36.0024 55.4115 36.0864 55.4115 36.1824V37.2264C55.4115 37.3224 55.3755 37.4064 55.3035 37.4784C55.2315 37.5504 55.1475 37.5864 55.0515 37.5864H49.6395C49.5435 37.5864 49.4595 37.5504 49.3875 37.4784C49.3155 37.4064 49.2795 37.3224 49.2795 37.2264V36.1824C49.2795 36.0864 49.3155 36.0024 49.3875 35.9304C49.4595 35.8584 49.5435 35.8224 49.6395 35.8224ZM58.283 29.8824H56.495C56.399 29.8824 56.315 29.8504 56.243 29.7864C56.171 29.7144 56.135 29.6264 56.135 29.5224V28.4904C56.135 28.3864 56.171 28.2984 56.243 28.2264C56.315 28.1544 56.399 28.1184 56.495 28.1184H61.907C62.003 28.1184 62.087 28.1544 62.159 28.2264C62.231 28.2984 62.267 28.3864 62.267 28.4904V29.5224C62.267 29.6264 62.231 29.7144 62.159 29.7864C62.087 29.8504 62.003 29.8824 61.907 29.8824H60.119V37.2264C60.119 37.3224 60.083 37.4064 60.011 37.4784C59.939 37.5504 59.855 37.5864 59.759 37.5864H58.643C58.547 37.5864 58.463 37.5504 58.391 37.4784C58.319 37.4064 58.283 37.3224 58.283 37.2264V29.8824ZM63.6331 28.1184H70.1371C70.2411 28.1184 70.3291 28.1544 70.4011 28.2264C70.4731 28.2984 70.5091 28.3864 70.5091 28.4904V29.5224C70.5091 29.6264 70.4731 29.7144 70.4011 29.7864C70.3291 29.8504 70.2411 29.8824 70.1371 29.8824H65.0971V31.7424H67.9291C68.0251 31.7424 68.1091 31.7784 68.1811 31.8504C68.2531 31.9144 68.2891 31.9984 68.2891 32.1024V33.2184C68.2891 33.3224 68.2531 33.4104 68.1811 33.4824C68.1091 33.5464 68.0251 33.5784 67.9291 33.5784H65.0971V35.8224H70.1371C70.2411 35.8224 70.3291 35.8584 70.4011 35.9304C70.4731 36.0024 70.5091 36.0864 70.5091 36.1824V37.2264C70.5091 37.3224 70.4731 37.4064 70.4011 37.4784C70.3291 37.5504 70.2411 37.5864 70.1371 37.5864H63.6331C63.5291 37.5864 63.4411 37.5504 63.3691 37.4784C63.2971 37.4064 63.2611 37.3224 63.2611 37.2264V28.4904C63.2611 28.3864 63.2971 28.2984 63.3691 28.2264C63.4411 28.1544 63.5291 28.1184 63.6331 28.1184Z" fill="#004D94"/>
</g>
<defs>
<filter id="filter0_ddddii_10402_947" x="0.5" y="0.586426" width="100" height="68" filterUnits="userSpaceOnUse" color-interpolation-filters="sRGB">
<feFlood flood-opacity="0" result="BackgroundImageFix"/>
<feColorMatrix in="SourceAlpha" type="matrix" values="0 0 0 0 0 0 0 0 0 0 0 0 0 0 0 0 0 0 127 0" result="hardAlpha"/>
<feOffset dx="5" dy="5"/>
<feGaussianBlur stdDeviation="6.5"/>
<feColorMatrix type="matrix" values="0 0 0 0 0 0 0 0 0 0.678431 0 0 0 0 0.435294 0 0 0 0.9 0"/>
<feBlend mode="normal" in2="BackgroundImageFix" result="effect1_dropShadow_10402_947"/>
<feColorMatrix in="SourceAlpha" type="matrix" values="0 0 0 0 0 0 0 0 0 0 0 0 0 0 0 0 0 0 127 0" result="hardAlpha"/>
<feOffset dx="-5" dy="-5"/>
<feGaussianBlur stdDeviation="5"/>
<feColorMatrix type="matrix" values="0 0 0 0 0 0 0 0 0 1 0 0 0 0 0.843137 0 0 0 0.9 0"/>
<feBlend mode="normal" in2="effect1_dropShadow_10402_947" result="effect2_dropShadow_10402_947"/>
<feColorMatrix in="SourceAlpha" type="matrix" values="0 0 0 0 0 0 0 0 0 0 0 0 0 0 0 0 0 0 127 0" result="hardAlpha"/>
<feOffset dx="5" dy="-5"/>
<feGaussianBlur stdDeviation="5"/>
<feColorMatrix type="matrix" values="0 0 0 0 0 0 0 0 0 0.678431 0 0 0 0 0.435294 0 0 0 0.2 0"/>
<feBlend mode="normal" in2="effect2_dropShadow_10402_947" result="effect3_dropShadow_10402_947"/>
<feColorMatrix in="SourceAlpha" type="matrix" values="0 0 0 0 0 0 0 0 0 0 0 0 0 0 0 0 0 0 127 0" result="hardAlpha"/>
<feOffset dx="-5" dy="5"/>
<feGaussianBlur stdDeviation="5"/>
<feColorMatrix type="matrix" values="0 0 0 0 0 0 0 0 0 0.678431 0 0 0 0 0.435294 0 0 0 0.2 0"/>
<feBlend mode="normal" in2="effect3_dropShadow_10402_947" result="effect4_dropShadow_10402_947"/>
<feBlend mode="normal" in="SourceGraphic" in2="effect4_dropShadow_10402_947" result="shape"/>
<feColorMatrix in="SourceAlpha" type="matrix" values="0 0 0 0 0 0 0 0 0 0 0 0 0 0 0 0 0 0 127 0" result="hardAlpha"/>
<feOffset dx="-1" dy="-1"/>
<feGaussianBlur stdDeviation="1"/>
<feComposite in2="hardAlpha" operator="arithmetic" k2="-1" k3="1"/>
<feColorMatrix type="matrix" values="0 0 0 0 0 0 0 0 0 0.678431 0 0 0 0 0.435294 0 0 0 0.5 0"/>
<feBlend mode="normal" in2="shape" result="effect5_innerShadow_10402_947"/>
<feColorMatrix in="SourceAlpha" type="matrix" values="0 0 0 0 0 0 0 0 0 0 0 0 0 0 0 0 0 0 127 0" result="hardAlpha"/>
<feOffset dx="1" dy="1"/>
<feGaussianBlur stdDeviation="1"/>
<feComposite in2="hardAlpha" operator="arithmetic" k2="-1" k3="1"/>
<feColorMatrix type="matrix" values="0 0 0 0 0 0 0 0 0 1 0 0 0 0 0.843137 0 0 0 0.3 0"/>
<feBlend mode="normal" in2="effect5_innerShadow_10402_947" result="effect6_innerShadow_10402_947"/>
</filter>
</defs>
</svg>
