<svg width="199" height="43" viewBox="0 0 199 43" fill="none" xmlns="http://www.w3.org/2000/svg">
<line x1="192.916" y1="5.2793" x2="7.08481" y2="5.2793" stroke="white" stroke-width="3"/>
<line x1="7.08398" y1="2.47217" x2="2.00024" y2="2.47217" stroke="white" stroke-width="3"/>
<line x1="198" y1="2.47217" x2="192.916" y2="2.47217" stroke="white" stroke-width="3"/>
<g filter="url(#filter0_d_7_440)">
<path d="M4.662 26.5453H7.83V15.6553H4.662C4.486 15.6553 4.332 15.5966 4.2 15.4793C4.068 15.3473 4.002 15.186 4.002 14.9953V13.1033C4.002 12.9126 4.068 12.7513 4.2 12.6193C4.332 12.4873 4.486 12.4213 4.662 12.4213H14.584C14.76 12.4213 14.914 12.4873 15.046 12.6193C15.178 12.7513 15.244 12.9126 15.244 13.1033V14.9953C15.244 15.186 15.178 15.3473 15.046 15.4793C14.914 15.5966 14.76 15.6553 14.584 15.6553H11.438V26.5453H14.584C14.76 26.5453 14.914 26.6113 15.046 26.7433C15.178 26.8753 15.244 27.0293 15.244 27.2053V29.1193C15.244 29.2953 15.178 29.4493 15.046 29.5813C14.914 29.7133 14.76 29.7793 14.584 29.7793H4.662C4.486 29.7793 4.332 29.7133 4.2 29.5813C4.068 29.4493 4.002 29.2953 4.002 29.1193V27.2053C4.002 27.0293 4.068 26.8753 4.2 26.7433C4.332 26.6113 4.486 26.5453 4.662 26.5453ZM27.271 23.8173H26.039C25.8483 23.8173 25.687 23.7513 25.555 23.6193C25.4376 23.4873 25.379 23.326 25.379 23.1353V21.6393H23.971C23.795 21.6393 23.641 21.5733 23.509 21.4413C23.377 21.3093 23.311 21.1553 23.311 20.9793V19.6153H21.947C21.771 19.6153 21.617 19.5493 21.485 19.4173C21.353 19.2853 21.287 19.124 21.287 18.9333V17.7013H20.473V29.1193C20.473 29.2953 20.407 29.4493 20.275 29.5813C20.143 29.7133 19.9816 29.7793 19.791 29.7793H17.899C17.7083 29.7793 17.547 29.7133 17.415 29.5813C17.283 29.4493 17.217 29.2953 17.217 29.1193V13.1033C17.217 12.9126 17.283 12.7513 17.415 12.6193C17.547 12.4873 17.7083 12.4213 17.899 12.4213H19.791C19.9816 12.4213 20.143 12.4873 20.275 12.6193C20.407 12.7513 20.473 12.9126 20.473 13.1033V14.3353H21.705C21.8956 14.3353 22.0496 14.4013 22.167 14.5333C22.299 14.6653 22.365 14.8193 22.365 14.9953V16.5133H23.751C23.927 16.5133 24.081 16.5793 24.213 16.7113C24.345 16.8433 24.411 16.9973 24.411 17.1733V18.5373H25.775C25.951 18.5373 26.105 18.6033 26.237 18.7353C26.369 18.8673 26.435 19.0213 26.435 19.1973V20.4513H27.271V13.1033C27.271 12.9126 27.337 12.7513 27.469 12.6193C27.601 12.4873 27.7623 12.4213 27.953 12.4213H29.823C30.0136 12.4213 30.175 12.4873 30.307 12.6193C30.439 12.7513 30.505 12.9126 30.505 13.1033V29.1193C30.505 29.2953 30.439 29.4493 30.307 29.5813C30.175 29.7133 30.0136 29.7793 29.823 29.7793H27.953C27.7623 29.7793 27.601 29.7133 27.469 29.5813C27.337 29.4493 27.271 29.2953 27.271 29.1193V23.8173ZM33.3222 12.4213H35.1262C35.3022 12.4213 35.4562 12.4873 35.5882 12.6193C35.7202 12.7513 35.7862 12.9126 35.7862 13.1033V20.5613H37.1502C37.3262 20.5613 37.4802 20.6273 37.6122 20.7593C37.7442 20.8913 37.8102 21.0526 37.8102 21.2433V24.5213H38.6242V21.1113C38.6242 20.9353 38.6902 20.7813 38.8222 20.6493C38.9542 20.5173 39.1155 20.4513 39.3062 20.4513H40.6702V13.1033C40.6702 12.9126 40.7288 12.7513 40.8462 12.6193C40.9782 12.4873 41.1395 12.4213 41.3302 12.4213H43.2442C43.4202 12.4213 43.5742 12.4873 43.7062 12.6193C43.8382 12.7513 43.9042 12.9126 43.9042 13.1033V21.1113C43.9042 21.302 43.8382 21.4633 43.7062 21.5953C43.5742 21.7126 43.4202 21.7713 43.2442 21.7713H41.9902V25.1813C41.9902 25.3573 41.9242 25.5113 41.7922 25.6433C41.6602 25.7753 41.5062 25.8413 41.3302 25.8413H39.9662V29.1193C39.9662 29.2953 39.9002 29.4493 39.7682 29.5813C39.6362 29.7133 39.4822 29.7793 39.3062 29.7793H37.3922C37.2015 29.7793 37.0402 29.7133 36.9082 29.5813C36.7908 29.4493 36.7322 29.2953 36.7322 29.1193V25.7093H35.3462C35.1702 25.7093 35.0162 25.6506 34.8842 25.5333C34.7522 25.4013 34.6862 25.24 34.6862 25.0493V21.6393H33.3222C33.1462 21.6393 32.9922 21.5733 32.8602 21.4413C32.7282 21.3093 32.6622 21.1553 32.6622 20.9793V13.1033C32.6622 12.9126 32.7282 12.7513 32.8602 12.6193C32.9922 12.4873 33.1462 12.4213 33.3222 12.4213ZM46.2558 26.5453H49.4238V15.6553H46.2558C46.0798 15.6553 45.9258 15.5966 45.7938 15.4793C45.6618 15.3473 45.5958 15.186 45.5958 14.9953V13.1033C45.5958 12.9126 45.6618 12.7513 45.7938 12.6193C45.9258 12.4873 46.0798 12.4213 46.2558 12.4213H56.1778C56.3538 12.4213 56.5078 12.4873 56.6398 12.6193C56.7718 12.7513 56.8378 12.9126 56.8378 13.1033V14.9953C56.8378 15.186 56.7718 15.3473 56.6398 15.4793C56.5078 15.5966 56.3538 15.6553 56.1778 15.6553H53.0318V26.5453H56.1778C56.3538 26.5453 56.5078 26.6113 56.6398 26.7433C56.7718 26.8753 56.8378 27.0293 56.8378 27.2053V29.1193C56.8378 29.2953 56.7718 29.4493 56.6398 29.5813C56.5078 29.7133 56.3538 29.7793 56.1778 29.7793H46.2558C46.0798 29.7793 45.9258 29.7133 45.7938 29.5813C45.6618 29.4493 45.5958 29.2953 45.5958 29.1193V27.2053C45.5958 27.0293 45.6618 26.8753 45.7938 26.7433C45.9258 26.6113 46.0798 26.5453 46.2558 26.5453ZM62.1021 15.6553H58.8241C58.6481 15.6553 58.4941 15.5966 58.3621 15.4793C58.2301 15.3473 58.1641 15.186 58.1641 14.9953V13.1033C58.1641 12.9126 58.2301 12.7513 58.3621 12.6193C58.4941 12.4873 58.6481 12.4213 58.8241 12.4213H68.7461C68.9221 12.4213 69.0761 12.4873 69.2081 12.6193C69.3401 12.7513 69.4061 12.9126 69.4061 13.1033V14.9953C69.4061 15.186 69.3401 15.3473 69.2081 15.4793C69.0761 15.5966 68.9221 15.6553 68.7461 15.6553H65.4681V29.1193C65.4681 29.2953 65.4021 29.4493 65.2701 29.5813C65.1381 29.7133 64.9841 29.7793 64.8081 29.7793H62.7621C62.5861 29.7793 62.4321 29.7133 62.3001 29.5813C62.1681 29.4493 62.1021 29.2953 62.1021 29.1193V15.6553ZM71.9107 12.4213H83.8347C84.0253 12.4213 84.1867 12.4873 84.3187 12.6193C84.4507 12.7513 84.5167 12.9126 84.5167 13.1033V14.9953C84.5167 15.186 84.4507 15.3473 84.3187 15.4793C84.1867 15.5966 84.0253 15.6553 83.8347 15.6553H74.5947V19.0653H79.7867C79.9627 19.0653 80.1167 19.1313 80.2487 19.2633C80.3807 19.3806 80.4467 19.5346 80.4467 19.7253V21.7713C80.4467 21.962 80.3807 22.1233 80.2487 22.2553C80.1167 22.3726 79.9627 22.4313 79.7867 22.4313H74.5947V26.5453H83.8347C84.0253 26.5453 84.1867 26.6113 84.3187 26.7433C84.4507 26.8753 84.5167 27.0293 84.5167 27.2053V29.1193C84.5167 29.2953 84.4507 29.4493 84.3187 29.5813C84.1867 29.7133 84.0253 29.7793 83.8347 29.7793H71.9107C71.72 29.7793 71.5587 29.7133 71.4267 29.5813C71.2947 29.4493 71.2287 29.2953 71.2287 29.1193V13.1033C71.2287 12.9126 71.2947 12.7513 71.4267 12.6193C71.5587 12.4873 71.72 12.4213 71.9107 12.4213ZM94.2544 12.4213H106.178C106.369 12.4213 106.53 12.4873 106.662 12.6193C106.794 12.7513 106.86 12.9126 106.86 13.1033V14.9953C106.86 15.186 106.794 15.3473 106.662 15.4793C106.53 15.5966 106.369 15.6553 106.178 15.6553H96.9384V19.0653H102.13C102.306 19.0653 102.46 19.1313 102.592 19.2633C102.724 19.3806 102.79 19.5346 102.79 19.7253V21.7713C102.79 21.962 102.724 22.1233 102.592 22.2553C102.46 22.3726 102.306 22.4313 102.13 22.4313H96.8284V29.1193C96.8284 29.2953 96.7624 29.4493 96.6304 29.5813C96.4984 29.7133 96.3371 29.7793 96.1464 29.7793H94.2544C94.0638 29.7793 93.9024 29.7133 93.7704 29.5813C93.6384 29.4493 93.5724 29.2953 93.5724 29.1193V13.1033C93.5724 12.9126 93.6384 12.7513 93.7704 12.6193C93.9024 12.4873 94.0638 12.4213 94.2544 12.4213ZM108.627 12.4213H118.527C118.718 12.4213 118.872 12.4873 118.989 12.6193C119.121 12.7513 119.187 12.9126 119.187 13.1033V14.4673H120.551C120.742 14.4673 120.903 14.5333 121.035 14.6653C121.167 14.7826 121.233 14.9366 121.233 15.1273V21.1113C121.233 21.302 121.167 21.4633 121.035 21.5953C120.903 21.7126 120.742 21.7713 120.551 21.7713H119.341V23.1353C119.341 23.326 119.275 23.4873 119.143 23.6193C119.011 23.7513 118.857 23.8173 118.681 23.8173H117.273V24.6313H118.527C118.718 24.6313 118.872 24.6973 118.989 24.8293C119.121 24.9613 119.187 25.1153 119.187 25.2913V26.6553H120.551C120.742 26.6553 120.903 26.7213 121.035 26.8533C121.167 26.9853 121.233 27.1466 121.233 27.3373V29.1193C121.233 29.2953 121.167 29.4493 121.035 29.5813C120.903 29.7133 120.742 29.7793 120.551 29.7793H118.791C118.615 29.7793 118.461 29.7133 118.329 29.5813C118.197 29.4493 118.131 29.2953 118.131 29.1193V27.7553H116.767C116.577 27.7553 116.415 27.6893 116.283 27.5573C116.166 27.4253 116.107 27.2713 116.107 27.0953V25.7093H114.589C114.413 25.7093 114.259 25.6506 114.127 25.5333C113.995 25.4013 113.929 25.24 113.929 25.0493V23.9273H111.201V29.1193C111.201 29.2953 111.135 29.4493 111.003 29.5813C110.871 29.7133 110.71 29.7793 110.519 29.7793H108.627C108.437 29.7793 108.275 29.7133 108.143 29.5813C108.011 29.4493 107.945 29.2953 107.945 29.1193V13.1033C107.945 12.9126 108.011 12.7513 108.143 12.6193C108.275 12.4873 108.437 12.4213 108.627 12.4213ZM111.311 20.3193H117.999V15.6553H111.311V20.3193ZM123.664 26.5453H126.832V15.6553H123.664C123.488 15.6553 123.334 15.5966 123.202 15.4793C123.07 15.3473 123.004 15.186 123.004 14.9953V13.1033C123.004 12.9126 123.07 12.7513 123.202 12.6193C123.334 12.4873 123.488 12.4213 123.664 12.4213H133.586C133.762 12.4213 133.916 12.4873 134.048 12.6193C134.18 12.7513 134.246 12.9126 134.246 13.1033V14.9953C134.246 15.186 134.18 15.3473 134.048 15.4793C133.916 15.5966 133.762 15.6553 133.586 15.6553H130.44V26.5453H133.586C133.762 26.5453 133.916 26.6113 134.048 26.7433C134.18 26.8753 134.246 27.0293 134.246 27.2053V29.1193C134.246 29.2953 134.18 29.4493 134.048 29.5813C133.916 29.7133 133.762 29.7793 133.586 29.7793H123.664C123.488 29.7793 123.334 29.7133 123.202 29.5813C123.07 29.4493 123.004 29.2953 123.004 29.1193V27.2053C123.004 27.0293 123.07 26.8753 123.202 26.7433C123.334 26.6113 123.488 26.5453 123.664 26.5453ZM136.901 12.4213H148.825C149.016 12.4213 149.177 12.4873 149.309 12.6193C149.441 12.7513 149.507 12.9126 149.507 13.1033V14.9953C149.507 15.186 149.441 15.3473 149.309 15.4793C149.177 15.5966 149.016 15.6553 148.825 15.6553H139.585V19.0653H144.777C144.953 19.0653 145.107 19.1313 145.239 19.2633C145.371 19.3806 145.437 19.5346 145.437 19.7253V21.7713C145.437 21.962 145.371 22.1233 145.239 22.2553C145.107 22.3726 144.953 22.4313 144.777 22.4313H139.585V26.5453H148.825C149.016 26.5453 149.177 26.6113 149.309 26.7433C149.441 26.8753 149.507 27.0293 149.507 27.2053V29.1193C149.507 29.2953 149.441 29.4493 149.309 29.5813C149.177 29.7133 149.016 29.7793 148.825 29.7793H136.901C136.71 29.7793 136.549 29.7133 136.417 29.5813C136.285 29.4493 136.219 29.2953 136.219 29.1193V13.1033C136.219 12.9126 136.285 12.7513 136.417 12.6193C136.549 12.4873 136.71 12.4213 136.901 12.4213ZM161.033 23.8173H159.801C159.61 23.8173 159.449 23.7513 159.317 23.6193C159.199 23.4873 159.141 23.326 159.141 23.1353V21.6393H157.733C157.557 21.6393 157.403 21.5733 157.271 21.4413C157.139 21.3093 157.073 21.1553 157.073 20.9793V19.6153H155.709C155.533 19.6153 155.379 19.5493 155.247 19.4173C155.115 19.2853 155.049 19.124 155.049 18.9333V17.7013H154.235V29.1193C154.235 29.2953 154.169 29.4493 154.037 29.5813C153.905 29.7133 153.743 29.7793 153.553 29.7793H151.661C151.47 29.7793 151.309 29.7133 151.177 29.5813C151.045 29.4493 150.979 29.2953 150.979 29.1193V13.1033C150.979 12.9126 151.045 12.7513 151.177 12.6193C151.309 12.4873 151.47 12.4213 151.661 12.4213H153.553C153.743 12.4213 153.905 12.4873 154.037 12.6193C154.169 12.7513 154.235 12.9126 154.235 13.1033V14.3353H155.467C155.657 14.3353 155.811 14.4013 155.929 14.5333C156.061 14.6653 156.127 14.8193 156.127 14.9953V16.5133H157.513C157.689 16.5133 157.843 16.5793 157.975 16.7113C158.107 16.8433 158.173 16.9973 158.173 17.1733V18.5373H159.537C159.713 18.5373 159.867 18.6033 159.999 18.7353C160.131 18.8673 160.197 19.0213 160.197 19.1973V20.4513H161.033V13.1033C161.033 12.9126 161.099 12.7513 161.231 12.6193C161.363 12.4873 161.524 12.4213 161.715 12.4213H163.585C163.775 12.4213 163.937 12.4873 164.069 12.6193C164.201 12.7513 164.267 12.9126 164.267 13.1033V29.1193C164.267 29.2953 164.201 29.4493 164.069 29.5813C163.937 29.7133 163.775 29.7793 163.585 29.7793H161.715C161.524 29.7793 161.363 29.7133 161.231 29.5813C161.099 29.4493 161.033 29.2953 161.033 29.1193V23.8173ZM167.151 26.5453H168.273V15.6553H167.151C166.96 15.6553 166.799 15.5966 166.667 15.4793C166.535 15.3473 166.469 15.186 166.469 14.9953V13.1033C166.469 12.9126 166.535 12.7513 166.667 12.6193C166.799 12.4873 166.96 12.4213 167.151 12.4213H177.051C177.242 12.4213 177.396 12.4873 177.513 12.6193C177.645 12.7513 177.711 12.9126 177.711 13.1033V14.4673H179.075C179.266 14.4673 179.427 14.5333 179.559 14.6653C179.691 14.7826 179.757 14.9366 179.757 15.1273V27.2053C179.757 27.3813 179.691 27.5353 179.559 27.6673C179.427 27.7993 179.266 27.8653 179.075 27.8653H177.865V29.1193C177.865 29.2953 177.799 29.4493 177.667 29.5813C177.535 29.7133 177.381 29.7793 177.205 29.7793H167.151C166.96 29.7793 166.799 29.7133 166.667 29.5813C166.535 29.4493 166.469 29.2953 166.469 29.1193V27.2053C166.469 27.0293 166.535 26.8753 166.667 26.7433C166.799 26.6113 166.96 26.5453 167.151 26.5453ZM171.859 26.4133H176.523V15.6553H171.859V26.4133ZM182.34 14.3353H183.572V13.1033C183.572 12.9126 183.638 12.7513 183.77 12.6193C183.902 12.4873 184.056 12.4213 184.232 12.4213H192.24C192.431 12.4213 192.585 12.4873 192.702 12.6193C192.834 12.7513 192.9 12.9126 192.9 13.1033V14.4673H194.264C194.455 14.4673 194.616 14.5333 194.748 14.6653C194.88 14.7826 194.946 14.9366 194.946 15.1273V16.9093C194.946 17.1 194.88 17.2613 194.748 17.3933C194.616 17.5106 194.455 17.5693 194.264 17.5693H192.504C192.328 17.5693 192.174 17.5106 192.042 17.3933C191.91 17.2613 191.844 17.1 191.844 16.9093V15.6553H184.914V18.5373H192.24C192.431 18.5373 192.585 18.6033 192.702 18.7353C192.834 18.8673 192.9 19.0213 192.9 19.1973V20.5613H194.264C194.455 20.5613 194.616 20.6273 194.748 20.7593C194.88 20.8913 194.946 21.0526 194.946 21.2433V27.2053C194.946 27.3813 194.88 27.5353 194.748 27.6673C194.616 27.7993 194.455 27.8653 194.264 27.8653H193.054V29.1193C193.054 29.2953 192.988 29.4493 192.856 29.5813C192.724 29.7133 192.57 29.7793 192.394 29.7793H184.364C184.174 29.7793 184.012 29.7133 183.88 29.5813C183.763 29.4493 183.704 29.2953 183.704 29.1193V27.7553H182.34C182.15 27.7553 181.988 27.6893 181.856 27.5573C181.724 27.4253 181.658 27.2713 181.658 27.0953V25.2913C181.658 25.1153 181.724 24.9613 181.856 24.8293C181.988 24.6973 182.15 24.6313 182.34 24.6313H184.122C184.298 24.6313 184.452 24.6973 184.584 24.8293C184.716 24.9613 184.782 25.1153 184.782 25.2913V26.5453H191.712V21.6393H184.364C184.174 21.6393 184.012 21.5733 183.88 21.4413C183.763 21.3093 183.704 21.1553 183.704 20.9793V19.6153H182.34C182.15 19.6153 181.988 19.5493 181.856 19.4173C181.724 19.2853 181.658 19.124 181.658 18.9333V14.9953C181.658 14.8193 181.724 14.6653 181.856 14.5333C181.988 14.4013 182.15 14.3353 182.34 14.3353Z" fill="white"/>
</g>
<line y1="-1.5" x2="185.831" y2="-1.5" transform="matrix(-1 0 0 1 192.916 39.7793)" stroke="white" stroke-width="3"/>
<line y1="-1.5" x2="5.08374" y2="-1.5" transform="matrix(-1 6.49572e-08 1.17658e-07 1 7.08398 42.5864)" stroke="white" stroke-width="3"/>
<line y1="-1.5" x2="5.08375" y2="-1.5" transform="matrix(-1 6.49571e-08 1.17658e-07 1 198 42.5864)" stroke="white" stroke-width="3"/>
<defs>
<filter id="filter0_d_7_440" x="0.00195312" y="12.4214" width="198.944" height="25.3579" filterUnits="userSpaceOnUse" color-interpolation-filters="sRGB">
<feFlood flood-opacity="0" result="BackgroundImageFix"/>
<feColorMatrix in="SourceAlpha" type="matrix" values="0 0 0 0 0 0 0 0 0 0 0 0 0 0 0 0 0 0 127 0" result="hardAlpha"/>
<feOffset dy="4"/>
<feGaussianBlur stdDeviation="2"/>
<feComposite in2="hardAlpha" operator="out"/>
<feColorMatrix type="matrix" values="0 0 0 0 0.417535 0 0 0 0 0.474062 0 0 0 0 0.770833 0 0 0 0.25 0"/>
<feBlend mode="normal" in2="BackgroundImageFix" result="effect1_dropShadow_7_440"/>
<feBlend mode="normal" in="SourceGraphic" in2="effect1_dropShadow_7_440" result="shape"/>
</filter>
</defs>
</svg>
