<svg width="87" height="45" viewBox="0 0 87 45" fill="none" xmlns="http://www.w3.org/2000/svg">
<line x1="83.543" y1="5.2793" x2="4.84914" y2="5.2793" stroke="white" stroke-width="3"/>
<line x1="4.84766" y1="2.47217" x2="2.69485" y2="2.47217" stroke="white" stroke-width="3"/>
<line x1="85.6953" y1="2.47217" x2="83.5425" y2="2.47217" stroke="white" stroke-width="3"/>
<g filter="url(#filter0_d_26_127)">
<path d="M5.59931 12.8433H7.68731C7.87931 12.8433 8.04731 12.9153 8.19131 13.0593C8.33531 13.2033 8.40731 13.3793 8.40731 13.5873V28.2513H16.4233C16.6153 28.2513 16.7833 28.3233 16.9273 28.4673C17.0713 28.6113 17.1433 28.7793 17.1433 28.9713V31.0593C17.1433 31.2513 17.0713 31.4193 16.9273 31.5633C16.7833 31.7073 16.6153 31.7793 16.4233 31.7793H5.59931C5.40731 31.7793 5.23931 31.7073 5.09531 31.5633C4.95131 31.4193 4.87931 31.2513 4.87931 31.0593V13.5873C4.87931 13.3793 4.95131 13.2033 5.09531 13.0593C5.23931 12.9153 5.40731 12.8433 5.59931 12.8433ZM19.149 12.8433H32.157C32.365 12.8433 32.541 12.9153 32.685 13.0593C32.829 13.2033 32.901 13.3793 32.901 13.5873V15.6513C32.901 15.8593 32.829 16.0353 32.685 16.1793C32.541 16.3073 32.365 16.3713 32.157 16.3713H22.077V19.3713H30.141C30.333 19.3713 30.501 19.4433 30.645 19.5873C30.789 19.7153 30.861 19.8833 30.861 20.0913V22.3233C30.861 22.5313 30.789 22.7073 30.645 22.8513C30.501 22.9793 30.333 23.0433 30.141 23.0433H22.077V28.2513H32.157C32.365 28.2513 32.541 28.3233 32.685 28.4673C32.829 28.6113 32.901 28.7793 32.901 28.9713V31.0593C32.901 31.2513 32.829 31.4193 32.685 31.5633C32.541 31.7073 32.365 31.7793 32.157 31.7793H19.149C18.941 31.7793 18.765 31.7073 18.621 31.5633C18.477 31.4193 18.405 31.2513 18.405 31.0593V13.5873C18.405 13.3793 18.477 13.2033 18.621 13.0593C18.765 12.9153 18.941 12.8433 19.149 12.8433ZM35.1568 14.9313H36.5008V13.5873C36.5008 13.3793 36.5728 13.2033 36.7168 13.0593C36.8608 12.9153 37.0288 12.8433 37.2208 12.8433H45.9568C46.1648 12.8433 46.3328 12.9153 46.4608 13.0593C46.6048 13.2033 46.6768 13.3793 46.6768 13.5873V15.0753H48.1648C48.3728 15.0753 48.5488 15.1473 48.6928 15.2913C48.8368 15.4193 48.9088 15.5873 48.9088 15.7953V18.9393C48.9088 19.1473 48.8368 19.3233 48.6928 19.4673C48.5488 19.5953 48.3728 19.6593 48.1648 19.6593H46.2448C46.0528 19.6593 45.8848 19.5953 45.7408 19.4673C45.5968 19.3233 45.5248 19.1473 45.5248 18.9393V16.3713H37.9648V28.2513H45.2368V25.2753H41.7808C41.5888 25.2753 41.4208 25.2033 41.2768 25.0593C41.1328 24.9153 41.0608 24.7393 41.0608 24.5313V22.4673C41.0608 22.2593 41.1328 22.0833 41.2768 21.9393C41.4208 21.7953 41.5888 21.7233 41.7808 21.7233H48.1648C48.3728 21.7233 48.5488 21.7953 48.6928 21.9393C48.8368 22.0833 48.9088 22.2593 48.9088 22.4673V28.9713C48.9088 29.1633 48.8368 29.3313 48.6928 29.4753C48.5488 29.6193 48.3728 29.6913 48.1648 29.6913H46.8448V31.0593C46.8448 31.2513 46.7728 31.4193 46.6288 31.5633C46.4848 31.7073 46.3168 31.7793 46.1248 31.7793H37.3648C37.1568 31.7793 36.9808 31.7073 36.8368 31.5633C36.7088 31.4193 36.6448 31.2513 36.6448 31.0593V29.5713H35.1568C34.9488 29.5713 34.7728 29.4993 34.6288 29.3553C34.4848 29.2113 34.4128 29.0433 34.4128 28.8513V15.6513C34.4128 15.4593 34.4848 15.2913 34.6288 15.1473C34.7728 15.0033 34.9488 14.9313 35.1568 14.9313ZM51.8209 12.8433H53.7649C53.9569 12.8433 54.1249 12.9153 54.2689 13.0593C54.4129 13.2033 54.4849 13.3793 54.4849 13.5873V28.2513H62.0449V13.5873C62.0449 13.3793 62.1169 13.2033 62.2609 13.0593C62.4049 12.9153 62.5809 12.8433 62.7889 12.8433H64.8289C65.0369 12.8433 65.2129 12.9153 65.3569 13.0593C65.5009 13.2033 65.5729 13.3793 65.5729 13.5873V28.9713C65.5729 29.1633 65.5009 29.3313 65.3569 29.4753C65.2129 29.6193 65.0369 29.6913 64.8289 29.6913H63.5089V31.0593C63.5089 31.2513 63.4369 31.4193 63.2929 31.5633C63.1489 31.7073 62.9809 31.7793 62.7889 31.7793H54.0289C53.8209 31.7793 53.6449 31.7073 53.5009 31.5633C53.3729 31.4193 53.3089 31.2513 53.3089 31.0593V29.5713H51.8209C51.6129 29.5713 51.4369 29.4993 51.2929 29.3553C51.1489 29.2113 51.0769 29.0433 51.0769 28.8513V13.5873C51.0769 13.3793 51.1489 13.2033 51.2929 13.0593C51.4369 12.9153 51.6129 12.8433 51.8209 12.8433ZM68.9303 12.8433H81.9383C82.1463 12.8433 82.3223 12.9153 82.4663 13.0593C82.6103 13.2033 82.6823 13.3793 82.6823 13.5873V15.6513C82.6823 15.8593 82.6103 16.0353 82.4663 16.1793C82.3223 16.3073 82.1463 16.3713 81.9383 16.3713H71.8583V19.3713H79.9223C80.1143 19.3713 80.2823 19.4433 80.4263 19.5873C80.5703 19.7153 80.6423 19.8833 80.6423 20.0913V22.3233C80.6423 22.5313 80.5703 22.7073 80.4263 22.8513C80.2823 22.9793 80.1143 23.0433 79.9223 23.0433H71.8583V28.2513H81.9383C82.1463 28.2513 82.3223 28.3233 82.4663 28.4673C82.6103 28.6113 82.6823 28.7793 82.6823 28.9713V31.0593C82.6823 31.2513 82.6103 31.4193 82.4663 31.5633C82.3223 31.7073 82.1463 31.7793 81.9383 31.7793H68.9303C68.7223 31.7793 68.5463 31.7073 68.4023 31.5633C68.2583 31.4193 68.1863 31.2513 68.1863 31.0593V13.5873C68.1863 13.3793 68.2583 13.2033 68.4023 13.0593C68.5463 12.9153 68.7223 12.8433 68.9303 12.8433Z" fill="white"/>
</g>
<line y1="-1.5" x2="78.6938" y2="-1.5" transform="matrix(-1 0 0 1 83.543 41.7793)" stroke="white" stroke-width="3"/>
<line y1="-1.5" x2="2.15281" y2="-1.5" transform="matrix(-1 1.53393e-07 4.98245e-08 1 4.84766 44.5864)" stroke="white" stroke-width="3"/>
<line y1="-1.5" x2="2.15281" y2="-1.5" transform="matrix(-1 1.53393e-07 4.98246e-08 1 85.6953 44.5864)" stroke="white" stroke-width="3"/>
<defs>
<filter id="filter0_d_26_127" x="0.878906" y="12.8433" width="85.8037" height="26.936" filterUnits="userSpaceOnUse" color-interpolation-filters="sRGB">
<feFlood flood-opacity="0" result="BackgroundImageFix"/>
<feColorMatrix in="SourceAlpha" type="matrix" values="0 0 0 0 0 0 0 0 0 0 0 0 0 0 0 0 0 0 127 0" result="hardAlpha"/>
<feOffset dy="4"/>
<feGaussianBlur stdDeviation="2"/>
<feComposite in2="hardAlpha" operator="out"/>
<feColorMatrix type="matrix" values="0 0 0 0 0.417535 0 0 0 0 0.474062 0 0 0 0 0.770833 0 0 0 0.25 0"/>
<feBlend mode="normal" in2="BackgroundImageFix" result="effect1_dropShadow_26_127"/>
<feBlend mode="normal" in="SourceGraphic" in2="effect1_dropShadow_26_127" result="shape"/>
</filter>
</defs>
</svg>
