<svg width="160" height="45" viewBox="0 0 160 45" fill="none" xmlns="http://www.w3.org/2000/svg">
<line x1="153.954" y1="5.23926" x2="6.04764" y2="5.23926" stroke="white" stroke-width="3"/>
<line x1="6.0459" y1="2.43213" x2="1.99966" y2="2.43213" stroke="white" stroke-width="3"/>
<line x1="158" y1="2.43213" x2="153.954" y2="2.43213" stroke="white" stroke-width="3"/>
<g filter="url(#filter0_d_8431_1231)">
<path d="M8.48 16.3313H4.904C4.712 16.3313 4.544 16.2673 4.4 16.1393C4.256 15.9953 4.184 15.8193 4.184 15.6113V13.5473C4.184 13.3393 4.256 13.1633 4.4 13.0193C4.544 12.8753 4.712 12.8033 4.904 12.8033H15.728C15.92 12.8033 16.088 12.8753 16.232 13.0193C16.376 13.1633 16.448 13.3393 16.448 13.5473V15.6113C16.448 15.8193 16.376 15.9953 16.232 16.1393C16.088 16.2673 15.92 16.3313 15.728 16.3313H12.152V31.0193C12.152 31.2113 12.08 31.3793 11.936 31.5233C11.792 31.6673 11.624 31.7393 11.432 31.7393H9.2C9.008 31.7393 8.84 31.6673 8.696 31.5233C8.552 31.3793 8.48 31.2113 8.48 31.0193V16.3313ZM19.1099 14.8913H20.4539V13.5473C20.4539 13.3393 20.5259 13.1633 20.6699 13.0193C20.8139 12.8753 20.9819 12.8033 21.1739 12.8033H29.9099C30.1179 12.8033 30.2859 12.8753 30.4139 13.0193C30.5579 13.1633 30.6299 13.3393 30.6299 13.5473V15.0353H32.1179C32.3259 15.0353 32.5019 15.1073 32.6459 15.2513C32.7899 15.3793 32.8619 15.5473 32.8619 15.7553V31.0193C32.8619 31.2113 32.7899 31.3793 32.6459 31.5233C32.5019 31.6673 32.3259 31.7393 32.1179 31.7393H30.0779C29.8699 31.7393 29.6939 31.6673 29.5499 31.5233C29.4059 31.3793 29.3339 31.2113 29.3339 31.0193V25.3553H21.9179V31.0193C21.9179 31.2113 21.8459 31.3793 21.7019 31.5233C21.5579 31.6673 21.3819 31.7393 21.1739 31.7393H19.1099C18.9019 31.7393 18.7259 31.6673 18.5819 31.5233C18.4379 31.3793 18.3659 31.2113 18.3659 31.0193V15.6113C18.3659 15.4193 18.4379 15.2513 18.5819 15.1073C18.7259 14.9633 18.9019 14.8913 19.1099 14.8913ZM22.0379 21.4193H29.3339V16.3313H22.0379V21.4193ZM35.7037 14.8913H37.0477V13.5473C37.0477 13.3393 37.1197 13.1633 37.2637 13.0193C37.4077 12.8753 37.5757 12.8033 37.7677 12.8033H46.5037C46.7117 12.8033 46.8797 12.8753 47.0077 13.0193C47.1517 13.1633 47.2237 13.3393 47.2237 13.5473V15.0353H48.7117C48.9197 15.0353 49.0957 15.1073 49.2397 15.2513C49.3837 15.3793 49.4557 15.5473 49.4557 15.7553V17.6993C49.4557 17.9073 49.3837 18.0833 49.2397 18.2273C49.0957 18.3553 48.9197 18.4193 48.7117 18.4193H46.7917C46.5997 18.4193 46.4317 18.3553 46.2877 18.2273C46.1437 18.0833 46.0717 17.9073 46.0717 17.6993V16.3313H38.5117V19.4753H46.5037C46.7117 19.4753 46.8797 19.5473 47.0077 19.6913C47.1517 19.8353 47.2237 20.0033 47.2237 20.1953V21.6833H48.7117C48.9197 21.6833 49.0957 21.7553 49.2397 21.8993C49.3837 22.0433 49.4557 22.2193 49.4557 22.4273V28.9313C49.4557 29.1233 49.3837 29.2913 49.2397 29.4353C49.0957 29.5793 48.9197 29.6513 48.7117 29.6513H47.3917V31.0193C47.3917 31.2113 47.3197 31.3793 47.1757 31.5233C47.0317 31.6673 46.8637 31.7393 46.6717 31.7393H37.9117C37.7037 31.7393 37.5277 31.6673 37.3837 31.5233C37.2557 31.3793 37.1917 31.2113 37.1917 31.0193V29.5313H35.7037C35.4957 29.5313 35.3197 29.4593 35.1757 29.3153C35.0317 29.1713 34.9597 29.0033 34.9597 28.8113V26.8433C34.9597 26.6513 35.0317 26.4833 35.1757 26.3393C35.3197 26.1953 35.4957 26.1233 35.7037 26.1233H37.6477C37.8397 26.1233 38.0077 26.1953 38.1517 26.3393C38.2957 26.4833 38.3677 26.6513 38.3677 26.8433V28.2113H45.9277V22.8593H37.9117C37.7037 22.8593 37.5277 22.7873 37.3837 22.6433C37.2557 22.4993 37.1917 22.3313 37.1917 22.1393V20.6513H35.7037C35.4957 20.6513 35.3197 20.5793 35.1757 20.4353C35.0317 20.2913 34.9597 20.1153 34.9597 19.9073V15.6113C34.9597 15.4193 35.0317 15.2513 35.1757 15.1073C35.3197 14.9633 35.4957 14.8913 35.7037 14.8913ZM52.6256 12.8033H54.6896C54.8976 12.8033 55.0736 12.8753 55.2176 13.0193C55.3616 13.1633 55.4336 13.3393 55.4336 13.5473V19.1873H56.2016V17.8433C56.2016 17.6353 56.2656 17.4593 56.3936 17.3153C56.5376 17.1713 56.7136 17.0993 56.9216 17.0993H58.4096V15.6113C58.4096 15.4193 58.4816 15.2513 58.6256 15.1073C58.7696 14.9633 58.9376 14.8913 59.1296 14.8913H60.6176V13.5473C60.6176 13.3393 60.6896 13.1633 60.8336 13.0193C60.9776 12.8753 61.1456 12.8033 61.3376 12.8033H63.4256C63.6336 12.8033 63.8016 12.8753 63.9296 13.0193C64.0736 13.1633 64.1456 13.3393 64.1456 13.5473V15.6113C64.1456 15.8193 64.0736 15.9953 63.9296 16.1393C63.8016 16.2673 63.6336 16.3313 63.4256 16.3313H62.0576V17.8433C62.0576 18.0353 61.9856 18.2033 61.8416 18.3473C61.7136 18.4913 61.5456 18.5633 61.3376 18.5633H59.8496V20.0513C59.8496 20.2433 59.7776 20.4113 59.6336 20.5553C59.4896 20.6993 59.3216 20.7713 59.1296 20.7713H57.6416V21.6833H59.0096C59.2016 21.6833 59.3696 21.7553 59.5136 21.8993C59.6576 22.0433 59.7296 22.2193 59.7296 22.4273V23.9153H61.2176C61.4096 23.9153 61.5776 23.9873 61.7216 24.1313C61.8656 24.2593 61.9376 24.4273 61.9376 24.6353V26.1233H63.4256C63.6336 26.1233 63.8016 26.1953 63.9296 26.3393C64.0736 26.4833 64.1456 26.6513 64.1456 26.8433V28.3313H65.6336C65.8416 28.3313 66.0176 28.4033 66.1616 28.5473C66.3056 28.6913 66.3776 28.8673 66.3776 29.0753V31.0193C66.3776 31.2113 66.3056 31.3793 66.1616 31.5233C66.0176 31.6673 65.8416 31.7393 65.6336 31.7393H63.7136C63.5216 31.7393 63.3536 31.6673 63.2096 31.5233C63.0656 31.3793 62.9936 31.2113 62.9936 31.0193V29.5313H61.5056C61.2976 29.5313 61.1216 29.4593 60.9776 29.3153C60.8496 29.1713 60.7856 29.0033 60.7856 28.8113V27.2993H59.2496C59.0576 27.2993 58.8896 27.2353 58.7456 27.1073C58.6016 26.9633 58.5296 26.7873 58.5296 26.5793V25.0913H57.0416C56.8496 25.0913 56.6816 25.0193 56.5376 24.8753C56.3936 24.7313 56.3216 24.5633 56.3216 24.3713V23.0033H55.4336V31.0193C55.4336 31.2113 55.3616 31.3793 55.2176 31.5233C55.0736 31.6673 54.8976 31.7393 54.6896 31.7393H52.6256C52.4176 31.7393 52.2416 31.6673 52.0976 31.5233C51.9536 31.3793 51.8816 31.2113 51.8816 31.0193V13.5473C51.8816 13.3393 51.9536 13.1633 52.0976 13.0193C52.2416 12.8753 52.4176 12.8033 52.6256 12.8033ZM68.5631 14.8913H69.9071V13.5473C69.9071 13.3393 69.9791 13.1633 70.1231 13.0193C70.2671 12.8753 70.4351 12.8033 70.6271 12.8033H79.3631C79.5711 12.8033 79.7391 12.8753 79.8671 13.0193C80.0111 13.1633 80.0831 13.3393 80.0831 13.5473V15.0353H81.5711C81.7791 15.0353 81.9551 15.1073 82.0991 15.2513C82.2431 15.3793 82.3151 15.5473 82.3151 15.7553V17.6993C82.3151 17.9073 82.2431 18.0833 82.0991 18.2273C81.9551 18.3553 81.7791 18.4193 81.5711 18.4193H79.6511C79.4591 18.4193 79.2911 18.3553 79.1471 18.2273C79.0031 18.0833 78.9311 17.9073 78.9311 17.6993V16.3313H71.3711V19.4753H79.3631C79.5711 19.4753 79.7391 19.5473 79.8671 19.6913C80.0111 19.8353 80.0831 20.0033 80.0831 20.1953V21.6833H81.5711C81.7791 21.6833 81.9551 21.7553 82.0991 21.8993C82.2431 22.0433 82.3151 22.2193 82.3151 22.4273V28.9313C82.3151 29.1233 82.2431 29.2913 82.0991 29.4353C81.9551 29.5793 81.7791 29.6513 81.5711 29.6513H80.2511V31.0193C80.2511 31.2113 80.1791 31.3793 80.0351 31.5233C79.8911 31.6673 79.7231 31.7393 79.5311 31.7393H70.7711C70.5631 31.7393 70.3871 31.6673 70.2431 31.5233C70.1151 31.3793 70.0511 31.2113 70.0511 31.0193V29.5313H68.5631C68.3551 29.5313 68.1791 29.4593 68.0351 29.3153C67.8911 29.1713 67.8191 29.0033 67.8191 28.8113V26.8433C67.8191 26.6513 67.8911 26.4833 68.0351 26.3393C68.1791 26.1953 68.3551 26.1233 68.5631 26.1233H70.5071C70.6991 26.1233 70.8671 26.1953 71.0111 26.3393C71.1551 26.4833 71.2271 26.6513 71.2271 26.8433V28.2113H78.7871V22.8593H70.7711C70.5631 22.8593 70.3871 22.7873 70.2431 22.6433C70.1151 22.4993 70.0511 22.3313 70.0511 22.1393V20.6513H68.5631C68.3551 20.6513 68.1791 20.5793 68.0351 20.4353C67.8911 20.2913 67.8191 20.1153 67.8191 19.9073V15.6113C67.8191 15.4193 67.8911 15.2513 68.0351 15.1073C68.1791 14.9633 68.3551 14.8913 68.5631 14.8913ZM92.9381 12.8033H103.738C103.946 12.8033 104.114 12.8753 104.242 13.0193C104.386 13.1633 104.458 13.3393 104.458 13.5473V15.0353H105.946C106.154 15.0353 106.33 15.1073 106.474 15.2513C106.618 15.3793 106.69 15.5473 106.69 15.7553V22.2833C106.69 22.4913 106.618 22.6673 106.474 22.8113C106.33 22.9393 106.154 23.0033 105.946 23.0033H104.626V24.4913C104.626 24.6993 104.554 24.8753 104.41 25.0193C104.266 25.1633 104.098 25.2353 103.906 25.2353H95.7461V31.0193C95.7461 31.2113 95.6741 31.3793 95.5301 31.5233C95.3861 31.6673 95.2101 31.7393 95.0021 31.7393H92.9381C92.7301 31.7393 92.5541 31.6673 92.4101 31.5233C92.2661 31.3793 92.1941 31.2113 92.1941 31.0193V13.5473C92.1941 13.3393 92.2661 13.1633 92.4101 13.0193C92.5541 12.8753 92.7301 12.8033 92.9381 12.8033ZM95.8661 21.4193H103.162V16.3313H95.8661V21.4193ZM109.251 12.8033H122.259C122.467 12.8033 122.643 12.8753 122.787 13.0193C122.931 13.1633 123.003 13.3393 123.003 13.5473V31.0193C123.003 31.2113 122.931 31.3793 122.787 31.5233C122.643 31.6673 122.467 31.7393 122.259 31.7393H109.251C109.043 31.7393 108.867 31.6673 108.723 31.5233C108.579 31.3793 108.507 31.2113 108.507 31.0193V13.5473C108.507 13.3393 108.579 13.1633 108.723 13.0193C108.867 12.8753 109.043 12.8033 109.251 12.8033ZM112.179 16.4753V28.0673H119.331V16.4753H112.179ZM126.383 12.8033H139.391C139.599 12.8033 139.775 12.8753 139.919 13.0193C140.063 13.1633 140.135 13.3393 140.135 13.5473V31.0193C140.135 31.2113 140.063 31.3793 139.919 31.5233C139.775 31.6673 139.599 31.7393 139.391 31.7393H126.383C126.175 31.7393 125.999 31.6673 125.855 31.5233C125.711 31.3793 125.639 31.2113 125.639 31.0193V13.5473C125.639 13.3393 125.711 13.1633 125.855 13.0193C125.999 12.8753 126.175 12.8033 126.383 12.8033ZM129.311 16.4753V28.0673H136.463V16.4753H129.311ZM143.49 12.8033H145.578C145.77 12.8033 145.938 12.8753 146.082 13.0193C146.226 13.1633 146.298 13.3393 146.298 13.5473V28.2113H154.314C154.506 28.2113 154.674 28.2833 154.818 28.4273C154.962 28.5713 155.034 28.7393 155.034 28.9313V31.0193C155.034 31.2113 154.962 31.3793 154.818 31.5233C154.674 31.6673 154.506 31.7393 154.314 31.7393H143.49C143.298 31.7393 143.13 31.6673 142.986 31.5233C142.842 31.3793 142.77 31.2113 142.77 31.0193V13.5473C142.77 13.3393 142.842 13.1633 142.986 13.0193C143.13 12.8753 143.298 12.8033 143.49 12.8033Z" fill="white"/>
</g>
<line y1="-1.5" x2="147.906" y2="-1.5" transform="matrix(-1 0 0 1 153.954 41.7393)" stroke="white" stroke-width="3"/>
<line y1="-1.5" x2="4.04624" y2="-1.5" transform="matrix(-1 8.16129e-08 9.36461e-08 1 6.0459 44.5464)" stroke="white" stroke-width="3"/>
<line y1="-1.5" x2="4.04625" y2="-1.5" transform="matrix(-1 8.16128e-08 9.36463e-08 1 158 44.5464)" stroke="white" stroke-width="3"/>
<defs>
<filter id="filter0_d_8431_1231" x="0.183594" y="12.8032" width="158.851" height="26.936" filterUnits="userSpaceOnUse" color-interpolation-filters="sRGB">
<feFlood flood-opacity="0" result="BackgroundImageFix"/>
<feColorMatrix in="SourceAlpha" type="matrix" values="0 0 0 0 0 0 0 0 0 0 0 0 0 0 0 0 0 0 127 0" result="hardAlpha"/>
<feOffset dy="4"/>
<feGaussianBlur stdDeviation="2"/>
<feComposite in2="hardAlpha" operator="out"/>
<feColorMatrix type="matrix" values="0 0 0 0 0.417535 0 0 0 0 0.474062 0 0 0 0 0.770833 0 0 0 0.25 0"/>
<feBlend mode="normal" in2="BackgroundImageFix" result="effect1_dropShadow_8431_1231"/>
<feBlend mode="normal" in="SourceGraphic" in2="effect1_dropShadow_8431_1231" result="shape"/>
</filter>
</defs>
</svg>
