<svg width="71" height="45" viewBox="0 0 71 45" fill="none" xmlns="http://www.w3.org/2000/svg">
<line x1="67.7617" y1="5.2793" x2="4.23779" y2="5.2793" stroke="white" stroke-width="3"/>
<line x1="4.23828" y1="2.47217" x2="2.50047" y2="2.47217" stroke="white" stroke-width="3"/>
<line x1="69.5" y1="2.47217" x2="67.7622" y2="2.47217" stroke="white" stroke-width="3"/>
<g filter="url(#filter0_d_26_498)">
<path d="M8.98 16.3713H5.404C5.212 16.3713 5.044 16.3073 4.9 16.1793C4.756 16.0353 4.684 15.8593 4.684 15.6513V13.5873C4.684 13.3793 4.756 13.2033 4.9 13.0593C5.044 12.9153 5.212 12.8433 5.404 12.8433H16.228C16.42 12.8433 16.588 12.9153 16.732 13.0593C16.876 13.2033 16.948 13.3793 16.948 13.5873V15.6513C16.948 15.8593 16.876 16.0353 16.732 16.1793C16.588 16.3073 16.42 16.3713 16.228 16.3713H12.652V31.0593C12.652 31.2513 12.58 31.4193 12.436 31.5633C12.292 31.7073 12.124 31.7793 11.932 31.7793H9.7C9.508 31.7793 9.34 31.7073 9.196 31.5633C9.052 31.4193 8.98 31.2513 8.98 31.0593V16.3713ZM19.6099 14.9313H20.9539V13.5873C20.9539 13.3793 21.0259 13.2033 21.1699 13.0593C21.3139 12.9153 21.4819 12.8433 21.6739 12.8433H30.4099C30.6179 12.8433 30.7859 12.9153 30.9139 13.0593C31.0579 13.2033 31.1299 13.3793 31.1299 13.5873V15.0753H32.6179C32.8259 15.0753 33.0019 15.1473 33.1459 15.2913C33.2899 15.4193 33.3619 15.5873 33.3619 15.7953V31.0593C33.3619 31.2513 33.2899 31.4193 33.1459 31.5633C33.0019 31.7073 32.8259 31.7793 32.6179 31.7793H30.5779C30.3699 31.7793 30.1939 31.7073 30.0499 31.5633C29.9059 31.4193 29.8339 31.2513 29.8339 31.0593V25.3953H22.4179V31.0593C22.4179 31.2513 22.3459 31.4193 22.2019 31.5633C22.0579 31.7073 21.8819 31.7793 21.6739 31.7793H19.6099C19.4019 31.7793 19.2259 31.7073 19.0819 31.5633C18.9379 31.4193 18.8659 31.2513 18.8659 31.0593V15.6513C18.8659 15.4593 18.9379 15.2913 19.0819 15.1473C19.2259 15.0033 19.4019 14.9313 19.6099 14.9313ZM22.5379 21.4593H29.8339V16.3713H22.5379V21.4593ZM36.2037 14.9313H37.5477V13.5873C37.5477 13.3793 37.6197 13.2033 37.7637 13.0593C37.9077 12.9153 38.0757 12.8433 38.2677 12.8433H47.0037C47.2117 12.8433 47.3797 12.9153 47.5077 13.0593C47.6517 13.2033 47.7237 13.3793 47.7237 13.5873V15.0753H49.2117C49.4197 15.0753 49.5957 15.1473 49.7397 15.2913C49.8837 15.4193 49.9557 15.5873 49.9557 15.7953V17.7393C49.9557 17.9473 49.8837 18.1233 49.7397 18.2673C49.5957 18.3953 49.4197 18.4593 49.2117 18.4593H47.2917C47.0997 18.4593 46.9317 18.3953 46.7877 18.2673C46.6437 18.1233 46.5717 17.9473 46.5717 17.7393V16.3713H39.0117V19.5153H47.0037C47.2117 19.5153 47.3797 19.5873 47.5077 19.7313C47.6517 19.8753 47.7237 20.0433 47.7237 20.2353V21.7233H49.2117C49.4197 21.7233 49.5957 21.7953 49.7397 21.9393C49.8837 22.0833 49.9557 22.2593 49.9557 22.4673V28.9713C49.9557 29.1633 49.8837 29.3313 49.7397 29.4753C49.5957 29.6193 49.4197 29.6913 49.2117 29.6913H47.8917V31.0593C47.8917 31.2513 47.8197 31.4193 47.6757 31.5633C47.5317 31.7073 47.3637 31.7793 47.1717 31.7793H38.4117C38.2037 31.7793 38.0277 31.7073 37.8837 31.5633C37.7557 31.4193 37.6917 31.2513 37.6917 31.0593V29.5713H36.2037C35.9957 29.5713 35.8197 29.4993 35.6757 29.3553C35.5317 29.2113 35.4597 29.0433 35.4597 28.8513V26.8833C35.4597 26.6913 35.5317 26.5233 35.6757 26.3793C35.8197 26.2353 35.9957 26.1633 36.2037 26.1633H38.1477C38.3397 26.1633 38.5077 26.2353 38.6517 26.3793C38.7957 26.5233 38.8677 26.6913 38.8677 26.8833V28.2513H46.4277V22.8993H38.4117C38.2037 22.8993 38.0277 22.8273 37.8837 22.6833C37.7557 22.5393 37.6917 22.3713 37.6917 22.1793V20.6913H36.2037C35.9957 20.6913 35.8197 20.6193 35.6757 20.4753C35.5317 20.3313 35.4597 20.1553 35.4597 19.9473V15.6513C35.4597 15.4593 35.5317 15.2913 35.6757 15.1473C35.8197 15.0033 35.9957 14.9313 36.2037 14.9313ZM53.1256 12.8433H55.1896C55.3976 12.8433 55.5736 12.9153 55.7176 13.0593C55.8616 13.2033 55.9336 13.3793 55.9336 13.5873V19.2273H56.7016V17.8833C56.7016 17.6753 56.7656 17.4993 56.8936 17.3553C57.0376 17.2113 57.2136 17.1393 57.4216 17.1393H58.9096V15.6513C58.9096 15.4593 58.9816 15.2913 59.1256 15.1473C59.2696 15.0033 59.4376 14.9313 59.6296 14.9313H61.1176V13.5873C61.1176 13.3793 61.1896 13.2033 61.3336 13.0593C61.4776 12.9153 61.6456 12.8433 61.8376 12.8433H63.9256C64.1336 12.8433 64.3016 12.9153 64.4296 13.0593C64.5736 13.2033 64.6456 13.3793 64.6456 13.5873V15.6513C64.6456 15.8593 64.5736 16.0353 64.4296 16.1793C64.3016 16.3073 64.1336 16.3713 63.9256 16.3713H62.5576V17.8833C62.5576 18.0753 62.4856 18.2433 62.3416 18.3873C62.2136 18.5313 62.0456 18.6033 61.8376 18.6033H60.3496V20.0913C60.3496 20.2833 60.2776 20.4513 60.1336 20.5953C59.9896 20.7393 59.8216 20.8113 59.6296 20.8113H58.1416V21.7233H59.5096C59.7016 21.7233 59.8696 21.7953 60.0136 21.9393C60.1576 22.0833 60.2296 22.2593 60.2296 22.4673V23.9553H61.7176C61.9096 23.9553 62.0776 24.0273 62.2216 24.1713C62.3656 24.2993 62.4376 24.4673 62.4376 24.6753V26.1633H63.9256C64.1336 26.1633 64.3016 26.2353 64.4296 26.3793C64.5736 26.5233 64.6456 26.6913 64.6456 26.8833V28.3713H66.1336C66.3416 28.3713 66.5176 28.4433 66.6616 28.5873C66.8056 28.7313 66.8776 28.9073 66.8776 29.1153V31.0593C66.8776 31.2513 66.8056 31.4193 66.6616 31.5633C66.5176 31.7073 66.3416 31.7793 66.1336 31.7793H64.2136C64.0216 31.7793 63.8536 31.7073 63.7096 31.5633C63.5656 31.4193 63.4936 31.2513 63.4936 31.0593V29.5713H62.0056C61.7976 29.5713 61.6216 29.4993 61.4776 29.3553C61.3496 29.2113 61.2856 29.0433 61.2856 28.8513V27.3393H59.7496C59.5576 27.3393 59.3896 27.2753 59.2456 27.1473C59.1016 27.0033 59.0296 26.8273 59.0296 26.6193V25.1313H57.5416C57.3496 25.1313 57.1816 25.0593 57.0376 24.9153C56.8936 24.7713 56.8216 24.6033 56.8216 24.4113V23.0433H55.9336V31.0593C55.9336 31.2513 55.8616 31.4193 55.7176 31.5633C55.5736 31.7073 55.3976 31.7793 55.1896 31.7793H53.1256C52.9176 31.7793 52.7416 31.7073 52.5976 31.5633C52.4536 31.4193 52.3816 31.2513 52.3816 31.0593V13.5873C52.3816 13.3793 52.4536 13.2033 52.5976 13.0593C52.7416 12.9153 52.9176 12.8433 53.1256 12.8433Z" fill="white"/>
</g>
<line y1="-1.5" x2="63.5239" y2="-1.5" transform="matrix(-1 0 0 1 67.7617 41.7793)" stroke="white" stroke-width="3"/>
<line y1="-1.5" x2="1.73781" y2="-1.5" transform="matrix(-1 1.90024e-07 4.02198e-08 1 4.23828 44.5864)" stroke="white" stroke-width="3"/>
<line y1="-1.5" x2="1.73781" y2="-1.5" transform="matrix(-1 1.90024e-07 4.02199e-08 1 69.5 44.5864)" stroke="white" stroke-width="3"/>
<defs>
<filter id="filter0_d_26_498" x="0.683594" y="12.8433" width="70.1943" height="26.936" filterUnits="userSpaceOnUse" color-interpolation-filters="sRGB">
<feFlood flood-opacity="0" result="BackgroundImageFix"/>
<feColorMatrix in="SourceAlpha" type="matrix" values="0 0 0 0 0 0 0 0 0 0 0 0 0 0 0 0 0 0 127 0" result="hardAlpha"/>
<feOffset dy="4"/>
<feGaussianBlur stdDeviation="2"/>
<feComposite in2="hardAlpha" operator="out"/>
<feColorMatrix type="matrix" values="0 0 0 0 0.417535 0 0 0 0 0.474062 0 0 0 0 0.770833 0 0 0 0.25 0"/>
<feBlend mode="normal" in2="BackgroundImageFix" result="effect1_dropShadow_26_498"/>
<feBlend mode="normal" in="SourceGraphic" in2="effect1_dropShadow_26_498" result="shape"/>
</filter>
</defs>
</svg>
