<svg width="159" height="44" viewBox="0 0 159 44" fill="none" xmlns="http://www.w3.org/2000/svg">
<line x1="153.954" y1="4.30713" x2="6.04764" y2="4.30713" stroke="white" stroke-width="3"/>
<line x1="6.0459" y1="1.5" x2="1.99966" y2="1.5" stroke="white" stroke-width="3"/>
<line x1="158" y1="1.5" x2="153.954" y2="1.5" stroke="white" stroke-width="3"/>
<g filter="url(#filter0_d_68_207)">
<path d="M4.904 11.8711H6.872C7.064 11.8711 7.232 11.9431 7.376 12.0871C7.52 12.2311 7.592 12.4071 7.592 12.6151V21.1831H9.08C9.272 21.1831 9.44 21.2551 9.584 21.3991C9.728 21.5431 9.8 21.7111 9.8 21.9031V23.2711H10.688V21.7591C10.688 21.5511 10.76 21.3831 10.904 21.2551C11.048 21.1111 11.224 21.0391 11.432 21.0391H12.92V12.6151C12.92 12.4071 12.984 12.2311 13.112 12.0871C13.256 11.9431 13.432 11.8711 13.64 11.8711H15.728C15.92 11.8711 16.088 11.9431 16.232 12.0871C16.376 12.2311 16.448 12.4071 16.448 12.6151V21.7591C16.448 21.9511 16.376 22.1191 16.232 22.2631C16.088 22.4071 15.92 22.4791 15.728 22.4791H14.36V23.9911C14.36 24.1991 14.288 24.3751 14.144 24.5191C14 24.6471 13.832 24.7111 13.64 24.7111H12.152V30.0871C12.152 30.2791 12.08 30.4471 11.936 30.5911C11.792 30.7351 11.624 30.8071 11.432 30.8071H9.344C9.136 30.8071 8.96 30.7351 8.816 30.5911C8.688 30.4471 8.624 30.2791 8.624 30.0871V24.5671H7.112C6.92 24.5671 6.752 24.4951 6.608 24.3511C6.464 24.2071 6.392 24.0391 6.392 23.8471V22.3591H4.904C4.712 22.3591 4.544 22.2871 4.4 22.1431C4.256 21.9991 4.184 21.8231 4.184 21.6151V12.6151C4.184 12.4071 4.256 12.2311 4.4 12.0871C4.544 11.9431 4.712 11.8711 4.904 11.8711ZM19.4146 11.8711H32.4226C32.6306 11.8711 32.8066 11.9431 32.9506 12.0871C33.0946 12.2311 33.1666 12.4071 33.1666 12.6151V30.0871C33.1666 30.2791 33.0946 30.4471 32.9506 30.5911C32.8066 30.7351 32.6306 30.8071 32.4226 30.8071H19.4146C19.2066 30.8071 19.0306 30.7351 18.8866 30.5911C18.7426 30.4471 18.6706 30.2791 18.6706 30.0871V12.6151C18.6706 12.4071 18.7426 12.2311 18.8866 12.0871C19.0306 11.9431 19.2066 11.8711 19.4146 11.8711ZM22.3426 15.5431V27.1351H29.4946V15.5431H22.3426ZM36.5006 11.8711H38.4446C38.6366 11.8711 38.8046 11.9431 38.9486 12.0871C39.0926 12.2311 39.1646 12.4071 39.1646 12.6151V27.2791H46.7246V12.6151C46.7246 12.4071 46.7966 12.2311 46.9406 12.0871C47.0846 11.9431 47.2606 11.8711 47.4686 11.8711H49.5086C49.7166 11.8711 49.8926 11.9431 50.0366 12.0871C50.1806 12.2311 50.2526 12.4071 50.2526 12.6151V27.9991C50.2526 28.1911 50.1806 28.3591 50.0366 28.5031C49.8926 28.6471 49.7166 28.7191 49.5086 28.7191H48.1886V30.0871C48.1886 30.2791 48.1166 30.4471 47.9726 30.5911C47.8286 30.7351 47.6606 30.8071 47.4686 30.8071H38.7086C38.5006 30.8071 38.3246 30.7351 38.1806 30.5911C38.0526 30.4471 37.9886 30.2791 37.9886 30.0871V28.5991H36.5006C36.2926 28.5991 36.1166 28.5271 35.9726 28.3831C35.8286 28.2391 35.7566 28.0711 35.7566 27.8791V12.6151C35.7566 12.4071 35.8286 12.2311 35.9726 12.0871C36.1166 11.9431 36.2926 11.8711 36.5006 11.8711ZM53.6099 11.8711H64.4099C64.6179 11.8711 64.7859 11.9431 64.9139 12.0871C65.0579 12.2311 65.1299 12.4071 65.1299 12.6151V14.1031H66.6179C66.8259 14.1031 67.0019 14.1751 67.1459 14.3191C67.2899 14.4471 67.3619 14.6151 67.3619 14.8231V21.3511C67.3619 21.5591 67.2899 21.7351 67.1459 21.8791C67.0019 22.0071 66.8259 22.0711 66.6179 22.0711H65.2979V23.5591C65.2979 23.7671 65.2259 23.9431 65.0819 24.0871C64.9379 24.2311 64.7699 24.3031 64.5779 24.3031H63.0419V25.1911H64.4099C64.6179 25.1911 64.7859 25.2631 64.9139 25.4071C65.0579 25.5511 65.1299 25.7191 65.1299 25.9111V27.3991H66.6179C66.8259 27.3991 67.0019 27.4711 67.1459 27.6151C67.2899 27.7591 67.3619 27.9351 67.3619 28.1431V30.0871C67.3619 30.2791 67.2899 30.4471 67.1459 30.5911C67.0019 30.7351 66.8259 30.8071 66.6179 30.8071H64.6979C64.5059 30.8071 64.3379 30.7351 64.1939 30.5911C64.0499 30.4471 63.9779 30.2791 63.9779 30.0871V28.5991H62.4899C62.2819 28.5991 62.1059 28.5271 61.9619 28.3831C61.8339 28.2391 61.7699 28.0711 61.7699 27.8791V26.3671H60.1139C59.9219 26.3671 59.7539 26.3031 59.6099 26.1751C59.4659 26.0311 59.3939 25.8551 59.3939 25.6471V24.4231H56.4179V30.0871C56.4179 30.2791 56.3459 30.4471 56.2019 30.5911C56.0579 30.7351 55.8819 30.8071 55.6739 30.8071H53.6099C53.4019 30.8071 53.2259 30.7351 53.0819 30.5911C52.9379 30.4471 52.8659 30.2791 52.8659 30.0871V12.6151C52.8659 12.4071 52.9379 12.2311 53.0819 12.0871C53.2259 11.9431 53.4019 11.8711 53.6099 11.8711ZM56.5379 20.4871H63.8339V15.3991H56.5379V20.4871ZM77.8649 11.8711H79.9529C80.1449 11.8711 80.3129 11.9431 80.4569 12.0871C80.6009 12.2311 80.6729 12.4071 80.6729 12.6151V27.2791H88.6889C88.8809 27.2791 89.0489 27.3511 89.1929 27.4951C89.3369 27.6391 89.4089 27.8071 89.4089 27.9991V30.0871C89.4089 30.2791 89.3369 30.4471 89.1929 30.5911C89.0489 30.7351 88.8809 30.8071 88.6889 30.8071H77.8649C77.6729 30.8071 77.5049 30.7351 77.3609 30.5911C77.2169 30.4471 77.1449 30.2791 77.1449 30.0871V12.6151C77.1449 12.4071 77.2169 12.2311 77.3609 12.0871C77.5049 11.9431 77.6729 11.8711 77.8649 11.8711ZM91.4146 11.8711H104.423C104.631 11.8711 104.807 11.9431 104.951 12.0871C105.095 12.2311 105.167 12.4071 105.167 12.6151V14.6791C105.167 14.8871 105.095 15.0631 104.951 15.2071C104.807 15.3351 104.631 15.3991 104.423 15.3991H94.3426V19.1191H100.007C100.199 19.1191 100.367 19.1911 100.511 19.3351C100.655 19.4631 100.727 19.6311 100.727 19.8391V22.0711C100.727 22.2791 100.655 22.4551 100.511 22.5991C100.367 22.7271 100.199 22.7911 100.007 22.7911H94.3426V27.2791H104.423C104.631 27.2791 104.807 27.3511 104.951 27.4951C105.095 27.6391 105.167 27.8071 105.167 27.9991V30.0871C105.167 30.2791 105.095 30.4471 104.951 30.5911C104.807 30.7351 104.631 30.8071 104.423 30.8071H91.4146C91.2066 30.8071 91.0306 30.7351 90.8866 30.5911C90.7426 30.4471 90.6706 30.2791 90.6706 30.0871V12.6151C90.6706 12.4071 90.7426 12.2311 90.8866 12.0871C91.0306 11.9431 91.2066 11.8711 91.4146 11.8711ZM107.422 13.9591H108.766V12.6151C108.766 12.4071 108.838 12.2311 108.982 12.0871C109.126 11.9431 109.294 11.8711 109.486 11.8711H118.222C118.43 11.8711 118.598 11.9431 118.726 12.0871C118.87 12.2311 118.942 12.4071 118.942 12.6151V14.1031H120.43C120.638 14.1031 120.814 14.1751 120.958 14.3191C121.102 14.4471 121.174 14.6151 121.174 14.8231V16.7671C121.174 16.9751 121.102 17.1511 120.958 17.2951C120.814 17.4231 120.638 17.4871 120.43 17.4871H118.51C118.318 17.4871 118.15 17.4231 118.006 17.2951C117.862 17.1511 117.79 16.9751 117.79 16.7671V15.3991H110.23V27.2791H117.502V24.3031H114.046C113.854 24.3031 113.686 24.2311 113.542 24.0871C113.398 23.9431 113.326 23.7671 113.326 23.5591V21.4951C113.326 21.2871 113.398 21.1111 113.542 20.9671C113.686 20.8231 113.854 20.7511 114.046 20.7511H120.43C120.638 20.7511 120.814 20.8231 120.958 20.9671C121.102 21.1111 121.174 21.2871 121.174 21.4951V27.9991C121.174 28.1911 121.102 28.3591 120.958 28.5031C120.814 28.6471 120.638 28.7191 120.43 28.7191H119.11V30.0871C119.11 30.2791 119.038 30.4471 118.894 30.5911C118.75 30.7351 118.582 30.8071 118.39 30.8071H109.63C109.422 30.8071 109.246 30.7351 109.102 30.5911C108.974 30.4471 108.91 30.2791 108.91 30.0871V28.5991H107.422C107.214 28.5991 107.038 28.5271 106.894 28.3831C106.75 28.2391 106.678 28.0711 106.678 27.8791V14.6791C106.678 14.4871 106.75 14.3191 106.894 14.1751C107.038 14.0311 107.214 13.9591 107.422 13.9591ZM124.087 11.8711H126.031C126.223 11.8711 126.391 11.9431 126.535 12.0871C126.679 12.2311 126.751 12.4071 126.751 12.6151V27.2791H134.311V12.6151C134.311 12.4071 134.383 12.2311 134.527 12.0871C134.671 11.9431 134.847 11.8711 135.055 11.8711H137.095C137.303 11.8711 137.479 11.9431 137.623 12.0871C137.767 12.2311 137.839 12.4071 137.839 12.6151V27.9991C137.839 28.1911 137.767 28.3591 137.623 28.5031C137.479 28.6471 137.303 28.7191 137.095 28.7191H135.775V30.0871C135.775 30.2791 135.703 30.4471 135.559 30.5911C135.415 30.7351 135.247 30.8071 135.055 30.8071H126.295C126.087 30.8071 125.911 30.7351 125.767 30.5911C125.639 30.4471 125.575 30.2791 125.575 30.0871V28.5991H124.087C123.879 28.5991 123.703 28.5271 123.559 28.3831C123.415 28.2391 123.343 28.0711 123.343 27.8791V12.6151C123.343 12.4071 123.415 12.2311 123.559 12.0871C123.703 11.9431 123.879 11.8711 124.087 11.8711ZM141.196 11.8711H154.204C154.412 11.8711 154.588 11.9431 154.732 12.0871C154.876 12.2311 154.948 12.4071 154.948 12.6151V14.6791C154.948 14.8871 154.876 15.0631 154.732 15.2071C154.588 15.3351 154.412 15.3991 154.204 15.3991H144.124V19.1191H149.788C149.98 19.1191 150.148 19.1911 150.292 19.3351C150.436 19.4631 150.508 19.6311 150.508 19.8391V22.0711C150.508 22.2791 150.436 22.4551 150.292 22.5991C150.148 22.7271 149.98 22.7911 149.788 22.7911H144.124V27.2791H154.204C154.412 27.2791 154.588 27.3511 154.732 27.4951C154.876 27.6391 154.948 27.8071 154.948 27.9991V30.0871C154.948 30.2791 154.876 30.4471 154.732 30.5911C154.588 30.7351 154.412 30.8071 154.204 30.8071H141.196C140.988 30.8071 140.812 30.7351 140.668 30.5911C140.524 30.4471 140.452 30.2791 140.452 30.0871V12.6151C140.452 12.4071 140.524 12.2311 140.668 12.0871C140.812 11.9431 140.988 11.8711 141.196 11.8711Z" fill="white"/>
</g>
<line y1="-1.5" x2="147.906" y2="-1.5" transform="matrix(-1 0 0 1 153.954 40.8071)" stroke="white" stroke-width="3"/>
<line y1="-1.5" x2="4.04624" y2="-1.5" transform="matrix(-1 8.16129e-08 9.36461e-08 1 6.0459 43.6143)" stroke="white" stroke-width="3"/>
<line y1="-1.5" x2="4.04625" y2="-1.5" transform="matrix(-1 8.16128e-08 9.36463e-08 1 158 43.6143)" stroke="white" stroke-width="3"/>
<defs>
<filter id="filter0_d_68_207" x="0.183594" y="11.8711" width="158.765" height="26.936" filterUnits="userSpaceOnUse" color-interpolation-filters="sRGB">
<feFlood flood-opacity="0" result="BackgroundImageFix"/>
<feColorMatrix in="SourceAlpha" type="matrix" values="0 0 0 0 0 0 0 0 0 0 0 0 0 0 0 0 0 0 127 0" result="hardAlpha"/>
<feOffset dy="4"/>
<feGaussianBlur stdDeviation="2"/>
<feComposite in2="hardAlpha" operator="out"/>
<feColorMatrix type="matrix" values="0 0 0 0 0.417535 0 0 0 0 0.474062 0 0 0 0 0.770833 0 0 0 0.25 0"/>
<feBlend mode="normal" in2="BackgroundImageFix" result="effect1_dropShadow_68_207"/>
<feBlend mode="normal" in="SourceGraphic" in2="effect1_dropShadow_68_207" result="shape"/>
</filter>
</defs>
</svg>
