<svg width="24" height="24" viewBox="0 0 24 24" fill="none" xmlns="http://www.w3.org/2000/svg">
<path d="M21.6235 6.68797L12.9059 20.5702C12.7997 20.7379 12.653 20.8759 12.4792 20.9715C12.3053 21.0672 12.1101 21.1173 11.9118 21.1173C11.7118 21.1177 11.5151 21.0672 11.3401 20.9704C11.1651 20.8737 11.0177 20.734 10.9117 20.5644L2.36471 6.68209C2.12528 6.29297 1.99898 5.84486 2.00001 5.38797C2.01085 4.71346 2.28883 4.0708 2.77296 3.601C3.25709 3.13121 3.90782 2.87266 4.58236 2.88209H19.4294C20.8471 2.88209 22 3.99974 22 5.38209C22 5.84092 21.8706 6.29386 21.6235 6.68797ZM4.4647 6.22326L10.8235 16.0291V5.23504H5.12941C4.47059 5.23504 4.17647 5.67032 4.4647 6.22326ZM13.1764 16.0291L19.5353 6.22326C19.8295 5.67032 19.5294 5.23504 18.8706 5.23504H13.1764V16.0291Z" fill="white"/>
</svg>
