<svg width="28" height="29" viewBox="0 0 28 29" fill="none" xmlns="http://www.w3.org/2000/svg">
<rect y="0.5" width="28" height="28" rx="14" fill="#2C2C2C"/>
<path d="M14.8833 14.5L18.5666 10.8166C18.628 10.7594 18.6773 10.6904 18.7114 10.6137C18.7456 10.5371 18.764 10.4543 18.7654 10.3704C18.7669 10.2865 18.7515 10.2031 18.72 10.1253C18.6886 10.0475 18.6418 9.97678 18.5825 9.91743C18.5231 9.85808 18.4524 9.8113 18.3746 9.77986C18.2968 9.74843 18.2134 9.73299 18.1295 9.73447C18.0456 9.73595 17.9628 9.75432 17.8862 9.78848C17.8095 9.82264 17.7405 9.87189 17.6833 9.9333L13.9999 13.6166L10.3166 9.9333C10.1981 9.8229 10.0414 9.7628 9.8795 9.76565C9.71759 9.76851 9.5631 9.8341 9.44859 9.94861C9.33408 10.0631 9.26848 10.2176 9.26563 10.3795C9.26277 10.5414 9.32287 10.6982 9.43327 10.8166L13.1166 14.5L9.43327 18.1833C9.31623 18.3005 9.25049 18.4593 9.25049 18.625C9.25049 18.7906 9.31623 18.9494 9.43327 19.0666C9.55046 19.1837 9.70931 19.2494 9.87494 19.2494C10.0406 19.2494 10.1994 19.1837 10.3166 19.0666L13.9999 15.3833L17.6833 19.0666C17.8005 19.1837 17.9593 19.2494 18.1249 19.2494C18.2906 19.2494 18.4494 19.1837 18.5666 19.0666C18.6836 18.9494 18.7494 18.7906 18.7494 18.625C18.7494 18.4593 18.6836 18.3005 18.5666 18.1833L14.8833 14.5Z" fill="white"/>
</svg>
