<svg width="30" height="30" viewBox="0 0 30 30" fill="none" xmlns="http://www.w3.org/2000/svg">
<rect width="30" height="30" rx="5" fill="#202231"/>
<path d="M16.4718 15.0136L22.6655 8.81987C22.7688 8.72365 22.8516 8.60762 22.909 8.47871C22.9665 8.34979 22.9973 8.21062 22.9998 8.06951C23.0023 7.92839 22.9764 7.78822 22.9235 7.65736C22.8707 7.5265 22.792 7.40762 22.6922 7.30782C22.5924 7.20802 22.4735 7.12935 22.3426 7.07649C22.2118 7.02363 22.0716 6.99767 21.9305 7.00016C21.7894 7.00265 21.6502 7.03354 21.5213 7.09098C21.3924 7.14842 21.2763 7.23124 21.1801 7.3345L14.9864 13.5282L8.79273 7.3345C8.5935 7.14886 8.32999 7.04779 8.05772 7.05259C7.78545 7.0574 7.52567 7.1677 7.33311 7.36025C7.14056 7.55281 7.03026 7.81259 7.02545 8.08486C7.02065 8.35713 7.12172 8.62064 7.30736 8.81987L13.5011 15.0136L7.30736 21.2073C7.11055 21.4043 7 21.6714 7 21.95C7 22.2285 7.11055 22.4956 7.30736 22.6926C7.50442 22.8895 7.77154 23 8.05004 23C8.32855 23 8.59567 22.8895 8.79273 22.6926L14.9864 16.4989L21.1801 22.6926C21.3772 22.8895 21.6443 23 21.9228 23C22.2013 23 22.4684 22.8895 22.6655 22.6926C22.8623 22.4956 22.9729 22.2285 22.9729 21.95C22.9729 21.6714 22.8623 21.4043 22.6655 21.2073L16.4718 15.0136Z" fill="white" fill-opacity="0.5"/>
</svg>
