<svg width="14" height="15" viewBox="0 0 14 15" fill="none" xmlns="http://www.w3.org/2000/svg">
<g clip-path="url(#clip0_528_3302)">
<path d="M7 14C10.5899 14 13.5 11.0899 13.5 7.5C13.5 3.91015 10.5899 1 7 1C3.41015 1 0.5 3.91015 0.5 7.5C0.5 11.0899 3.41015 14 7 14Z" stroke="#9499B0"/>
<path d="M6.89831 9.13252H6.53672C6.53672 8.58618 6.61959 8.10054 6.78531 7.67561C6.83804 7.53686 7.0113 7.20732 7.30508 6.68699C7.61394 6.13198 7.76836 5.54661 7.76836 4.93089C7.76083 4.21978 7.46704 3.85556 6.88701 3.83821C6.71375 3.83821 6.57062 3.88157 6.45763 3.96829C6.32203 4.07236 6.2354 4.32385 6.19774 4.72276C6.18267 4.86152 6.17137 4.96558 6.16384 5.03496C6.09605 5.37317 5.90772 5.54228 5.59887 5.54228C5.25989 5.50759 5.06026 5.27778 5 4.85285C5.00753 4.56667 5.11676 4.3065 5.32768 4.07236C5.71186 3.69079 6.25424 3.5 6.9548 3.5C7.30132 3.5 7.6177 3.55203 7.90395 3.6561C8.63465 3.90759 9 4.41491 9 5.17805C9 5.45556 8.9435 5.71572 8.83051 5.95854C8.70998 6.2187 8.44256 6.5439 8.02825 6.93415C7.85499 7.09892 7.72693 7.22466 7.64407 7.31138C7.14689 7.84038 6.89831 8.44743 6.89831 9.13252Z" fill="#9499B0"/>
<path d="M6.69183 11.8837C6.50734 11.8837 6.34591 11.8145 6.20755 11.6761C6.06918 11.5377 6 11.3763 6 11.1918C6 10.9981 6.06918 10.8367 6.20755 10.7075C6.34591 10.5692 6.50734 10.5 6.69183 10.5C6.88554 10.5 7.04697 10.5692 7.17611 10.7075C7.31448 10.8367 7.38366 10.9981 7.38366 11.1918C7.38366 11.3763 7.31448 11.5377 7.17611 11.6761C7.04697 11.8145 6.88554 11.8837 6.69183 11.8837Z" fill="#9499B0"/>
</g>
<defs>
<clipPath id="clip0_528_3302">
<rect width="14" height="14" fill="white" transform="translate(0 0.5)"/>
</clipPath>
</defs>
</svg>
