<svg width="16" height="16" viewBox="0 0 16 16" fill="none" xmlns="http://www.w3.org/2000/svg">
<path d="M7.1665 6.74967H7.49984C7.77598 6.74967 7.99984 6.97353 7.99984 7.24967V10.4163C7.99984 10.6925 8.22369 10.9163 8.49984 10.9163H8.83317M7.99984 5.08301H8.00818" stroke="#9499B0" stroke-linecap="round" stroke-linejoin="round"/>
<path d="M9.15749 14.5651C10.0197 14.413 10.8435 14.0927 11.5818 13.6223C12.3202 13.1519 12.9587 12.5407 13.4609 11.8235C13.963 11.1064 14.319 10.2973 14.5085 9.4426C14.698 8.58788 14.7172 7.7042 14.5652 6.84202C14.4132 5.97984 14.0928 5.15605 13.6224 4.41768C13.1521 3.6793 12.5408 3.04081 11.8237 2.53866C11.1065 2.03651 10.2975 1.68052 9.44277 1.49103C8.58804 1.30155 7.70436 1.28226 6.84218 1.43429C5.98 1.58632 5.15621 1.90667 4.41784 2.37707C3.67947 2.84746 3.04098 3.45868 2.53882 4.17583C2.03667 4.89298 1.68069 5.70202 1.4912 6.55674C1.30171 7.41147 1.28243 8.29515 1.43445 9.15733C1.58648 10.0195 1.90683 10.8433 2.37723 11.5817C2.84762 12.32 3.45885 12.9585 4.176 13.4607C4.89315 13.9628 5.70218 14.3188 6.55691 14.5083C7.41164 14.6978 8.29532 14.7171 9.15749 14.5651L9.15749 14.5651Z" stroke="#9499B0"/>
</svg>
