<svg width="17" height="16" viewBox="0 0 17 16" fill="none" xmlns="http://www.w3.org/2000/svg">
<g clip-path="url(#clip0_528_3288)">
<path d="M3.8 15.3998C5.3464 15.3998 6.6 14.1462 6.6 12.5998C6.6 11.0534 5.3464 9.7998 3.8 9.7998C2.2536 9.7998 1 11.0534 1 12.5998C1 14.1462 2.2536 15.3998 3.8 15.3998Z" stroke="#9499B0" stroke-miterlimit="10"/>
<path d="M13.0998 13.8002C14.6462 13.8002 15.8998 12.5466 15.8998 11.0002C15.8998 9.4538 14.6462 8.2002 13.0998 8.2002C11.5535 8.2002 10.2998 9.4538 10.2998 11.0002C10.2998 12.5466 11.5535 13.8002 13.0998 13.8002Z" stroke="#9499B0" stroke-miterlimit="10"/>
<path d="M6.6001 12.6V5.5" stroke="#9499B0" stroke-miterlimit="10"/>
<path d="M15.8999 11V1" stroke="#9499B0" stroke-miterlimit="10"/>
<path d="M15.9001 3.5L6.6001 5.5V3L15.9001 1V3.5Z" stroke="#9499B0" stroke-miterlimit="10"/>
</g>
<defs>
<clipPath id="clip0_528_3288">
<rect width="17" height="16" fill="white"/>
</clipPath>
</defs>
</svg>
