<svg width="17" height="20" viewBox="0 0 10 12" fill="none" xmlns="http://www.w3.org/2000/svg">
    <path d="M5 0C4.24224 0 3.51551 0.316071 2.97969 0.87868C2.44388 1.44129 2.14286 2.20435 2.14286 3C2.14286 3.79565 2.44388 4.55871 2.97969 5.12132C3.51551 5.68393 4.24224 6 5 6C5.75776 6 6.48449 5.68393 7.02031 5.12132C7.55612 4.55871 7.85714 3.79565 7.85714 3C7.85714 2.20435 7.55612 1.44129 7.02031 0.87868C6.48449 0.316071 5.75776 0 5 0ZM1.435 6.75C1.24686 6.74911 1.0604 6.78725 0.886335 6.86224C0.71227 6.93722 0.554026 7.04757 0.420689 7.18695C0.287352 7.32632 0.181549 7.49198 0.109355 7.67441C0.0371612 7.85684 -1.9049e-06 8.05245 0 8.25C0 9.51825 0.595 10.4745 1.525 11.0978C2.44071 11.7105 3.675 12 5 12C6.325 12 7.55929 11.7105 8.475 11.0978C9.405 10.4753 10 9.5175 10 8.25C10 7.85218 9.84949 7.47064 9.58158 7.18934C9.31367 6.90804 8.95031 6.75 8.57143 6.75H1.435Z" fill="#FFDD14"/>
</svg>
